<svg width="904" height="367" viewBox="0 0 904 367" fill="none" xmlns="http://www.w3.org/2000/svg">
<path d="M376.162 126.896C376.947 127.141 377.735 127.388 378.521 127.634C379 127.749 379.472 127.856 379.953 127.973C378.687 127.612 377.414 127.241 376.162 126.896ZM19.765 146.027C19.4716 146.211 19.1789 146.395 18.8896 146.577C19.5235 146.261 20.159 145.945 20.8104 145.623C20.4631 145.758 20.1085 145.894 19.765 146.027ZM369.772 125.169C371.061 125.603 372.355 126.043 373.65 126.482C374.701 126.729 375.754 126.978 376.81 127.23C375.558 126.835 374.302 126.437 373.063 126.056C371.963 125.757 370.867 125.463 369.772 125.169ZM366.622 124.103C367.048 124.244 367.482 124.394 367.914 124.54C368.518 124.701 369.128 124.868 369.734 125.031C368.69 124.714 367.661 124.414 366.622 124.103ZM15.5838 148.374C15.3228 148.582 15.0613 148.791 14.804 148.997C15.3792 148.632 15.9619 148.263 16.5542 147.889C16.2313 148.05 15.9013 148.215 15.5838 148.374ZM17.3383 146.973C16.91 147.314 16.4965 147.645 16.0772 147.98C16.6012 147.717 17.1266 147.454 17.6658 147.185C18.134 146.89 18.6132 146.589 19.0933 146.288C18.4974 146.519 17.9196 146.746 17.3383 146.973ZM11.8762 151.02L11.2045 151.703C11.7094 151.299 12.2216 150.887 12.7413 150.469L11.8762 151.02ZM363.98 123.627C365.555 124.19 367.14 124.765 368.727 125.341C369.929 125.614 371.137 125.893 372.346 126.174C370.842 125.661 369.335 125.146 367.848 124.651C366.557 124.309 365.262 123.96 363.98 123.627ZM358.854 121.8C360.155 122.256 361.465 122.723 362.781 123.194C363.851 123.471 364.915 123.739 365.99 124.022C364.627 123.573 363.29 123.148 361.934 122.706C360.909 122.405 359.874 122.095 358.854 121.8ZM354.84 120.412C355.494 120.638 356.148 120.865 356.799 121.089C357.162 121.193 357.52 121.291 357.883 121.396C356.869 121.068 355.845 120.73 354.84 120.412ZM13.399 149.47C13.0284 149.847 12.6619 150.219 12.2997 150.588L13.2256 150L13.7123 149.691C14.1309 149.355 14.5433 149.023 14.9717 148.681L13.399 149.47ZM14.933 147.916C14.513 148.34 14.0941 148.764 13.6854 149.179C14.273 148.884 14.8613 148.589 15.4675 148.285C15.938 147.909 16.4096 147.531 16.8925 147.147C16.2272 147.407 15.5779 147.662 14.933 147.916ZM8.63519 153.935C8.44751 154.179 8.26038 154.422 8.07471 154.662C8.50519 154.229 8.9422 153.788 9.38513 153.339C9.13312 153.54 8.88379 153.739 8.63519 153.935ZM9.92517 152.255C9.61182 152.665 9.30145 153.069 8.99408 153.469C9.39941 153.147 9.80963 152.819 10.2255 152.487C10.5867 152.12 10.9532 151.747 11.3231 151.37C10.8508 151.67 10.3844 151.965 9.92517 152.255ZM11.2225 150.563L10.5422 151.451L10.1664 151.942C10.6843 151.614 11.2108 151.28 11.7458 150.94L11.7932 150.892C12.1839 150.494 12.5869 150.084 12.9872 149.677L12.8276 149.757L11.2225 150.563ZM12.5292 148.861C12.1503 149.354 11.7762 149.842 11.4068 150.323L12.7274 149.66L13.2733 149.386C13.7064 148.946 14.147 148.499 14.5916 148.05C13.8917 148.325 13.2043 148.595 12.5292 148.861ZM358.886 122.33C360.567 122.964 362.281 123.629 363.988 124.288C365.242 124.565 366.495 124.841 367.755 125.125C366.069 124.513 364.38 123.897 362.714 123.305C361.433 122.974 360.16 122.653 358.886 122.33ZM353.049 120.158C354.651 120.752 356.242 121.337 357.852 121.94C359.069 122.245 360.291 122.558 361.515 122.872C359.908 122.303 358.321 121.753 356.728 121.198C355.497 120.846 354.272 120.502 353.049 120.158ZM348.093 118.319C349.244 118.74 350.415 119.178 351.582 119.613C352.608 119.899 353.643 120.196 354.674 120.488C353.421 120.053 352.164 119.614 350.922 119.19C349.975 118.896 349.036 118.609 348.093 118.319ZM344.536 117.035C344.922 117.175 345.304 117.309 345.689 117.448C346.162 117.592 346.64 117.742 347.114 117.887C346.246 117.594 345.4 117.323 344.536 117.035ZM5.84375 157.086C5.69171 157.34 5.53986 157.592 5.38965 157.841C5.74854 157.39 6.11285 156.929 6.48132 156.459C6.26727 156.671 6.05475 156.879 5.84375 157.086ZM6.91107 155.294C6.65271 155.73 6.39722 156.161 6.14374 156.585C6.49323 156.241 6.84637 155.89 7.2038 155.534C7.5108 155.139 7.82123 154.738 8.13525 154.331C7.72162 154.658 7.31335 154.979 6.91107 155.294ZM7.98016 153.48C7.68597 153.98 7.3963 154.473 7.10919 154.959C7.5639 154.602 8.02496 154.238 8.49396 153.867C8.84088 153.415 9.19238 152.958 9.5484 152.494C9.01721 152.829 8.49384 153.158 7.98016 153.48ZM9.05408 151.649L8.86951 151.964L8.12964 153.225C8.6731 152.884 9.2262 152.536 9.78888 152.181L10.3913 151.394L10.9066 150.722C10.2776 151.037 9.65942 151.347 9.05408 151.649ZM10.1365 149.806C9.81213 150.357 9.49194 150.903 9.1756 151.441C9.80206 151.128 10.4401 150.809 11.0898 150.482C11.4716 149.985 11.8579 149.481 12.2493 148.972L10.7248 149.573L10.1365 149.806ZM353.57 120.994C355.44 121.734 357.315 122.481 359.204 123.239C360.51 123.519 361.828 123.812 363.141 124.1C361.348 123.41 359.547 122.713 357.783 122.05C356.378 121.697 354.966 121.336 353.57 120.994ZM347.46 118.595C349.224 119.283 350.99 119.971 352.772 120.676C354.073 120.993 355.378 121.316 356.687 121.643C354.954 120.996 353.231 120.358 351.511 119.723C350.159 119.346 348.801 118.962 347.46 118.595ZM341.65 116.346C343.216 116.946 344.8 117.563 346.385 118.179C347.603 118.51 348.819 118.839 350.045 119.179C348.561 118.631 347.083 118.088 345.619 117.557C344.297 117.155 342.961 116.738 341.65 116.346ZM336.154 114.267C337.531 114.785 338.891 115.288 340.276 115.815C341.187 116.085 342.089 116.346 343.006 116.622C341.899 116.225 340.787 115.824 339.687 115.433C338.514 115.05 337.317 114.641 336.154 114.267ZM333.062 113.106C333.347 113.212 333.634 113.321 333.92 113.428C334.208 113.52 334.49 113.605 334.779 113.698C334.202 113.497 333.636 113.305 333.062 113.106ZM3.48022 160.425C3.35962 160.685 3.23969 160.943 3.12036 161.197C3.41522 160.738 3.71179 160.266 4.01208 159.785C3.8338 160.001 3.65649 160.215 3.48022 160.425ZM4.33557 158.544C4.12982 159.001 3.92609 159.451 3.72339 159.894C4.0199 159.536 4.31964 159.17 4.62177 158.797C4.87671 158.38 5.1347 157.955 5.39429 157.525C5.03741 157.872 4.68451 158.212 4.33557 158.544ZM5.18658 156.63C4.95374 157.158 4.72284 157.678 4.49408 158.189C4.88861 157.811 5.28857 157.423 5.6936 157.027C5.98175 156.547 6.27209 156.059 6.56592 155.563C6.09888 155.927 5.63861 156.283 5.18658 156.63ZM6.03674 154.688C5.79028 155.254 5.54669 155.812 5.30481 156.361C5.7832 155.994 6.26959 155.616 6.76373 155.229C7.06818 154.716 7.37555 154.193 7.68689 153.664C7.12677 154.014 6.5766 154.356 6.03674 154.688ZM6.88989 152.726C6.6344 153.315 6.38165 153.896 6.13196 154.47C6.68903 154.125 7.25745 153.771 7.83636 153.409C8.12421 152.919 8.41534 152.422 8.71075 151.919L8.79205 151.78C8.14502 152.103 7.51074 152.419 6.88989 152.726ZM7.75037 150.747C7.49414 151.336 7.24103 151.919 6.99133 152.494L6.9718 152.539C7.60535 152.225 8.25262 151.903 8.914 151.572C9.23724 151.022 9.56372 150.465 9.89532 149.901C9.164 150.19 8.44861 150.472 7.75037 150.747ZM348.604 119.804C350.571 120.615 352.549 121.438 354.537 122.269C355.852 122.541 357.163 122.808 358.485 123.089C356.549 122.312 354.622 121.543 352.71 120.788C351.335 120.452 349.971 120.129 348.604 119.804ZM342.293 117.213C344.131 117.959 345.997 118.73 347.862 119.499C349.208 119.819 350.557 120.14 351.911 120.469C350.035 119.73 348.182 119.014 346.323 118.291C344.973 117.925 343.633 117.57 342.293 117.213ZM336.074 114.717C337.846 115.425 339.606 116.122 341.394 116.844C342.675 117.183 343.959 117.527 345.249 117.875C343.566 117.22 341.878 116.561 340.22 115.928C338.829 115.516 337.454 115.119 336.074 114.717ZM330.347 112.436C331.839 113.023 333.351 113.628 334.863 114.233C336.126 114.599 337.393 114.969 338.665 115.344C337.062 114.74 335.466 114.142 333.872 113.545C332.688 113.167 331.522 112.807 330.347 112.436ZM324.659 110.225C325.96 110.729 327.268 111.238 328.575 111.747C329.615 112.073 330.66 112.401 331.708 112.732C330.416 112.251 329.135 111.78 327.856 111.311C326.789 110.948 325.719 110.581 324.659 110.225ZM321.675 109.065C321.899 109.151 322.128 109.241 322.354 109.328C322.533 109.389 322.71 109.447 322.891 109.506C322.487 109.361 322.078 109.21 321.675 109.065ZM1.50781 163.903C1.41632 164.166 1.32434 164.426 1.23175 164.683C1.47131 164.221 1.71051 163.746 1.95044 163.259C1.80237 163.477 1.65515 163.691 1.50781 163.903ZM2.16907 161.957C2.0119 162.43 1.85571 162.895 1.69928 163.352C1.94861 162.986 2.19995 162.61 2.45233 162.227C2.66028 161.793 2.86853 161.352 3.0788 160.902C2.77271 161.262 2.46918 161.614 2.16907 161.957ZM2.81616 159.966C2.64093 160.516 2.4657 161.057 2.29102 161.588C2.6308 161.196 2.974 160.793 3.32056 160.379C3.55255 159.876 3.78534 159.365 4.02075 158.843C3.61377 159.228 3.21246 159.602 2.81616 159.966ZM3.45618 157.936C3.27161 158.529 3.08765 159.112 2.90576 159.686C3.32391 159.3 3.74854 158.901 4.17938 158.491C4.42273 157.949 4.66754 157.398 4.91504 156.837C4.42035 157.214 3.93365 157.581 3.45618 157.936ZM4.09143 155.875C3.90161 156.496 3.71283 157.107 3.52643 157.709C4.01984 157.341 4.52124 156.961 5.0329 156.57C5.28296 156.002 5.53534 155.426 5.79022 154.84C5.21259 155.196 4.646 155.541 4.09143 155.875ZM4.72772 153.789C4.53296 154.428 4.34119 155.06 4.15094 155.681C4.71704 155.339 5.29547 154.986 5.88593 154.622C6.14105 154.036 6.39935 153.442 6.66113 152.839C6.00159 153.165 5.35724 153.482 4.72772 153.789ZM5.36877 151.681L4.95679 153.035L4.77979 153.617C5.41907 153.306 6.07251 152.984 6.74237 152.652L6.82678 152.459C7.05872 151.923 7.29541 151.38 7.53339 150.832C6.79352 151.123 6.07172 151.406 5.36877 151.681ZM343.595 118.615C345.66 119.498 347.733 120.388 349.823 121.295C351.17 121.564 352.532 121.854 353.886 122.133C351.845 121.281 349.819 120.444 347.797 119.61C346.396 119.279 344.987 118.936 343.595 118.615ZM336.957 115.8C338.958 116.644 340.958 117.488 342.982 118.351C344.332 118.661 345.695 118.985 347.055 119.306C345.139 118.515 343.217 117.72 341.331 116.956C339.873 116.57 338.404 116.174 336.957 115.8ZM330.55 113.111C332.415 113.885 334.307 114.684 336.199 115.481C337.581 115.837 338.972 116.203 340.365 116.569C338.5 115.818 336.651 115.081 334.803 114.345C333.387 113.936 331.954 113.509 330.55 113.111ZM324.169 110.494C325.968 111.228 327.769 111.966 329.584 112.715C330.913 113.09 332.254 113.477 333.594 113.862C331.892 113.186 330.202 112.52 328.52 111.862C327.074 111.41 325.601 110.932 324.169 110.494ZM318.364 108.139C319.9 108.758 321.439 109.378 322.991 110.011C324.235 110.39 325.496 110.785 326.75 111.173C325.263 110.593 323.773 110.009 322.303 109.445C320.986 109.006 319.67 108.567 318.364 108.139ZM313.04 106.011C314.164 106.457 315.301 106.914 316.435 107.368C317.522 107.722 318.634 108.098 319.73 108.46C318.466 107.98 317.213 107.509 315.956 107.035C314.981 106.691 314.008 106.348 313.04 106.011ZM309.712 104.696C309.836 104.745 309.958 104.791 310.083 104.84C310.27 104.905 310.462 104.975 310.65 105.039C310.334 104.922 310.026 104.812 309.712 104.696ZM0.375183 165.477C0.261414 165.962 0.14679 166.436 0.0299683 166.902C0.241333 166.533 0.451599 166.153 0.662109 165.763C0.827148 165.321 0.990967 164.868 1.15479 164.406C0.89386 164.774 0.634277 165.131 0.375183 165.477ZM0.836853 163.433C0.713196 164 0.588684 164.556 0.462463 165.101C0.755188 164.703 1.04895 164.29 1.3446 163.865C1.52539 163.347 1.70581 162.818 1.88629 162.278C1.53333 162.676 1.18384 163.061 0.836853 163.433ZM1.2818 161.339C1.15491 161.953 1.02802 162.555 0.899475 163.146C1.2652 162.75 1.6344 162.338 2.0072 161.913C2.1936 161.351 2.38062 160.777 2.56775 160.193C2.13306 160.589 1.70453 160.971 1.2818 161.339ZM1.71429 159.204C1.58594 159.849 1.45776 160.483 1.32977 161.106C1.76532 160.724 2.2077 160.327 2.65643 159.915C2.84558 159.322 3.03583 158.719 3.22711 158.106C2.71289 158.485 2.2088 158.852 1.71429 159.204ZM2.13989 157.032C2.01117 157.7 1.88196 158.358 1.75397 159.005C2.25873 158.644 2.77332 158.269 3.29797 157.879C3.48889 157.265 3.6814 156.639 3.87579 156.005C3.28436 156.36 2.70563 156.703 2.13989 157.032ZM2.56409 154.831C2.43304 155.516 2.30298 156.191 2.17462 156.857C2.74792 156.522 3.33484 156.173 3.93494 155.811C4.12854 155.18 4.32361 154.539 4.52136 153.889C3.85223 154.215 3.19958 154.529 2.56409 154.831ZM2.99005 152.604L2.802 153.586L2.59448 154.672C3.23669 154.366 3.89673 154.048 4.57312 153.718L4.78864 153.01L5.16937 151.759C4.42194 152.051 3.69556 152.333 2.99005 152.604ZM338.808 117.539C340.934 118.478 343.088 119.441 345.246 120.407C346.575 120.665 347.897 120.914 349.233 121.18C347.113 120.262 345.008 119.356 342.918 118.462C341.54 118.146 340.177 117.846 338.808 117.539ZM331.975 114.546C334.041 115.445 336.123 116.358 338.217 117.28C339.577 117.584 340.935 117.885 342.304 118.198C340.231 117.315 338.186 116.456 336.136 115.594C334.74 115.235 333.36 114.893 331.975 114.546ZM325.278 111.655C327.274 112.511 329.27 113.368 331.29 114.245C332.649 114.585 334.008 114.924 335.378 115.275C333.416 114.45 331.459 113.629 329.523 112.828C328.098 112.425 326.693 112.044 325.278 111.655ZM318.834 108.902C320.682 109.683 322.556 110.487 324.43 111.291C325.803 111.668 327.174 112.043 328.558 112.432C326.674 111.654 324.799 110.884 322.937 110.126C321.556 109.705 320.203 109.311 318.834 108.902ZM312.416 106.212C314.184 106.949 315.964 107.695 317.752 108.448C319.089 108.845 320.42 109.237 321.769 109.646C319.957 108.911 318.17 108.199 316.377 107.481C315.045 107.048 313.735 106.634 312.416 106.212ZM306.374 103.717C307.953 104.364 309.527 105.009 311.121 105.67C312.297 106.044 313.459 106.405 314.644 106.788C313.091 106.168 311.542 105.55 310.01 104.947C308.784 104.525 307.59 104.13 306.374 103.717ZM300.965 101.504C302.135 101.978 303.324 102.467 304.509 102.954C305.476 103.28 306.44 103.604 307.412 103.936C306.228 103.475 305.038 103.009 303.861 102.554C302.895 102.203 301.924 101.848 300.965 101.504ZM297.855 100.257C297.951 100.295 298.046 100.333 298.142 100.371L298.386 100.458C298.208 100.39 298.032 100.324 297.855 100.257ZM0.395386 155.844C0.327942 156.568 0.260132 157.283 0.193054 157.987C0.773438 157.665 1.36859 157.325 1.97882 156.97C2.1095 156.297 2.2406 155.614 2.37366 154.921C1.69476 155.243 1.03503 155.551 0.395386 155.844ZM0.611572 153.511L0.552551 154.145L0.408997 155.695C1.05426 155.399 1.71936 155.088 2.40387 154.762L2.6319 153.571L2.80328 152.677C2.04767 152.967 1.31726 153.246 0.611572 153.511ZM333.906 116.442C336.138 117.456 338.378 118.477 340.636 119.514C341.979 119.765 343.34 120.039 344.691 120.299C342.5 119.32 340.314 118.345 338.152 117.392C336.738 117.077 335.31 116.746 333.906 116.442ZM326.894 113.272C329.04 114.234 331.215 115.22 333.392 116.209C334.773 116.507 336.17 116.825 337.561 117.133C335.438 116.197 333.319 115.267 331.225 114.357C329.783 113.996 328.325 113.62 326.894 113.272ZM319.963 110.188C322.056 111.113 324.165 112.052 326.286 113.001C327.694 113.343 329.121 113.703 330.541 114.057C328.466 113.157 326.419 112.281 324.369 111.404C322.903 111.001 321.416 110.577 319.963 110.188ZM313.191 107.219C315.208 108.098 317.227 108.978 319.269 109.879C320.674 110.254 322.104 110.653 323.521 111.04C321.567 110.204 319.621 109.375 317.694 108.561C316.195 108.116 314.675 107.65 313.191 107.219ZM306.659 104.385C308.518 105.184 310.401 106.002 312.287 106.824C313.712 107.237 315.172 107.683 316.612 108.108C314.754 107.326 312.897 106.544 311.064 105.783C309.594 105.316 308.114 104.838 306.659 104.385ZM300.192 101.627C301.938 102.366 303.697 103.118 305.462 103.875C306.877 104.313 308.327 104.785 309.756 105.236C307.97 104.499 306.211 103.785 304.442 103.063C303.026 102.585 301.594 102.092 300.192 101.627ZM294.142 99.0862C295.724 99.7469 297.298 100.4 298.895 101.074C300.117 101.477 301.348 101.888 302.581 102.301C301.068 101.685 299.568 101.08 298.073 100.479C296.76 100.013 295.443 99.5422 294.142 99.0862ZM289.002 96.9441C290.029 97.3672 291.074 97.8062 292.115 98.2415C293.103 98.5851 294.112 98.9463 295.107 99.2961C293.941 98.8302 292.767 98.3578 291.613 97.9028C290.734 97.5757 289.876 97.2663 289.002 96.9441ZM285.719 95.605L285.754 95.6194L285.785 95.6307L285.719 95.605ZM329.248 115.466C331.55 116.539 333.853 117.612 336.185 118.712C337.5 118.949 338.804 119.173 340.126 119.419C337.843 118.372 335.584 117.344 333.33 116.321C331.959 116.026 330.609 115.751 329.248 115.466ZM322.026 112.122C324.26 113.151 326.5 114.186 328.762 115.239C330.112 115.521 331.456 115.796 332.815 116.088C330.606 115.086 328.403 114.089 326.224 113.114C324.814 112.772 323.425 112.452 322.026 112.122ZM314.979 108.892C317.118 109.864 319.286 110.861 321.457 111.861C322.842 112.186 324.22 112.506 325.616 112.843C323.468 111.882 321.327 110.927 319.21 109.992C317.787 109.612 316.39 109.259 314.979 108.892ZM308.007 105.749C310.095 106.685 312.191 107.629 314.306 108.588C315.708 108.952 317.101 109.307 318.515 109.683C316.402 108.752 314.318 107.847 312.232 106.939C310.808 106.527 309.418 106.148 308.007 105.749ZM301.143 102.695C303.167 103.59 305.191 104.486 307.238 105.402C308.622 105.793 309.992 106.169 311.389 106.572C309.381 105.7 307.387 104.838 305.408 103.988C303.971 103.543 302.567 103.128 301.143 102.695ZM294.533 99.7842C296.406 100.601 298.302 101.439 300.203 102.279C301.582 102.697 302.953 103.106 304.346 103.536C302.501 102.745 300.654 101.953 298.834 101.185C297.39 100.708 295.963 100.248 294.533 99.7842ZM288.086 96.994C289.819 97.7397 291.565 98.4965 293.316 99.2578C294.692 99.7013 296.078 100.153 297.468 100.609C295.652 99.8467 293.854 99.1001 292.056 98.3531C290.719 97.8882 289.41 97.4472 288.086 96.994ZM281.832 94.3264C283.431 95.0047 285.022 95.6759 286.637 96.3673C287.853 96.7809 289.07 97.1957 290.296 97.619C288.749 96.9789 287.22 96.3536 285.69 95.7281C284.4 95.2578 283.109 94.7859 281.832 94.3264ZM276.727 92.165C277.77 92.6021 278.833 93.0551 279.89 93.5041C280.777 93.8211 281.65 94.1251 282.542 94.447C281.565 94.0486 280.579 93.6434 279.612 93.2544C278.645 92.8862 277.688 92.5274 276.727 92.165ZM324.537 114.479C326.887 115.6 329.264 116.743 331.653 117.897C332.992 118.13 334.345 118.381 335.692 118.623C333.342 117.515 331.018 116.431 328.7 115.352C327.313 115.062 325.913 114.757 324.537 114.479ZM317.096 110.958C319.416 112.052 321.729 113.14 324.079 114.259C325.447 114.535 326.838 114.837 328.214 115.124C325.923 114.058 323.657 113.014 321.396 111.973C319.964 111.637 318.515 111.282 317.096 110.958ZM309.826 107.552C312.065 108.594 314.315 109.647 316.583 110.715C317.985 111.035 319.414 111.381 320.827 111.712C318.621 110.697 316.421 109.689 314.246 108.701C312.774 108.32 311.285 107.92 309.826 107.552ZM302.75 104.268C304.879 105.248 307.043 106.256 309.206 107.264C310.646 107.626 312.12 108.023 313.573 108.398C311.429 107.426 309.298 106.464 307.183 105.517C305.706 105.1 304.214 104.671 302.75 104.268ZM295.625 101.022C297.742 101.982 299.862 102.946 302.005 103.928C303.458 104.327 304.948 104.759 306.416 105.171C304.308 104.229 302.228 103.312 300.146 102.393C298.641 101.937 297.115 101.462 295.625 101.022ZM288.816 97.9517C290.816 98.8485 292.822 99.7487 294.848 100.667C296.287 101.091 297.751 101.539 299.206 101.977C297.208 101.096 295.223 100.225 293.252 99.3674C291.765 98.888 290.287 98.4169 288.816 97.9517ZM282.151 94.9785C284.033 95.8105 285.943 96.6655 287.853 97.5215C289.246 97.9594 290.631 98.3907 292.038 98.8414C290.208 98.0463 288.379 97.2507 286.576 96.4776C285.097 95.9736 283.614 95.4676 282.151 94.9785ZM275.628 92.1203C277.392 92.8893 279.166 93.6671 280.948 94.451C282.306 94.903 283.667 95.3562 285.039 95.8204C283.292 95.0757 281.562 94.3456 279.832 93.6151C278.426 93.1128 277.019 92.6096 275.628 92.1203ZM269.517 89.4756C271.027 90.1257 272.53 90.7691 274.056 91.4313C275.322 91.8737 276.617 92.3415 277.896 92.7951C276.275 92.1145 274.675 91.4505 273.073 90.7852C271.877 90.3393 270.702 89.9125 269.517 89.4756ZM264.244 87.2141C265.289 87.6579 266.351 88.1165 267.408 88.5719C268.327 88.9071 269.244 89.2418 270.168 89.583C269.2 89.1816 268.225 88.7744 267.27 88.3835C266.257 87.9901 265.249 87.6006 264.244 87.2141ZM319.969 113.585C322.373 114.756 324.807 115.953 327.248 117.155C328.558 117.375 329.859 117.583 331.176 117.811C328.774 116.651 326.381 115.499 324.017 114.372C322.657 114.098 321.32 113.849 319.969 113.585ZM312.399 109.921C314.763 111.059 317.14 112.209 319.538 113.376C320.885 113.639 322.22 113.889 323.576 114.162C321.202 113.031 318.865 111.932 316.521 110.829C315.135 110.513 313.775 110.225 312.399 109.921ZM304.942 106.353C307.257 107.456 309.574 108.561 311.921 109.689C313.288 109.99 314.643 110.28 316.021 110.592C313.712 109.506 311.425 108.437 309.147 107.378C307.73 107.021 306.346 106.697 304.942 106.353ZM297.639 102.892C299.872 103.944 302.128 105.013 304.394 106.092C305.786 106.432 307.163 106.756 308.569 107.108C306.349 106.076 304.132 105.046 301.946 104.042C300.496 103.644 299.076 103.276 297.639 102.892ZM290.449 99.5255C292.614 100.532 294.806 101.561 297.005 102.595C298.414 102.971 299.8 103.324 301.224 103.712C299.065 102.722 296.922 101.746 294.791 100.78C293.33 100.35 291.894 99.9424 290.449 99.5255ZM283.294 96.2265C285.431 97.2078 287.561 98.1837 289.727 99.1874C291.151 99.5967 292.574 100.003 294.014 100.426C291.922 99.4794 289.855 98.5554 287.79 97.6313C286.286 97.1585 284.781 96.6845 283.294 96.2265ZM276.398 93.0807C278.392 93.9841 280.397 94.8977 282.417 95.8239C283.873 96.2698 285.356 96.7405 286.828 97.201C284.834 96.3102 282.849 95.4269 280.884 94.5603C279.381 94.0609 277.884 93.5654 276.398 93.0807ZM269.775 90.0907C271.607 90.9103 273.47 91.7554 275.331 92.5991C276.767 93.0653 278.229 93.5533 279.683 94.0342C277.777 93.1951 275.873 92.3579 273.995 91.5417C272.573 91.0442 271.182 90.5742 269.775 90.0907ZM263.076 87.1227C264.871 87.9142 266.668 88.7085 268.479 89.515C269.834 89.9779 271.187 90.4403 272.556 90.916C270.805 90.1595 269.077 89.4215 267.344 88.6797C265.919 88.1588 264.485 87.6298 263.076 87.1227ZM257.026 84.4704C258.539 85.1292 260.053 85.7885 261.583 86.4616C262.799 86.8968 264.016 87.3333 265.244 87.7785C263.668 87.1071 262.112 86.4518 260.554 85.7957C259.367 85.3442 258.203 84.9125 257.026 84.4704ZM251.621 82.1266C252.661 82.574 253.717 83.0346 254.769 83.4915C255.698 83.8376 256.635 84.1914 257.57 84.5434C256.609 84.1396 255.641 83.7293 254.691 83.3352C253.665 82.9297 252.639 82.5252 251.621 82.1266ZM315.355 112.688C317.833 113.919 320.334 115.168 322.845 116.426C324.159 116.638 325.485 116.861 326.807 117.082C324.348 115.872 321.898 114.669 319.475 113.489C318.102 113.222 316.719 112.945 315.355 112.688ZM307.646 108.874C310.051 110.055 312.496 111.269 314.94 112.482C316.298 112.737 317.677 113.015 319.044 113.28C316.633 112.106 314.235 110.945 311.859 109.802C310.454 109.492 309.038 109.171 307.646 108.874ZM300.016 105.154C302.395 106.309 304.772 107.463 307.184 108.646C308.57 108.941 309.983 109.263 311.381 109.57C309.011 108.431 306.672 107.318 304.334 106.205C302.894 105.854 301.442 105.492 300.016 105.154ZM292.543 101.543C294.845 102.649 297.159 103.766 299.493 104.899C300.91 105.233 302.356 105.596 303.786 105.944C301.492 104.853 299.21 103.773 296.948 102.71C295.477 102.318 294 101.921 292.543 101.543ZM285.167 98.0125C287.403 99.0742 289.673 100.164 291.944 101.256C293.387 101.628 294.857 102.026 296.314 102.413C294.088 101.366 291.86 100.318 289.668 99.3C288.166 98.8689 286.654 98.4285 285.167 98.0125ZM277.96 94.613C280.131 95.6321 282.314 96.6614 284.515 97.7049C285.974 98.1118 287.449 98.5342 288.923 98.9557C286.714 97.9325 284.533 96.9323 282.352 95.9327C280.873 95.4795 279.423 95.0515 277.96 94.613ZM270.835 91.2917C272.951 92.2728 275.07 93.2569 277.215 94.2619C278.646 94.6888 280.063 95.1033 281.51 95.5446C279.411 94.5849 277.334 93.643 275.265 92.7068C273.774 92.2228 272.309 91.7608 270.835 91.2917ZM263.877 88.0814C265.884 89.0005 267.915 89.9389 269.953 90.883C271.377 91.3338 272.787 91.7731 274.228 92.2382C272.279 91.3575 270.333 90.4788 268.414 89.6225C266.895 89.103 265.378 88.5852 263.877 88.0814ZM257.133 85.0122C259.015 85.8629 260.92 86.7321 262.828 87.604C264.246 88.0776 265.665 88.553 267.099 89.0405C265.23 88.2091 263.366 87.3822 261.52 86.5703C260.05 86.044 258.586 85.5235 257.133 85.0122ZM250.524 82.0494C252.291 82.8377 254.046 83.6161 255.832 84.4198C257.218 84.9056 258.629 85.4122 260.031 85.911C258.236 85.1251 256.472 84.3647 254.698 83.5957C253.299 83.0739 251.907 82.5578 250.524 82.0494ZM244.447 79.351C245.932 80.0056 247.43 80.6695 248.935 81.3405C250.111 81.7699 251.27 82.1845 252.457 82.624C250.962 81.9786 249.481 81.3451 248.004 80.7146C246.808 80.2516 245.631 79.8049 244.447 79.351ZM238.908 76.9276C239.947 77.38 241 77.8425 242.046 78.301C242.969 78.6512 243.905 79.013 244.835 79.369C243.865 78.9572 242.888 78.5388 241.929 78.1359C240.92 77.7309 239.91 77.3261 238.908 76.9276ZM310.874 111.869C313.403 113.146 315.955 114.442 318.517 115.747C319.814 115.948 321.11 116.145 322.414 116.355C319.888 115.089 317.372 113.833 314.877 112.595C313.533 112.343 312.208 112.111 310.874 111.869ZM303.021 107.915C305.485 109.147 307.989 110.413 310.492 111.676C311.817 111.916 313.127 112.14 314.461 112.39C312.002 111.169 309.54 109.946 307.121 108.758C305.742 108.465 304.389 108.197 303.021 107.915ZM295.253 104.052C297.681 105.253 300.128 106.471 302.592 107.702C303.949 107.981 305.288 108.241 306.655 108.531C304.227 107.341 301.827 106.174 299.432 105.011C298.026 104.679 296.645 104.371 295.253 104.052ZM287.591 100.282C289.974 101.449 292.366 102.623 294.783 103.818C296.161 104.134 297.519 104.429 298.91 104.756C296.55 103.612 294.213 102.486 291.886 101.369C290.444 100.996 289.019 100.641 287.591 100.282ZM280.072 96.6158C282.381 97.7341 284.718 98.8753 287.061 100.023C288.47 100.375 289.864 100.716 291.287 101.082C288.997 99.9826 286.713 98.8876 284.457 97.8177C282.984 97.4069 281.529 97.012 280.072 96.6158ZM272.616 93.0191C274.873 94.1001 277.163 95.208 279.456 96.3181C280.899 96.7091 282.347 97.1051 283.806 97.5105C281.574 96.4524 279.352 95.4026 277.152 94.3713C275.638 93.9195 274.112 93.4554 272.616 93.0191ZM265.309 89.5455C267.52 90.5919 269.726 91.6349 271.967 92.706C273.434 93.1322 274.924 93.5789 276.409 94.0206C274.215 92.9942 272.052 91.9934 269.889 90.9917C268.36 90.5072 266.82 90.0135 265.309 89.5455ZM258.201 86.1989C260.304 87.1826 262.422 88.1788 264.556 89.1877C266.027 89.642 267.519 90.1139 269.008 90.5834C266.912 89.6143 264.83 88.6562 262.764 87.7124C261.236 87.2019 259.71 86.6933 258.201 86.1989ZM251.337 82.9977C253.283 83.8975 255.266 84.827 257.245 85.7531C258.72 86.2339 260.224 86.7393 261.717 87.2357C259.724 86.3248 257.727 85.4108 255.767 84.5267C254.275 84.0044 252.81 83.5046 251.337 82.9977ZM244.371 79.806C246.307 80.6897 248.252 81.5801 250.211 82.4816C251.616 82.963 253.015 83.4377 254.438 83.9331C252.571 83.0956 250.716 82.2672 248.869 81.446C247.367 80.8971 245.855 80.3398 244.371 79.806ZM237.865 76.8577C239.601 77.6395 241.337 78.422 243.094 79.221C244.478 79.7159 245.884 80.2303 247.285 80.7386C245.497 79.9471 243.735 79.1757 241.97 78.4021C240.592 77.8785 239.229 77.3684 237.865 76.8577ZM231.836 74.1483C233.27 74.7868 234.731 75.4467 236.189 76.1037C237.371 76.5439 238.543 76.9747 239.737 77.4248C238.267 76.7822 236.803 76.1444 235.353 75.5186C234.17 75.0535 233.007 74.6039 231.836 74.1483ZM226.149 71.6419C227.195 72.1011 228.248 72.5674 229.296 73.0288C230.191 73.3743 231.101 73.732 232.004 74.0833C231.004 73.6554 229.996 73.2202 229.006 72.7987C228.05 72.4103 227.097 72.0239 226.149 71.6419ZM306.399 111.067C308.99 112.397 311.594 113.737 314.22 115.096C315.514 115.287 316.812 115.485 318.113 115.686C315.536 114.374 312.973 113.074 310.429 111.79C309.084 111.547 307.735 111.3 306.399 111.067ZM298.384 106.969C300.909 108.253 303.464 109.561 306.027 110.876C307.359 111.107 308.707 111.355 310.048 111.597C307.529 110.325 305.012 109.055 302.531 107.815C301.146 107.531 299.757 107.241 298.384 106.969ZM290.496 102.973C292.964 104.216 295.463 105.484 297.969 106.758C299.336 107.029 300.724 107.32 302.103 107.602C299.626 106.365 297.163 105.138 294.724 103.932C293.311 103.609 291.896 103.283 290.496 102.973ZM282.699 99.0716C285.136 100.287 287.572 101.501 290.044 102.744C291.436 103.052 292.849 103.379 294.255 103.699C291.818 102.494 289.408 101.314 287.005 100.137C285.564 99.7764 284.126 99.4189 282.699 99.0716ZM274.991 95.2471C277.373 96.4227 279.773 97.6131 282.191 98.8177C283.609 99.1616 285.044 99.5207 286.477 99.8782C284.1 98.7157 281.736 97.5632 279.395 96.4304C277.922 96.0309 276.448 95.6317 274.991 95.2471ZM267.492 91.5586C269.783 92.6768 272.114 93.8284 274.443 94.9771C275.88 95.3551 277.325 95.7403 278.779 96.1326C276.476 95.0179 274.171 93.9005 271.906 92.8164C270.421 92.3852 268.959 91.9743 267.492 91.5586ZM260.017 87.9357C262.283 89.0298 264.556 90.1293 266.853 91.2488C268.308 91.6596 269.764 92.0721 271.237 92.4981C268.97 91.4153 266.729 90.3546 264.492 89.2969C262.989 88.8326 261.502 88.3842 260.017 87.9357ZM252.711 84.4295C254.897 85.4735 257.091 86.523 259.308 87.5923C260.777 88.0336 262.254 88.4831 263.74 88.9396C261.534 87.898 259.351 86.8748 257.177 85.859C255.671 85.3684 254.197 84.9044 252.711 84.4295ZM245.537 81.0197C247.637 82.0105 249.765 83.0243 251.898 84.042C253.355 84.5053 254.803 84.961 256.278 85.4394C254.221 84.4787 252.167 83.5216 250.143 82.5875C248.601 82.0601 247.059 81.5308 245.537 81.0197ZM238.567 77.7513C240.563 78.682 242.579 79.6285 244.603 80.582C246.065 81.0706 247.538 81.5683 249.018 82.0726C247.01 81.1479 245.008 80.2281 243.028 79.3269C241.527 78.7905 240.049 78.2721 238.567 77.7513ZM231.609 74.5325C233.551 75.4269 235.489 76.3162 237.456 77.2308C238.894 77.7336 240.344 78.2459 241.8 78.7643C239.887 77.8966 238.005 77.0548 236.115 76.206C234.61 75.6456 233.095 75.0769 231.609 74.5325ZM225.146 71.5722C226.857 72.3497 228.581 73.1394 230.316 73.9367C231.683 74.4349 233.061 74.9426 234.445 75.4543C232.689 74.6685 230.95 73.8952 229.219 73.1286C227.85 72.6007 226.499 72.0871 225.146 71.5722ZM218.974 68.7808C220.432 69.4356 221.909 70.1063 223.384 70.7747C224.557 71.2191 225.722 71.6557 226.908 72.11C225.482 71.4789 224.05 70.8436 222.648 70.2314C221.41 69.7378 220.197 69.2638 218.974 68.7808ZM213.38 66.2885C214.445 66.7608 215.5 67.2258 216.569 67.7028C217.421 68.036 218.285 68.3794 219.143 68.7179C218.09 68.2644 217.027 67.8024 215.979 67.3516C215.108 66.9941 214.244 66.6411 213.38 66.2885ZM302.004 110.32C304.643 111.694 307.284 113.071 309.959 114.475C311.243 114.658 312.532 114.845 313.824 115.036C311.183 113.67 308.569 112.326 305.965 110.989C304.637 110.759 303.322 110.54 302.004 110.32ZM293.855 106.091C296.437 107.426 299.04 108.775 301.658 110.139C302.968 110.358 304.273 110.57 305.593 110.798C303.015 109.476 300.448 108.163 297.908 106.871C296.548 106.602 295.204 106.349 293.855 106.091ZM285.834 101.96C288.352 103.249 290.913 104.572 293.473 105.895C294.812 106.15 296.141 106.395 297.492 106.661C294.976 105.382 292.461 104.104 289.984 102.857C288.591 102.55 287.213 102.255 285.834 101.96ZM277.866 97.9107C280.37 99.1795 282.874 100.448 285.413 101.746C286.784 102.038 288.147 102.323 289.531 102.628C287.041 101.376 284.589 100.155 282.133 98.9315C280.704 98.5853 279.281 98.2432 277.866 97.9107ZM270.041 93.9652C272.48 95.1896 274.932 96.4239 277.408 97.6778C278.808 98.0061 280.21 98.3362 281.625 98.6779C279.193 97.4671 276.781 96.2722 274.384 95.09C272.928 94.7074 271.481 94.3333 270.041 93.9652ZM262.343 90.1156C264.709 91.2916 267.11 92.4948 269.514 93.7012C270.945 94.0656 272.389 94.4416 273.836 94.8204C271.474 93.6555 269.113 92.4921 266.788 91.3578C265.299 90.9373 263.814 90.5204 262.343 90.1156ZM254.761 86.3705C257.081 87.5114 259.419 88.666 261.774 89.8348C263.225 90.2323 264.682 90.6355 266.15 91.0485C263.831 89.9186 261.529 88.803 259.243 87.7002C257.738 87.2482 256.247 86.8063 254.761 86.3705ZM247.255 82.7043C249.537 83.8141 251.821 84.9254 254.135 86.0614C255.596 86.4887 257.056 86.9144 258.535 87.3573C256.28 86.2712 254.055 85.2093 251.831 84.1491C250.299 83.6618 248.768 83.1747 247.255 82.7043ZM239.949 79.1678C242.13 80.2166 244.333 81.2842 246.548 82.3605C248.029 82.8189 249.521 83.2872 251.02 83.7621C248.844 82.7253 246.68 81.698 244.537 80.6884C242.999 80.1743 241.467 79.6644 239.949 79.1678ZM232.818 75.7539C234.886 76.7369 236.983 77.7436 239.082 78.7526C240.575 79.2397 242.093 79.7479 243.605 80.2514C241.52 79.2695 239.437 78.2885 237.385 77.334C235.851 76.7974 234.333 76.2735 232.818 75.7539ZM225.717 72.4042C227.766 73.366 229.806 74.3227 231.88 75.3057C233.327 75.8004 234.766 76.2879 236.231 76.7982C234.219 75.8655 232.231 74.9526 230.245 74.0397C228.725 73.4857 227.217 72.9414 225.717 72.4042ZM218.818 69.1816C220.717 70.0633 222.626 70.9521 224.553 71.8556C226.006 72.3736 227.483 72.9119 228.956 73.4457C227.058 72.5761 225.181 71.7243 223.309 70.8758C221.809 70.308 220.3 69.7338 218.818 69.1816ZM212.384 66.2056C214.058 66.9731 215.764 67.7661 217.465 68.5559C218.82 69.0584 220.183 69.5664 221.554 70.0819C219.855 69.3127 218.158 68.5461 216.485 67.7983C215.108 67.2593 213.745 66.7312 212.384 66.2056ZM206.043 63.3241C207.545 64.0043 209.052 64.6894 210.565 65.3777C211.715 65.8196 212.855 66.2524 214.018 66.7041C212.534 66.0452 211.045 65.3808 209.577 64.7346C208.385 64.2534 207.222 63.7956 206.043 63.3241ZM200.619 60.8791C201.647 61.3396 202.668 61.7946 203.707 62.263C204.561 62.6023 205.424 62.9475 206.285 63.2919C205.139 62.7917 204 62.2981 202.86 61.804C202.108 61.4914 201.367 61.1881 200.619 60.8791ZM297.648 109.606C300.34 111.027 303.026 112.444 305.757 113.897C307.029 114.07 308.303 114.243 309.583 114.424C306.897 113.013 304.247 111.633 301.597 110.253C300.277 110.033 298.959 109.815 297.648 109.606ZM289.36 105.247C291.994 106.626 294.64 108.017 297.309 109.426C298.617 109.635 299.934 109.854 301.251 110.073C298.62 108.703 296.008 107.348 293.413 106.008C292.057 105.75 290.704 105.493 289.36 105.247ZM281.213 100.991C283.778 102.324 286.382 103.686 288.988 105.052C290.327 105.297 291.68 105.555 293.03 105.812C290.458 104.483 287.885 103.155 285.354 101.86C283.968 101.565 282.586 101.274 281.213 100.991ZM273.145 96.826C275.683 98.1316 278.228 99.4437 280.802 100.779C282.17 101.06 283.55 101.352 284.932 101.645C282.383 100.343 279.865 99.0656 277.353 97.7925C275.941 97.4618 274.542 97.1432 273.145 96.826ZM265.15 92.7336C267.652 94.0092 270.161 95.2909 272.7 96.5961C274.091 96.911 275.489 97.2314 276.894 97.5597C274.393 96.2937 271.919 95.0496 269.454 93.8131C268.011 93.4457 266.577 93.0866 265.15 92.7336ZM257.31 88.7525C259.742 89.9802 262.202 91.2318 264.672 92.4907C266.086 92.8388 267.499 93.1869 268.928 93.5497C266.507 92.3356 264.094 91.128 261.711 89.9446C260.236 89.5403 258.767 89.1407 257.31 88.7525ZM249.564 84.8593C251.943 86.0489 254.348 87.2589 256.764 88.478C258.211 88.8626 259.677 89.2634 261.142 89.6633C258.77 88.4861 256.407 87.3179 254.07 86.1696C252.565 85.7293 251.051 85.2832 249.564 84.8593ZM241.953 81.0797C244.281 82.2315 246.606 83.3804 248.966 84.5587C250.442 84.9778 251.951 85.4257 253.446 85.8609C251.102 84.7112 248.794 83.5902 246.483 82.4675C244.964 81.9971 243.453 81.5333 241.953 81.0797ZM234.507 77.4132C236.748 78.5106 239.007 79.6224 241.283 80.7474C242.767 81.1946 244.273 81.6599 245.777 82.1238C243.505 81.021 241.25 79.9323 239.012 78.8574C237.495 78.3622 236.004 77.8913 234.507 77.4132ZM227.14 73.8191C229.32 74.8744 231.539 75.9613 233.756 77.0465C235.225 77.5133 236.684 77.972 238.173 78.4553C236.041 77.4307 233.906 76.4043 231.808 75.4088C230.249 74.8757 228.679 74.3345 227.14 73.8191ZM219.948 70.3637C222.057 71.3739 224.169 72.3856 226.305 73.4171C227.798 73.9151 229.311 74.4307 230.824 74.9452C228.692 73.9364 226.579 72.942 224.475 71.9557C222.95 71.4116 221.453 70.8905 219.948 70.3637ZM212.847 66.9847C214.878 67.9461 216.916 68.9124 218.976 69.897C220.434 70.4047 221.881 70.9048 223.357 71.429C221.352 70.4903 219.372 69.5736 217.393 68.6574C215.868 68.0926 214.351 67.5332 212.847 66.9847ZM205.995 63.7554C207.853 64.624 209.74 65.5161 211.628 66.409C213.083 66.9371 214.57 67.4895 216.045 68.0332C214.179 67.171 212.322 66.3152 210.486 65.4755C208.985 64.8994 207.475 64.3155 205.995 63.7554ZM199.38 60.6849C201.105 61.4822 202.846 62.2908 204.591 63.104C205.938 63.6104 207.294 64.1251 208.657 64.645C206.973 63.8777 205.289 63.1088 203.628 62.3608C202.204 61.7956 200.786 61.2355 199.38 60.6849ZM193.104 57.8059C194.631 58.5028 196.146 59.1907 197.689 59.9004C198.825 60.3427 199.945 60.7711 201.094 61.2228C199.586 60.5488 198.089 59.8825 196.596 59.2191C195.421 58.739 194.267 58.2761 193.104 57.8059ZM187.827 55.4016C188.772 55.8282 189.736 56.2704 190.695 56.7083C191.606 57.0735 192.516 57.4389 193.434 57.8102C192.16 57.2486 190.919 56.7135 189.658 56.162C189.041 55.9027 188.441 55.6578 187.827 55.4016ZM293.333 108.926C296.057 110.383 298.783 111.842 301.547 113.332C302.819 113.496 304.103 113.673 305.382 113.846C302.643 112.388 299.947 110.965 297.247 109.54C295.938 109.331 294.632 109.125 293.333 108.926ZM284.924 104.448C287.606 105.871 290.296 107.302 293.015 108.756C294.309 108.953 295.605 109.153 296.908 109.36C294.226 107.945 291.57 106.55 288.926 105.165C287.585 104.92 286.252 104.682 284.924 104.448ZM276.635 100.061C279.257 101.442 281.914 102.85 284.578 104.264C285.899 104.496 287.22 104.728 288.553 104.97C285.934 103.598 283.32 102.231 280.741 100.893C279.367 100.611 277.995 100.331 276.635 100.061ZM268.422 95.7597C271.015 97.1128 273.624 98.4785 276.256 99.863C277.608 100.13 278.965 100.401 280.33 100.68C277.747 99.3403 275.187 98.0196 272.642 96.7104C271.234 96.3916 269.816 96.0648 268.422 95.7597ZM260.331 91.5601C262.879 92.8778 265.43 94.1984 268.015 95.5464C269.399 95.8483 270.799 96.1656 272.198 96.4807C269.646 95.1693 267.127 93.8844 264.612 92.6029C263.18 92.2495 261.748 91.8988 260.331 91.5601ZM252.378 87.4624C254.854 88.7312 257.355 90.0212 259.869 91.3211C261.279 91.6566 262.709 92.0096 264.135 92.3596C261.639 91.0881 259.156 89.8269 256.698 88.5865C255.245 88.2003 253.814 87.8326 252.378 87.4624ZM244.533 83.4568C246.96 84.689 249.418 85.946 251.883 87.2096C253.304 87.575 254.714 87.9317 256.153 88.3123C253.72 87.0852 251.294 85.8628 248.901 84.6671C247.428 84.2489 245.988 83.8589 244.533 83.4568ZM236.76 79.5359C239.162 80.7433 241.557 81.946 243.993 83.1811C245.438 83.5792 246.877 83.9715 248.34 84.3853C245.939 83.1874 243.579 82.0226 241.212 80.8528C239.714 80.4008 238.239 79.9705 236.76 79.5359ZM229.11 75.7082C231.443 76.8696 233.792 78.0435 236.16 79.2337C237.62 79.6606 239.065 80.077 240.542 80.5208C238.238 79.3824 235.955 78.2612 233.684 77.1505C232.152 76.6637 230.621 76.1774 229.11 75.7082ZM221.67 72.0171C223.903 73.1172 226.176 74.2487 228.446 75.3788C229.931 75.8384 231.429 76.3082 232.934 76.7846C230.687 75.6857 228.442 74.5887 226.232 73.5197C224.699 73.0085 223.183 72.5107 221.67 72.0171ZM214.246 68.3867C216.446 69.4584 218.652 70.5355 220.882 71.6312C222.373 72.1162 223.881 72.6143 225.394 73.1168C223.213 72.0643 221.049 71.0246 218.898 69.9966C217.34 69.4534 215.783 68.9122 214.246 68.3867ZM207.038 64.8962C209.151 65.9144 211.27 66.9365 213.413 67.9793C214.908 68.4882 216.413 69.0047 217.929 69.531C215.781 68.5063 213.664 67.5066 211.546 66.5064C210.026 65.9549 208.538 65.4304 207.038 64.8962ZM199.982 61.5099C201.977 62.4601 203.999 63.4326 206.026 64.409C207.487 64.9268 208.945 65.4431 210.427 65.9774C208.441 65.0407 206.466 64.1135 204.511 63.2012C202.992 62.6294 201.481 62.0645 199.982 61.5099ZM193.006 58.2079C194.895 59.0968 196.803 60.0017 198.718 60.9117C200.166 61.4449 201.644 62.0023 203.112 62.5516C201.268 61.6922 199.423 60.8321 197.607 59.9962C196.072 59.3981 194.521 58.7886 193.006 58.2079ZM186.347 55.0962C188.121 55.9212 189.884 56.7375 191.678 57.5793C193.035 58.0966 194.409 58.6284 195.783 59.1596C194.047 58.365 192.325 57.5811 190.607 56.8009C189.183 56.2292 187.753 55.6534 186.347 55.0962ZM180.164 52.2322C181.634 52.9079 183.119 53.5953 184.61 54.2883C185.809 54.76 187 55.2266 188.212 55.7094C186.705 55.0284 185.227 54.37 183.737 53.7031C182.542 53.2096 181.346 52.7156 180.164 52.2322ZM174.538 49.6633C175.582 50.1381 176.64 50.623 177.691 51.1029C178.509 51.4349 179.318 51.7592 180.143 52.096C179.182 51.6678 178.225 51.2426 177.276 50.8236C176.362 50.4359 175.444 50.0449 174.538 49.6633ZM289.085 108.295C291.848 109.79 294.62 111.293 297.424 112.822C298.679 112.976 299.928 113.125 301.189 113.287C298.419 111.794 295.684 110.33 292.954 108.87C291.658 108.672 290.371 108.482 289.085 108.295ZM280.557 103.699C283.281 105.162 286.011 106.63 288.772 108.125C290.056 108.312 291.343 108.502 292.636 108.699C289.907 107.24 287.209 105.806 284.517 104.378C283.191 104.145 281.872 103.921 280.557 103.699ZM272.157 99.2005C274.82 100.62 277.514 102.064 280.217 103.516C281.529 103.737 282.847 103.963 284.17 104.194C281.496 102.774 278.831 101.363 276.197 99.9776C274.842 99.7101 273.5 99.4554 272.157 99.2005ZM263.855 94.7924C266.479 96.1796 269.123 97.5839 271.787 99.0034C273.126 99.2569 274.467 99.5134 275.818 99.7788C273.18 98.3906 270.559 97.0175 267.96 95.6619C266.579 95.3606 265.221 95.0804 263.855 94.7924ZM255.607 90.4549C258.211 91.8202 260.815 93.1859 263.457 94.5817C264.819 94.8674 266.177 95.1497 267.553 95.4485C264.947 94.0898 262.377 92.761 259.808 91.4328C258.396 91.0969 257.002 90.7765 255.607 90.4549ZM247.464 86.2025C250.015 87.5285 252.591 88.874 255.181 90.232C256.567 90.55 257.944 90.8616 259.346 91.1938C256.819 89.8876 254.307 88.5941 251.818 87.3188C250.365 86.9449 248.899 86.5605 247.464 86.2025ZM239.515 82.0848C241.984 83.3567 244.488 84.6564 246.996 85.96C248.422 86.3145 249.88 86.6961 251.324 87.0661C248.844 85.7957 246.367 84.5269 243.927 83.289C242.45 82.8821 240.973 82.4752 239.515 82.0848ZM231.598 78.0329C234.064 79.2907 236.522 80.5434 239.024 81.83C240.466 82.215 241.922 82.6112 243.383 83.0121C240.928 81.768 238.513 80.5561 236.093 79.3398C234.589 78.8995 233.081 78.4557 231.598 78.0329ZM223.846 74.096C226.232 75.3019 228.633 76.5201 231.057 77.7558C232.522 78.1724 234.007 78.6049 235.494 79.0382C233.101 77.8372 230.733 76.6557 228.376 75.4834C226.857 75.0139 225.344 74.5482 223.846 74.096ZM216.272 70.2796C218.56 71.4244 220.886 72.6007 223.212 73.7764C224.698 74.223 226.208 74.6904 227.713 75.1546C225.396 74.0024 223.083 72.8537 220.804 71.7317C219.279 71.2359 217.775 70.7574 216.272 70.2796ZM208.684 66.5074C210.969 67.6388 213.261 68.7764 215.577 69.9339C217.053 70.4014 218.52 70.862 220.016 71.3464C217.774 70.2446 215.547 69.1551 213.337 68.0797C211.779 67.5493 210.221 67.0193 208.684 66.5074ZM201.311 62.8774C203.495 63.9476 205.683 65.0209 207.899 66.117C209.416 66.6205 210.966 67.1512 212.506 67.6726C210.298 66.6006 208.122 65.5541 205.946 64.5068C204.391 63.9552 202.844 63.4103 201.311 62.8774ZM194.129 59.3709C196.214 60.3818 198.326 61.4149 200.445 62.4531C201.934 62.9687 203.426 63.4874 204.936 64.0204C202.819 63.0028 200.716 61.9969 198.631 61.0056C197.113 60.4464 195.626 59.9131 194.129 59.3709ZM187.026 55.9478C189.027 56.9075 191.051 57.8839 193.081 58.8666C194.538 59.3911 195.99 59.9128 197.466 60.4539C195.5 59.5196 193.533 58.5842 191.599 57.6761C190.062 57.0895 188.542 56.5167 187.026 55.9478ZM180.031 52.6193C181.956 53.5312 183.871 54.4355 185.82 55.3667C187.262 55.9048 188.725 56.461 190.185 57.0155C188.287 56.1277 186.404 55.253 184.528 54.3827C183.023 53.7899 181.515 53.1952 180.031 52.6193ZM173.357 49.4739C175.079 50.2796 176.814 51.097 178.562 51.9231C179.958 52.4619 181.383 53.0243 182.798 53.5781C181.05 52.7707 179.328 51.9834 177.602 51.194C176.186 50.6196 174.756 50.034 173.357 49.4739ZM167.096 46.557C168.561 47.2353 170.05 47.9312 171.535 48.625C172.73 49.1006 173.936 49.5851 175.145 50.0716C173.742 49.4311 172.343 48.7944 170.96 48.1704C169.673 47.6331 168.369 47.0827 167.096 46.557ZM161.491 43.9843C162.571 44.4782 163.642 44.9655 164.727 45.4632C165.432 45.7525 166.121 46.0276 166.831 46.3205C166.012 45.9542 165.182 45.579 164.367 45.2165C163.41 44.8066 162.441 44.3874 161.491 43.9843ZM0.844482 151.019C1.62048 150.781 2.42737 150.533 3.26556 150.275C7.41132 128.828 13.7374 100.429 35.6537 80.1778C63.5328 54.4171 116.621 41.8451 222.513 73.5632C220.162 72.376 217.815 71.1922 215.502 70.0352C110.918 36.9102 58.2645 46.9725 31.159 71.5407C7.14117 93.3106 3.15887 126.463 0.844482 151.019ZM3.23798 150.414C2.40552 150.671 1.60278 150.918 0.831665 151.153C0.761719 151.9 0.692627 152.639 0.624817 153.37C1.33484 153.103 2.0705 152.822 2.83148 152.529C2.96527 151.832 3.10052 151.127 3.23798 150.414ZM389.038 130.459C389.742 130.607 390.446 130.754 391.152 130.905C389.828 130.563 388.518 130.239 387.204 129.911C387.811 130.088 388.429 130.279 389.038 130.459ZM384.164 129.428C385.288 129.658 386.423 129.908 387.549 130.144C386.2 129.749 384.867 129.374 383.525 128.988C382.409 128.711 381.283 128.42 380.172 128.151C381.496 128.569 382.828 128.997 384.164 129.428ZM379.605 128.526C380.786 128.76 381.964 128.987 383.149 129.227C381.574 128.721 380.021 128.238 378.461 127.747C377.267 127.461 376.079 127.182 374.89 126.902C376.454 127.436 378.024 127.976 379.605 128.526ZM374.89 127.593C376.169 127.838 377.459 128.103 378.743 128.355C377.01 127.753 375.302 127.178 373.585 126.594C372.269 126.286 370.944 125.966 369.634 125.668C371.378 126.302 373.126 126.939 374.89 127.593ZM370.393 126.755C371.643 126.987 372.884 127.207 374.138 127.446C372.296 126.765 370.483 126.113 368.662 125.452C367.358 125.157 366.065 124.874 364.767 124.587C366.641 125.308 368.501 126.016 370.393 126.755ZM365.756 125.899C367.08 126.137 368.414 126.39 369.743 126.635C367.782 125.87 365.861 125.143 363.921 124.399C362.569 124.101 361.207 123.789 359.862 123.501C361.812 124.287 363.785 125.094 365.756 125.899ZM361.319 125.123C362.594 125.344 363.864 125.558 365.144 125.786C363.134 124.966 361.13 124.152 359.142 123.352C357.797 123.065 356.464 122.794 355.125 122.516C357.179 123.375 359.237 124.238 361.319 125.123ZM356.809 124.35C358.123 124.57 359.443 124.8 360.761 125.027C358.65 124.131 356.556 123.25 354.474 122.381C353.104 122.097 351.721 121.799 350.359 121.525C352.492 122.452 354.651 123.401 356.809 124.35ZM352.411 123.628C353.701 123.836 354.99 124.045 356.285 124.261C354.1 123.3 351.92 122.345 349.76 121.407C348.412 121.137 347.079 120.888 345.738 120.628C347.952 121.619 350.168 122.611 352.411 123.628ZM348.034 122.935C349.331 123.137 350.632 123.343 351.935 123.553C349.664 122.524 347.422 121.521 345.182 120.519C343.822 120.257 342.453 119.982 341.1 119.728C343.395 120.783 345.704 121.85 348.034 122.935ZM343.656 122.262C344.956 122.457 346.261 122.659 347.566 122.861C345.218 121.769 342.885 120.689 340.573 119.626C339.246 119.378 337.936 119.152 336.616 118.913C338.939 120.009 341.302 121.139 343.656 122.262ZM339.365 121.639C340.649 121.824 341.934 122.007 343.223 122.2C340.847 121.067 338.468 119.931 336.123 118.824C334.769 118.58 333.411 118.33 332.065 118.095C334.484 119.264 336.918 120.445 339.365 121.639ZM335.07 121.023C336.357 121.2 337.653 121.393 338.945 121.578C336.477 120.375 334.028 119.188 331.589 118.01C330.262 117.779 328.947 117.563 327.627 117.341C330.095 118.557 332.57 119.779 335.07 121.023ZM330.875 120.466C332.141 120.634 333.403 120.795 334.675 120.97C332.157 119.719 329.668 118.49 327.185 117.268C325.859 117.046 324.531 116.823 323.212 116.61C325.75 117.882 328.296 119.16 330.875 120.466ZM326.65 119.906C327.923 120.067 329.209 120.246 330.488 120.415C327.894 119.102 325.334 117.817 322.782 116.539C321.47 116.328 320.164 116.124 318.86 115.922C321.439 117.236 324.026 118.555 326.65 119.906ZM322.504 119.404C323.759 119.556 325.005 119.696 326.265 119.855C323.636 118.502 321.04 117.177 318.455 115.861C317.151 115.659 315.851 115.462 314.554 115.27C317.183 116.63 319.833 118.008 322.504 119.404ZM318.348 118.905C319.607 119.05 320.874 119.207 322.138 119.36C319.458 117.96 316.796 116.574 314.158 115.209C312.861 115.018 311.563 114.824 310.273 114.641C312.94 116.042 315.64 117.47 318.348 118.905ZM314.255 118.448C315.498 118.585 316.739 118.718 317.988 118.862C315.276 117.426 312.569 115.993 309.898 114.589C308.615 114.408 307.341 114.236 306.065 114.063C308.768 115.502 311.514 116.976 314.255 118.448ZM310.184 118.01C311.422 118.14 312.666 118.274 313.909 118.411C311.161 116.936 308.404 115.455 305.694 114.012C304.411 113.838 303.12 113.656 301.844 113.49C304.596 114.975 307.392 116.494 310.184 118.01ZM306.138 117.595C307.369 117.717 308.605 117.844 309.841 117.973C307.044 116.455 304.245 114.934 301.486 113.446C300.222 113.283 298.972 113.135 297.716 112.98C300.498 114.498 303.318 116.046 306.138 117.595ZM28.5467 142.676C80.8187 127.691 179.092 105.053 305.81 117.564C302.98 116.011 300.154 114.459 297.363 112.937C167.481 96.9864 77.3325 124.408 28.5467 142.676ZM25.0872 143.676C25.7283 143.489 26.3711 143.302 27.0265 143.112C75.4431 124.858 166.012 96.7421 297.071 112.778C294.26 111.245 291.479 109.737 288.71 108.239C152.663 88.4119 69.4957 122.107 25.0872 143.676ZM22.1616 144.533C22.8804 144.321 23.5991 144.109 24.338 143.893C68.5673 122.346 151.823 88.2397 288.398 108.069C285.626 106.57 282.889 105.098 280.156 103.63C138.115 79.7839 62.2755 119.647 22.1616 144.533ZM19.3782 145.359C20.1288 145.134 20.8923 144.908 21.6683 144.679C61.6709 119.815 137.487 79.6422 279.816 103.447C277.102 101.99 274.401 100.542 271.728 99.1173C123.545 71.07 55.1954 117.129 19.3782 145.359ZM16.6652 146.171C17.4296 145.941 18.2165 145.705 19.0102 145.469C54.7524 117.262 123.028 70.9503 271.357 98.921C268.687 97.4978 266.03 96.0865 263.4 94.6966C108.872 62.264 48.1607 114.577 16.6652 146.171ZM13.9811 146.983C14.7554 146.748 15.5575 146.506 16.3651 146.262C47.81 114.688 108.428 62.163 263.003 94.4857C260.35 93.0841 257.737 91.7151 255.121 90.3443C121.739 59.7225 62.501 94.6684 30.6734 127.459C24.0693 134.263 18.6451 140.972 13.9811 146.983ZM11.3246 147.794C12.1085 147.554 12.9066 147.31 13.7256 147.061C18.4155 141.012 23.8754 134.249 30.531 127.392C62.3527 94.6072 121.543 59.6661 254.697 90.1218C252.09 88.7555 249.5 87.4045 246.932 86.0702C125.96 56.0042 68.7973 81.4083 37.7828 112.311C25.7711 124.28 17.6797 137.075 11.3246 147.794ZM8.68665 148.604C9.47351 148.362 10.2717 148.116 11.0978 147.863C17.4669 137.115 25.5769 124.264 37.6426 112.242C68.6483 81.3486 125.756 55.9432 246.48 85.8355C243.959 84.5259 241.438 83.2151 238.958 81.9387C125.214 51.594 69.7707 71.2274 39.8694 100.178C23.8023 115.735 15.1024 133.982 8.68665 148.604ZM6.06274 149.412C6.84711 149.17 7.64856 148.923 8.47876 148.668C14.9017 134.021 23.6099 115.716 39.7302 100.108C69.619 71.1694 124.992 51.5264 238.457 81.6814C235.943 80.3882 233.468 79.1261 230.99 77.8624C121.844 46.85 67.7217 62.4549 38.8871 89.6867C19.6197 107.884 11.6332 131.273 6.06274 149.412ZM5.42792 149.608L5.86841 149.472C11.4434 131.311 19.4294 107.861 38.7481 89.6161C67.5684 62.3983 121.606 46.777 230.449 77.5855C227.991 76.3335 225.56 75.1018 223.14 73.8794C116.894 41.929 63.6909 54.47 35.7913 80.25C13.9255 100.455 7.59375 128.794 3.4491 150.218C4.09113 150.02 4.75031 149.817 5.42792 149.608ZM5.82391 149.617L5.4978 149.718C4.78613 149.937 4.0946 150.151 3.42236 150.358C3.28571 151.065 3.15118 151.765 3.01904 152.457C3.72974 152.183 4.46283 151.898 5.21729 151.603C5.41675 150.949 5.61829 150.287 5.82391 149.617ZM8.41205 148.819C7.58942 149.072 6.79572 149.317 6.01794 149.557C5.81415 150.221 5.61414 150.877 5.41675 151.525C6.12671 151.248 6.85681 150.961 7.60565 150.666C7.87073 150.057 8.13904 149.442 8.41205 148.819ZM11.0029 148.023C10.1859 148.273 9.39838 148.515 8.62036 148.755C8.35065 149.37 8.08502 149.979 7.82281 150.581C8.53137 150.302 9.25763 150.015 10.0004 149.722C10.3305 149.162 10.6639 148.595 11.0029 148.023ZM13.5927 147.232C12.7892 147.477 11.9989 147.718 11.2302 147.954C10.8957 148.517 10.567 149.075 10.2421 149.627L10.6404 149.47L12.4018 148.775C12.7934 148.266 13.1904 147.752 13.5927 147.232ZM16.1785 146.449C15.3898 146.687 14.6052 146.924 13.8484 147.154C13.4539 147.663 13.0651 148.166 12.6813 148.664C13.377 148.39 14.0905 148.109 14.8129 147.825C15.2629 147.371 15.7164 146.913 16.1785 146.449ZM18.7457 145.678C17.9777 145.908 17.2187 146.135 16.4781 146.358C16.0314 146.807 15.5905 147.251 15.1544 147.691C15.8335 147.424 16.526 147.153 17.2293 146.879C17.726 146.483 18.2364 146.08 18.7457 145.678ZM21.2688 144.927C20.5376 145.143 19.8223 145.356 19.1134 145.568C18.6305 145.949 18.1528 146.327 17.6801 146.702C18.332 146.447 18.9897 146.191 19.6628 145.93C20.1919 145.599 20.726 145.265 21.2688 144.927ZM23.666 144.22C23.0218 144.409 22.3928 144.595 21.7614 144.781C21.2819 145.08 20.8022 145.378 20.3327 145.671C20.9221 145.442 21.5091 145.215 22.116 144.981C22.6324 144.727 23.1393 144.477 23.666 144.22ZM25.5212 143.68C25.1551 143.786 24.7809 143.894 24.4204 143.999C24.0991 144.155 23.777 144.312 23.4613 144.466C24.1422 144.206 24.8206 143.946 25.5212 143.68ZM904 150.934C839.675 168.686 655.426 208.248 455.562 147.665C435.428 141.563 415.722 136.448 396.484 132.191C415.56 137.257 435.266 143.219 455.634 150.236C673.784 225.383 843.411 178.607 904 156.172V156.307C843.312 178.764 673.678 225.479 455.558 150.343C434.148 142.968 413.464 136.749 393.483 131.523C392.474 131.304 391.473 131.1 390.467 130.886C411.252 137.047 432.952 144.327 455.637 152.915C691.002 242.018 847.067 189.344 904 162.098V162.243C846.948 189.518 690.856 242.099 455.555 153.02C432.359 144.239 410.187 136.818 388.979 130.571C387.731 130.308 386.479 130.036 385.236 129.78C407.483 136.994 430.915 145.528 455.639 155.595C706.887 257.895 850.654 200.86 904 168.749V168.907C850.524 201.053 706.706 257.959 455.553 155.698C430.443 145.474 406.66 136.824 384.105 129.541C382.866 129.288 381.64 129.055 380.404 128.809C403.995 137.048 429.027 146.791 455.641 158.275C721.077 272.808 854.076 213.278 904 176.348V176.523C853.937 213.489 720.857 272.853 455.551 158.376C428.648 146.768 403.357 136.932 379.543 128.638C378.225 128.377 376.903 128.109 375.589 127.856C400.523 137.116 427.149 148.062 455.643 160.954C733.223 286.542 857.234 226.675 904 185.153V185.344C857.096 226.897 732.982 286.575 455.549 161.054C426.8 148.047 399.949 137.015 374.825 127.705C373.539 127.458 372.261 127.226 370.979 126.987C397.196 137.248 425.355 149.377 455.644 163.633C742.806 298.789 859.932 241.109 904 195.503V195.721C859.785 241.346 742.523 298.801 455.548 163.732C425.047 149.376 396.7 137.172 370.329 126.867C368.987 126.618 367.643 126.366 366.306 126.125C393.835 137.39 423.532 150.684 455.645 166.312C749.4 309.272 861.955 256.49 904 207.703V207.941C861.807 256.729 749.101 309.272 455.547 166.41C423.232 150.683 393.364 137.321 365.693 126.012C364.396 125.779 363.106 125.556 361.813 125.331C390.594 137.578 421.796 152.038 455.646 168.991C752.669 317.747 863.05 272.549 904 221.962V222.221C862.899 272.783 752.355 317.737 455.546 169.088C421.513 152.043 390.163 137.524 361.256 125.235C359.924 125.005 358.594 124.775 357.268 124.552C387.333 137.787 420.025 153.379 455.647 171.669C752.62 324.15 863.024 288.783 904 238.205V238.512C862.863 289.026 752.27 324.119 455.545 171.766C419.754 153.389 386.923 137.737 356.744 124.463C355.435 124.244 354.128 124.028 352.823 123.816C384.136 138.023 418.308 154.755 455.647 174.349C749.782 328.701 861.861 304.532 904 255.936V256.234C861.692 304.747 749.421 328.662 455.544 174.444C418.056 154.772 383.759 137.983 352.347 123.741C351.041 123.53 349.738 123.325 348.437 123.123C380.987 138.293 416.618 156.148 455.649 177.028C744.863 331.752 859.669 319.225 904 274.422V274.684C859.528 319.409 744.584 331.753 455.544 177.123C416.365 156.163 380.617 138.255 347.97 123.048C346.655 122.844 345.337 122.636 344.026 122.439C377.828 138.575 414.911 157.536 455.649 179.707C738.719 333.763 856.707 332.507 904 292.874V293.127C856.574 332.675 738.462 333.775 455.544 179.801C414.67 157.557 377.481 138.545 343.594 122.376C342.299 122.183 341.012 121.999 339.723 121.813C374.747 138.9 413.253 158.955 455.65 182.386C732.048 335.141 853.263 344.289 904 310.685V310.929C853.136 344.445 731.81 335.163 455.543 182.479C413.017 158.977 374.407 138.871 339.302 121.752C338.003 121.565 336.697 121.368 335.403 121.189C371.653 139.224 411.596 160.378 455.65 185.065C725.318 336.179 849.576 354.659 904 327.49V327.719C849.46 354.805 725.107 336.214 455.542 185.158C411.369 160.404 371.331 139.202 335.008 121.136C333.733 120.96 332.469 120.8 331.199 120.632C368.645 139.599 409.988 161.832 455.65 187.743C718.854 337.098 845.839 363.779 904 343.096V343.324C845.725 363.921 718.647 337.135 455.541 187.836C409.765 161.86 368.328 139.578 330.812 120.58C329.531 120.411 328.245 120.233 326.969 120.071C365.619 139.971 408.373 163.287 455.65 190.422C712.776 338.004 842.16 371.852 904 357.501V357.715C842.051 371.985 712.58 338.046 455.541 190.514C408.15 163.313 365.305 139.951 326.587 120.02C325.322 119.859 324.068 119.715 322.808 119.562C362.652 140.388 406.78 164.756 455.651 193.101C644.282 302.505 765.363 352.38 841.732 367H840.909C764.437 352.148 643.504 302.21 455.541 193.193C406.561 164.785 362.35 140.373 322.442 119.518C321.175 119.365 319.908 119.209 318.647 119.063C359.684 140.811 405.188 166.229 455.651 195.78C618.306 291.027 731.7 343.254 809.776 367H809.254C731.149 343.155 617.85 290.916 455.541 195.871C404.971 166.259 359.387 140.797 318.286 119.02C317.033 118.875 315.786 118.738 314.539 118.6C356.759 141.262 403.621 167.72 455.651 198.458C603.629 285.879 711.538 338.6 789.541 367H789.104C711.094 338.539 603.261 285.819 455.54 198.55C403.409 167.752 356.471 141.253 314.193 118.563C312.947 118.426 311.703 118.292 310.462 118.162C353.856 141.731 402.068 169.222 455.652 201.137C592.895 282.88 696.356 335.586 773.733 367H773.399C696.012 335.551 592.643 282.888 455.54 201.228C401.859 169.255 353.571 141.722 310.121 118.125C308.881 117.995 307.64 117.864 306.405 117.742C350.969 142.215 400.526 170.733 455.652 203.816C584.518 281.152 684.114 333.503 760.642 367H760.316C683.788 333.477 584.275 281.164 455.54 203.907C400.321 170.768 350.694 142.21 306.077 117.71C178.031 105.019 78.9994 128.237 27.0988 143.221C25.423 143.853 23.7855 144.476 22.208 145.083C20.6838 145.832 19.2027 146.566 17.7755 147.278C16.4161 148.135 15.1049 148.968 13.8346 149.775L12.9317 150.499C12.0533 151.205 11.1974 151.892 10.3624 152.56C9.32452 153.614 8.32092 154.629 7.34894 155.598C6.4668 156.733 5.60968 157.82 4.77582 158.85C4.04016 160.051 3.32141 161.191 2.61432 162.265C2.01465 163.516 1.42029 164.696 0.825867 165.798C0.552856 166.53 0.278198 167.235 0.00012207 167.912V167.478C0.0870972 167.261 0.174072 167.042 0.260864 166.819C0.174255 166.973 0.0872803 167.124 0.00012207 167.274V166.325L0.123291 165.811L0.00012207 165.972V165.721L0.211121 165.44C0.346375 164.864 0.479248 164.275 0.611572 163.673C0.407104 163.891 0.203369 164.103 0.000305176 164.311V164.1C0.223267 163.869 0.447815 163.633 0.673462 163.391C0.806702 162.78 0.93866 162.158 1.0708 161.523C0.709961 161.834 0.353271 162.136 0.000305176 162.425V162.241C0.368774 161.936 0.741577 161.619 1.11914 161.29C1.25018 160.655 1.38165 160.006 1.51276 159.347C0.999268 159.71 0.494812 160.059 0.000305176 160.39V160.224C0.507629 159.883 1.02454 159.524 1.55231 159.149C1.68268 158.492 1.81372 157.824 1.94519 157.146C1.34131 157.496 0.752991 157.831 0.178223 158.149C0.119446 158.765 0.0603638 159.374 0.000488281 159.974V158.095L0.0119019 158.088C0.0800781 157.378 0.147461 156.657 0.215637 155.927L0.000671387 156.024V155.882L0.229797 155.777L0.381958 154.138L0.434021 153.578L0.000854492 153.74V153.604L0.447266 153.437C0.515808 152.702 0.584839 151.959 0.655518 151.208L0.000854492 151.408V151.277L0.667969 151.073C2.98315 126.496 6.95459 93.2846 31.0236 71.4684C58.1031 46.9236 110.629 36.8272 214.81 69.6905C212.462 68.5182 210.132 67.3593 207.821 66.2154C104.1 31.7946 51.7945 39.8144 25.3704 63.3582C9.01324 77.9321 2.57452 98.4598 0.0010376 118.559V117.255C2.68646 97.5538 9.2038 77.5685 25.2352 63.2846C51.631 39.7662 103.804 31.7122 207.092 65.8532C204.828 64.7352 202.599 63.6443 200.368 62.5521C96.7921 26.6728 44.5406 32.8824 18.6853 55.5675C9.5014 63.626 3.64795 73.7643 0.000854492 84.8307V84.2956C3.66406 73.4113 9.48907 63.4435 18.5511 55.4931C44.3687 32.8406 96.4467 26.5808 199.504 62.1288C197.32 61.0602 195.149 60.003 192.998 58.9621C89.0355 21.5072 36.6689 26.119 11.2936 48.0776C6.68939 52.0615 2.97681 56.6189 0.0010376 61.5968V61.2826C2.95569 56.3984 6.62738 51.9245 11.1594 48.0027C36.4861 26.0872 88.6258 21.4053 191.955 58.4591C189.871 57.4501 187.785 56.4411 185.736 55.4604C80.9416 16.318 28.3062 19.4821 3.3327 40.8228C2.15967 41.8252 1.05475 42.8722 0.0012207 43.9521V43.7393C1.01477 42.7082 2.07605 41.7074 3.19952 40.7473C28.1102 19.4598 80.4694 16.2108 184.502 54.8729C182.48 53.9093 180.478 52.962 178.481 52.0183C79.3477 13.7514 26.551 12.8929 0.0010376 29.9958V29.8356C26.5038 12.8677 78.9788 13.6857 177.13 51.3769C175.219 50.4766 173.334 49.5965 171.45 48.7175C81.0627 12.7355 28.8066 7.40833 0 18.7401V18.608C28.6749 7.38721 80.4592 12.593 169.681 47.8935C167.988 47.1044 166.3 46.3193 164.633 45.5514C81.6628 11.5557 30.4241 2.97311 0 9.54163V9.42319C30.1589 2.94495 80.6845 11.2987 162.124 44.4039C160.693 43.7484 159.257 43.0881 157.843 42.4455C81.3878 10.2775 31.5026 -0.684662 0 1.9556V1.84897C31.0092 -0.735138 79.7639 9.81711 154.037 40.7258C153.015 40.2665 151.998 39.8109 150.982 39.356C102.607 18.5034 64.722 5.99673 35.3267 0.00012207H35.8548C63.6362 5.71796 98.9455 17.2115 143.452 36.0132C105.09 19.1303 73.2495 7.41968 46.9595 0H47.351C75.2954 7.90988 109.486 20.6522 151.067 39.2652C155.441 41.1503 159.899 43.1017 164.439 45.1194C168.699 46.9422 173.02 48.8143 177.44 50.7656C181.462 52.4719 185.559 54.2387 189.726 56.0609C194.039 57.8705 198.449 59.7581 202.927 61.7018C207.22 63.4856 211.599 65.3391 216.047 67.2494C220.315 69.0038 224.656 70.819 229.07 72.6935C233.308 74.4152 237.604 76.1856 241.986 78.0264C246.181 79.7083 250.425 81.4313 254.759 83.2297C258.889 84.8608 263.06 86.5277 267.322 88.2707C271.377 89.8449 275.476 91.4566 279.658 93.1387C283.608 94.6419 287.605 96.1863 291.672 97.7914C295.695 99.288 299.786 100.844 303.928 102.445C307.899 103.885 311.94 105.387 316.02 106.924C319.931 108.303 323.883 109.72 327.895 111.191C331.792 112.517 335.746 113.898 339.745 115.32C343.452 116.533 347.196 117.783 350.988 119.08C354.622 120.212 358.304 121.392 362.009 122.598C365.679 123.675 369.381 124.787 373.123 125.944C376.582 126.887 380.074 127.87 383.583 128.875C386.885 129.697 390.201 130.537 393.541 131.41C413.731 135.795 434.446 141.135 455.631 147.556C655.505 208.142 839.757 168.543 904 150.805V150.934Z" fill="#0B2A67"/>
</svg>
