<svg width="98" height="85" viewBox="0 0 98 85" fill="none" xmlns="http://www.w3.org/2000/svg">
<rect width="97.5109" height="84.6872" rx="16" transform="matrix(-1 0 0 1 98 0)" fill="#0CBA4C"/>
<g opacity="0.2">
<path d="M76.5169 22.8424C76.0718 22.5885 75.6303 22.3295 75.1926 22.0654C70.476 19.215 48.4302 6.2888 39.6466 8.2208C29.785 10.3908 10.9074 44.5732 16.9638 53.9C23.0202 63.2268 51.1139 78.1886 58.0635 75.0022C65.0131 71.8158 82.0876 40.8702 82.796 33.5146C83.4022 27.2342 78.0835 23.7314 76.5169 22.8424Z" fill="#92E3A9"/>
<path opacity="0.7" d="M76.5169 22.8424C76.0718 22.5885 75.6303 22.3295 75.1926 22.0654C70.476 19.215 48.4302 6.2888 39.6466 8.2208C29.785 10.3908 10.9074 44.5732 16.9638 53.9C23.0202 63.2268 51.1139 78.1886 58.0635 75.0022C65.0131 71.8158 82.0876 40.8702 82.796 33.5146C83.4022 27.2342 78.0835 23.7314 76.5169 22.8424Z" fill="white"/>
<path opacity="0.3" d="M64.2334 15.2434C64.2334 15.2434 63.2632 10.503 60.0334 10.8264C58.5634 10.9734 57.5792 11.7098 56.728 12.8536C55.6346 14.3222 55.2426 13.4682 53.676 13.9512C52.276 14.3824 52.4916 15.5668 51.6292 15.7824C50.7668 15.998 50.12 15.0278 48.9328 15.2434C47.7456 15.459 47.1016 16.6434 47.1016 16.6434H68.6518C68.5955 16.2401 68.4227 15.8621 68.1546 15.5557C67.8865 15.2493 67.5348 15.0278 67.1426 14.9186C65.7426 14.4888 65.1 15.5668 64.2334 15.2434Z" stroke="black" stroke-width="0.14" stroke-miterlimit="10"/>
<path opacity="0.3" d="M32.8787 32.0447C32.8787 32.0447 32.3621 29.5247 30.6387 29.6899C29.8547 29.7683 29.3311 30.1617 28.8775 30.7707C28.2951 31.5533 28.0865 31.0983 27.2521 31.3559C26.5045 31.5855 26.6193 32.2169 26.1601 32.3359C25.7009 32.4549 25.3565 31.9341 24.7251 32.0489C24.0937 32.1637 23.7451 32.7951 23.7451 32.7951H35.2251C35.1943 32.5807 35.102 32.3799 34.9594 32.2169C34.8168 32.0538 34.6299 31.9357 34.4215 31.8767C33.6823 31.6401 33.3379 32.2169 32.8787 32.0447Z" stroke="black" stroke-width="0.14" stroke-miterlimit="10"/>
<path opacity="0.3" d="M67.9002 70.1011C67.9002 70.1011 67.3836 67.5811 65.6602 67.7477C64.8762 67.8261 64.3526 68.2181 63.8976 68.8285C63.3152 69.6111 63.1066 69.1561 62.2722 69.4123C61.526 69.6419 61.6408 70.2733 61.1816 70.3923C60.7224 70.5113 60.378 69.9905 59.7466 70.1123C59.1152 70.2341 58.7666 70.8585 58.7666 70.8585H70.2466C70.2158 70.6441 70.1235 70.4432 69.9809 70.2802C69.8382 70.1172 69.6514 69.999 69.443 69.9401C68.7094 69.6993 68.365 70.2803 67.9002 70.1011Z" stroke="black" stroke-width="0.14" stroke-miterlimit="10"/>
<g opacity="0.3">
<path d="M70.1719 16.2304L72.2969 19.1616L77.3715 15.4828L75.2465 12.5516L70.1719 16.2304Z" stroke="black" stroke-width="0.14" stroke-miterlimit="10"/>
<path d="M71.1018 15.9894C71.1355 16.0358 71.1598 16.0885 71.1732 16.1443C71.1867 16.2001 71.1889 16.258 71.18 16.3146C71.171 16.3713 71.151 16.4257 71.121 16.4746C71.091 16.5236 71.0516 16.5661 71.0052 16.5998L70.959 16.6278L72.1798 18.3078L72.2204 18.2728C72.2669 18.2391 72.3196 18.2149 72.3754 18.2016C72.4313 18.1883 72.4892 18.1862 72.5459 18.1953C72.6026 18.2044 72.6569 18.2246 72.7058 18.2547C72.7547 18.2848 72.7972 18.3243 72.8308 18.3708C72.8359 18.378 72.8406 18.3855 72.8448 18.3932L76.4708 15.7654L76.454 15.7444C76.3862 15.6506 76.3583 15.5337 76.3764 15.4193C76.3945 15.3049 76.4571 15.2024 76.5506 15.134C76.566 15.1228 76.5814 15.1144 76.5968 15.1046L75.3774 13.4246C75.364 13.4366 75.35 13.4478 75.3354 13.4582C75.2415 13.526 75.1246 13.554 75.0103 13.5359C74.8959 13.5178 74.7933 13.4551 74.725 13.3616C74.7152 13.3462 74.7054 13.3308 74.697 13.3154L71.0682 15.9474C71.0794 15.96 71.092 15.9754 71.1018 15.9894ZM74.3498 15.4364C74.4334 15.5511 74.4811 15.6879 74.4868 15.8297C74.4926 15.9714 74.4562 16.1117 74.3821 16.2327C74.3081 16.3538 74.1999 16.4501 74.0711 16.5096C73.9423 16.569 73.7987 16.5889 73.6586 16.5668C73.5184 16.5446 73.3881 16.4813 73.2839 16.385C73.1798 16.2887 73.1065 16.1636 73.0735 16.0256C73.0405 15.8876 73.0492 15.743 73.0984 15.6099C73.1477 15.4769 73.2353 15.3614 73.3502 15.2782C73.5038 15.167 73.6953 15.1211 73.8827 15.1508C74.07 15.1804 74.238 15.2832 74.3498 15.4364Z" stroke="black" stroke-width="0.14" stroke-miterlimit="10"/>
</g>
<g opacity="0.3">
<path d="M22.094 34.7508L20.6094 38.0527L26.3259 40.623L27.8106 37.3211L22.094 34.7508Z" stroke="black" stroke-width="0.14" stroke-miterlimit="10"/>
<path d="M22.7656 35.4396C22.7182 35.5451 22.6308 35.6276 22.5226 35.6688C22.4145 35.71 22.2944 35.7066 22.1888 35.6594L22.1412 35.6328L21.2886 37.5284C21.3058 37.5337 21.3227 37.5402 21.339 37.548C21.3915 37.5712 21.4389 37.6045 21.4785 37.6461C21.5181 37.6877 21.549 37.7367 21.5696 37.7903C21.5901 37.8439 21.5999 37.9011 21.5983 37.9585C21.5967 38.0159 21.5837 38.0724 21.5602 38.1248L21.5476 38.1486L25.6314 39.9854C25.6352 39.9772 25.6385 39.9688 25.6412 39.9602C25.6648 39.9078 25.6985 39.8607 25.7403 39.8214C25.7821 39.7821 25.8313 39.7514 25.885 39.7311C25.9387 39.7108 25.9959 39.7013 26.0532 39.7032C26.1106 39.705 26.1671 39.7181 26.2194 39.7418C26.2359 39.7488 26.2519 39.7572 26.267 39.767L27.1196 37.8714C27.1019 37.8661 27.0846 37.8595 27.0678 37.8518C27.0155 37.8283 26.9684 37.7948 26.9291 37.753C26.8898 37.7113 26.8591 37.6623 26.8388 37.6087C26.8185 37.5551 26.809 37.498 26.8108 37.4408C26.8126 37.3835 26.8257 37.3272 26.8494 37.275C26.8564 37.2584 26.8648 37.2425 26.8746 37.2274L22.7866 35.3892C22.7808 35.4064 22.7738 35.4233 22.7656 35.4396ZM24.8656 37.9806C24.808 38.1096 24.7135 38.2187 24.5939 38.2941C24.4744 38.3695 24.3352 38.4078 24.1939 38.4042C24.0527 38.4006 23.9156 38.3552 23.8001 38.2738C23.6846 38.1924 23.5958 38.0786 23.5449 37.9467C23.494 37.8149 23.4833 37.6709 23.5141 37.533C23.5449 37.3951 23.6159 37.2694 23.7181 37.1718C23.8203 37.0741 23.9491 37.009 24.0883 36.9845C24.2275 36.96 24.3708 36.9773 24.5002 37.0342C24.5861 37.0725 24.6636 37.1274 24.7283 37.1957C24.793 37.2641 24.8436 37.3445 24.8771 37.4324C24.9107 37.5203 24.9266 37.614 24.9239 37.7081C24.9212 37.8021 24.8999 37.8947 24.8614 37.9806H24.8656Z" stroke="black" stroke-width="0.14" stroke-miterlimit="10"/>
</g>
<g opacity="0.3">
<path d="M26.7518 17.7796L25.2671 21.0815L30.9836 23.6519L32.4683 20.3499L26.7518 17.7796Z" stroke="black" stroke-width="0.14" stroke-miterlimit="10"/>
<path d="M27.4248 18.4674C27.3773 18.573 27.29 18.6554 27.1818 18.6966C27.0737 18.7378 26.9536 18.7344 26.848 18.6872L26.8004 18.6606L25.9478 20.5562C25.965 20.5615 25.9818 20.5681 25.9982 20.5758C26.1037 20.6232 26.1862 20.7106 26.2274 20.8187C26.2686 20.9269 26.2652 21.0469 26.218 21.1526L26.2054 21.1764L30.2892 23.0132L30.299 22.988C30.3226 22.9357 30.3562 22.8885 30.3981 22.8492C30.4399 22.8099 30.4891 22.7792 30.5428 22.7589C30.5965 22.7387 30.6537 22.7292 30.711 22.731C30.7684 22.7328 30.8249 22.7459 30.8772 22.7696C30.8937 22.7766 30.9097 22.785 30.9248 22.7948L31.7802 20.8992C31.7624 20.8941 31.745 20.8876 31.7284 20.8796C31.6755 20.8564 31.6278 20.8229 31.5879 20.7811C31.5481 20.7393 31.517 20.69 31.4964 20.6361C31.4758 20.5822 31.4662 20.5247 31.468 20.467C31.4699 20.4093 31.4832 20.3525 31.5072 20.3C31.5142 20.2834 31.5226 20.2675 31.5324 20.2524L27.4402 18.417C27.4362 18.4341 27.4311 18.451 27.4248 18.4674ZM29.5248 21.0084C29.4667 21.1374 29.3717 21.2463 29.2518 21.3213C29.1319 21.3963 28.9925 21.4341 28.8511 21.4299C28.7097 21.4257 28.5727 21.3797 28.4575 21.2976C28.3423 21.2156 28.2539 21.1013 28.2037 20.969C28.1534 20.8368 28.1435 20.6927 28.1751 20.5548C28.2067 20.417 28.2785 20.2916 28.3814 20.1945C28.4843 20.0974 28.6136 20.033 28.7531 20.0094C28.8925 19.9859 29.0359 20.0041 29.165 20.062C29.3375 20.1404 29.4719 20.2842 29.5386 20.4616C29.6052 20.6391 29.5988 20.8357 29.5206 21.0084H29.5248Z" stroke="black" stroke-width="0.14" stroke-miterlimit="10"/>
</g>
<g opacity="0.3">
<path d="M37.8919 9.45388L36.4072 12.7559L42.1238 15.3262L43.6084 12.0242L37.8919 9.45388Z" stroke="black" stroke-width="0.14" stroke-miterlimit="10"/>
<path d="M38.5644 10.1427C38.5165 10.2478 38.4289 10.3296 38.3208 10.3702C38.2127 10.4109 38.0929 10.4071 37.9876 10.3597L37.94 10.3345L37.0874 12.2301C37.1046 12.2349 37.1215 12.241 37.1378 12.2483C37.2434 12.2957 37.3258 12.3831 37.367 12.4912C37.4082 12.5994 37.4049 12.7194 37.3576 12.8251L37.345 12.8503L41.4288 14.6857C41.4327 14.6775 41.4359 14.6691 41.4386 14.6605C41.4622 14.6082 41.4959 14.561 41.5377 14.5217C41.5796 14.4824 41.6287 14.4517 41.6824 14.4314C41.7361 14.4112 41.7933 14.4017 41.8507 14.4035C41.9081 14.4053 41.9645 14.4184 42.0168 14.4421C42.0334 14.4491 42.0493 14.4575 42.0644 14.4673L42.917 12.5717L42.8652 12.5535C42.8129 12.5299 42.7657 12.4962 42.7264 12.4544C42.6871 12.4125 42.6564 12.3634 42.6362 12.3097C42.6159 12.256 42.6064 12.1988 42.6082 12.1414C42.61 12.084 42.6231 12.0276 42.6468 11.9753C42.6538 11.9587 42.6622 11.9428 42.672 11.9277L38.584 10.0923C38.5787 10.1095 38.5721 10.1264 38.5644 10.1427ZM40.6644 12.6851C40.6063 12.8145 40.5112 12.9238 40.3909 12.9991C40.2707 13.0745 40.1308 13.1124 39.989 13.1082C39.8472 13.1039 39.7098 13.0577 39.5943 12.9754C39.4788 12.893 39.3903 12.7782 39.3401 12.6456C39.2898 12.5129 39.2801 12.3683 39.3121 12.2301C39.3441 12.0918 39.4163 11.9662 39.5198 11.8691C39.6232 11.772 39.7531 11.7078 39.8931 11.6846C40.0331 11.6613 40.1768 11.6802 40.306 11.7387C40.4783 11.8174 40.6124 11.9612 40.6788 12.1387C40.7452 12.3161 40.7385 12.5126 40.6602 12.6851H40.6644Z" stroke="black" stroke-width="0.14" stroke-miterlimit="10"/>
</g>
<g opacity="0.3">
<path d="M53.8972 59.5194L56.708 61.8013L60.6584 56.9351L57.8476 54.6533L53.8972 59.5194Z" stroke="black" stroke-width="0.14" stroke-miterlimit="10"/>
<path d="M54.7402 59.0451C54.7848 59.0812 54.8218 59.1257 54.8492 59.1762C54.8766 59.2266 54.8938 59.2819 54.8997 59.339C54.9057 59.3961 54.9004 59.4538 54.8841 59.5088C54.8677 59.5638 54.8407 59.6151 54.8046 59.6597C54.7932 59.6739 54.781 59.6874 54.7682 59.7003L56.381 61.0093C56.3904 60.9942 56.4007 60.9798 56.4118 60.9659C56.4479 60.9213 56.4924 60.8842 56.5429 60.8568C56.5933 60.8295 56.6487 60.8123 56.7057 60.8063C56.7628 60.8003 56.8205 60.8057 56.8755 60.822C56.9305 60.8383 56.9818 60.8653 57.0264 60.9015L57.0474 60.9197L59.8698 57.4435L59.8474 57.4267C59.8028 57.3907 59.7658 57.3463 59.7384 57.2959C59.7111 57.2456 59.6939 57.1904 59.6879 57.1334C59.682 57.0765 59.6873 57.0189 59.7036 56.964C59.7199 56.9091 59.7469 56.8579 59.783 56.8135C59.7949 56.7993 59.8075 56.7857 59.8208 56.7729L58.2066 55.4639C58.1972 55.479 58.187 55.4935 58.1758 55.5073C58.1026 55.597 57.9969 55.6542 57.8818 55.6662C57.7666 55.6783 57.6513 55.6443 57.5612 55.5717C57.5474 55.5598 57.5343 55.5472 57.522 55.5339L54.6968 59.0143L54.7402 59.0451ZM57.7348 57.6717C57.8446 57.7608 57.9256 57.8805 57.9674 58.0157C58.0092 58.1508 58.01 58.2954 57.9697 58.431C57.9294 58.5666 57.8498 58.6872 57.7409 58.7776C57.6321 58.8679 57.4989 58.924 57.3582 58.9387C57.2175 58.9534 57.0756 58.926 56.9504 58.86C56.8252 58.7941 56.7225 58.6925 56.655 58.5681C56.5876 58.4437 56.5586 58.3022 56.5716 58.1613C56.5846 58.0204 56.6391 57.8866 56.7282 57.7767C56.8478 57.6308 57.0201 57.5379 57.2078 57.5182C57.3955 57.4986 57.5833 57.5537 57.7306 57.6717H57.7348Z" stroke="black" stroke-width="0.14" stroke-miterlimit="10"/>
</g>
<g opacity="0.3">
<path d="M28.655 68.5336L31.4658 70.8154L35.4162 65.9493L32.6054 63.6674L28.655 68.5336Z" stroke="black" stroke-width="0.14" stroke-miterlimit="10"/>
<path d="M29.494 68.0611C29.5385 68.0973 29.5754 68.142 29.6027 68.1924C29.6299 68.2429 29.647 68.2983 29.6528 68.3554C29.6587 68.4124 29.6532 68.4701 29.6368 68.5251C29.6204 68.58 29.5932 68.6312 29.557 68.6757C29.5456 68.6894 29.5335 68.7025 29.5206 68.7149L31.1334 70.0253C31.1429 70.0095 31.1537 69.9945 31.1656 69.9805C31.2016 69.9359 31.2461 69.8989 31.2964 69.8715C31.3468 69.8442 31.4021 69.8271 31.4591 69.8212C31.5161 69.8154 31.5737 69.8209 31.6286 69.8374C31.6835 69.8539 31.7345 69.8812 31.7788 69.9175L31.7998 69.9357L34.6222 66.4581L34.5998 66.4427C34.5553 66.4065 34.5184 66.3619 34.4911 66.3114C34.4639 66.2609 34.4469 66.2055 34.441 66.1485C34.4352 66.0914 34.4406 66.0337 34.457 65.9788C34.4735 65.9238 34.5006 65.8726 34.5368 65.8281C34.5482 65.8144 34.5604 65.8013 34.5732 65.7889L32.959 64.4785C32.9501 64.4943 32.9397 64.5093 32.9282 64.5233C32.8921 64.568 32.8475 64.605 32.797 64.6324C32.7466 64.6598 32.6912 64.6769 32.634 64.6827C32.5769 64.6886 32.5192 64.6831 32.4642 64.6665C32.4092 64.65 32.358 64.6227 32.3136 64.5863C32.2999 64.5749 32.2868 64.5628 32.2744 64.5499L29.4492 68.0303L29.494 68.0611ZM32.4872 66.6877C32.5971 66.7769 32.678 66.8966 32.7198 67.0317C32.7616 67.1669 32.7624 67.3114 32.7221 67.447C32.6818 67.5826 32.6022 67.7032 32.4934 67.7936C32.3845 67.884 32.2513 67.94 32.1106 67.9547C31.9699 67.9694 31.828 67.942 31.7028 67.8761C31.5777 67.8101 31.4749 67.7085 31.4075 67.5842C31.34 67.4598 31.311 67.3182 31.324 67.1773C31.337 67.0365 31.3915 66.9026 31.4806 66.7927C31.5398 66.7197 31.6128 66.6591 31.6954 66.6143C31.778 66.5695 31.8687 66.5414 31.9622 66.5316C32.0556 66.5219 32.1501 66.5307 32.2402 66.5574C32.3303 66.5842 32.4142 66.6285 32.4872 66.6877Z" stroke="black" stroke-width="0.14" stroke-miterlimit="10"/>
</g>
<g opacity="0.3">
<path d="M26.9582 53.6308L29.769 55.9126L33.7194 51.0464L30.9087 48.7646L26.9582 53.6308Z" stroke="black" stroke-width="0.14" stroke-miterlimit="10"/>
<path d="M27.7972 53.1563C27.8417 53.1925 27.8787 53.2372 27.9059 53.2877C27.9332 53.3381 27.9502 53.3935 27.9561 53.4506C27.9619 53.5077 27.9565 53.5653 27.94 53.6203C27.9236 53.6753 27.8965 53.7264 27.8602 53.7709C27.8492 53.785 27.837 53.7981 27.8238 53.8101L29.438 55.1205C29.447 55.1052 29.4573 55.0907 29.4688 55.0771C29.505 55.0325 29.5495 54.9955 29.5999 54.9681C29.6504 54.9407 29.7057 54.9236 29.7628 54.9176C29.8199 54.9116 29.8776 54.9169 29.9326 54.9332C29.9876 54.9496 30.0389 54.9766 30.0834 55.0127L30.103 55.0309L32.9254 51.5547L32.903 51.5379C32.8585 51.5017 32.8216 51.4571 32.7944 51.4066C32.7671 51.3561 32.7501 51.3008 32.7442 51.2437C32.7384 51.1866 32.7438 51.1289 32.7603 51.074C32.7767 51.019 32.8038 50.9678 32.84 50.9233C32.8514 50.9096 32.8636 50.8965 32.8764 50.8841L31.2636 49.5737C31.2542 49.5895 31.2434 49.6045 31.2314 49.6185C31.1955 49.6631 31.151 49.7001 31.1007 49.7275C31.0504 49.7548 30.9952 49.772 30.9382 49.778C30.8812 49.7839 30.8237 49.7786 30.7688 49.7623C30.7138 49.746 30.6627 49.719 30.6182 49.6829L30.5776 49.6451L27.7524 53.1255C27.7679 53.135 27.7829 53.1453 27.7972 53.1563ZM30.7904 51.7829C30.9003 51.8721 30.9812 51.9918 31.023 52.127C31.0649 52.2621 31.0657 52.4066 31.0254 52.5422C30.985 52.6778 30.9054 52.7985 30.7966 52.8888C30.6877 52.9792 30.5545 53.0353 30.4138 53.0499C30.2731 53.0646 30.1312 53.0372 30.0061 52.9713C29.8809 52.9053 29.7781 52.8037 29.7107 52.6794C29.6433 52.555 29.6142 52.4134 29.6272 52.2726C29.6403 52.1317 29.6948 51.9978 29.7838 51.8879C29.843 51.8149 29.916 51.7543 29.9986 51.7095C30.0813 51.6647 30.1719 51.6366 30.2654 51.6269C30.3589 51.6171 30.4533 51.6259 30.5434 51.6527C30.6335 51.6794 30.7175 51.7237 30.7904 51.7829Z" stroke="black" stroke-width="0.14" stroke-miterlimit="10"/>
</g>
<g opacity="0.3">
<path d="M73.4203 37.8154L70.3301 39.7017L73.5957 45.0515L76.6859 43.1653L73.4203 37.8154Z" stroke="black" stroke-width="0.14" stroke-miterlimit="10"/>
<path d="M73.5868 38.7604C73.5382 38.7907 73.4841 38.8111 73.4276 38.8205C73.3711 38.8299 73.3132 38.828 73.2574 38.815C73.2016 38.802 73.149 38.7781 73.1024 38.7447C73.0559 38.7113 73.0164 38.669 72.9862 38.6204C72.9764 38.6052 72.968 38.5893 72.961 38.5728L71.1872 39.6564C71.1983 39.6702 71.2085 39.6847 71.218 39.6998C71.2483 39.7484 71.2688 39.8025 71.2782 39.859C71.2875 39.9155 71.2857 39.9733 71.2727 40.0291C71.2597 40.0849 71.2358 40.1376 71.2024 40.1841C71.169 40.2307 71.1267 40.2702 71.078 40.3004L71.0542 40.313L73.388 44.135L73.4104 44.1196C73.5088 44.059 73.627 44.0398 73.7395 44.066C73.852 44.0922 73.9495 44.1618 74.011 44.2596C74.0202 44.2754 74.0286 44.2918 74.0362 44.3086L75.81 43.225C75.7982 43.2108 75.7874 43.1959 75.7778 43.1802C75.7174 43.082 75.6982 42.964 75.7244 42.8517C75.7506 42.7395 75.8201 42.6422 75.9178 42.581C75.9331 42.5715 75.949 42.563 75.9654 42.5558L73.6302 38.7296L73.5868 38.7604ZM73.8794 42.042C73.7586 42.1161 73.6186 42.1526 73.477 42.147C73.3354 42.1414 73.1987 42.0939 73.0842 42.0105C72.9696 41.9271 72.8824 41.8116 72.8336 41.6786C72.7848 41.5456 72.7766 41.401 72.8101 41.2634C72.8435 41.1257 72.9171 41.001 73.0214 40.9052C73.1258 40.8094 73.2563 40.7467 73.3963 40.7251C73.5364 40.7036 73.6796 40.7241 73.808 40.784C73.9364 40.844 74.0441 40.9407 74.1174 41.062C74.2156 41.2235 74.2456 41.4174 74.201 41.6012C74.1564 41.7849 74.0407 41.9434 73.8794 42.042Z" stroke="black" stroke-width="0.14" stroke-miterlimit="10"/>
</g>
<g opacity="0.3">
<path d="M47.1615 26.6313L44.0713 28.5176L47.3369 33.8675L50.4271 31.9812L47.1615 26.6313Z" stroke="black" stroke-width="0.14" stroke-miterlimit="10"/>
<path d="M47.33 27.5802C47.2316 27.6407 47.1133 27.6599 47.0009 27.6337C46.8884 27.6075 46.7908 27.5379 46.7294 27.4402C46.7199 27.4249 46.7115 27.409 46.7042 27.3926L44.9304 28.4748C44.9417 28.4889 44.952 28.5039 44.9612 28.5196C44.9915 28.5681 45.0119 28.6221 45.0212 28.6785C45.0306 28.7349 45.0287 28.7926 45.0157 28.8483C45.0027 28.904 44.9788 28.9565 44.9454 29.0029C44.912 29.0494 44.8698 29.0887 44.8212 29.1188C44.8137 29.1242 44.8057 29.1289 44.7974 29.1328L47.1312 32.9548L47.1536 32.9394C47.2518 32.8785 47.3702 32.859 47.4828 32.8853C47.5954 32.9115 47.693 32.9813 47.7542 33.0794C47.7634 33.0948 47.7718 33.1107 47.7794 33.127L49.5532 32.0434C49.5417 32.0295 49.5309 32.015 49.521 32C49.4605 31.9016 49.4412 31.7833 49.4674 31.6709C49.4936 31.5584 49.5632 31.4608 49.661 31.3994C49.6766 31.3896 49.6929 31.3812 49.71 31.3742L47.3734 27.548C47.3595 27.5595 47.345 27.5702 47.33 27.5802ZM47.6226 30.8604C47.5017 30.9343 47.3616 30.9706 47.2201 30.9648C47.0785 30.959 46.9419 30.9113 46.8275 30.8277C46.7131 30.7441 46.6261 30.6285 46.5775 30.4954C46.5289 30.3623 46.5209 30.2178 46.5545 30.0802C46.5881 29.9426 46.6618 29.8181 46.7663 29.7224C46.8708 29.6267 47.0013 29.5642 47.1414 29.5428C47.2814 29.5214 47.4246 29.5421 47.5529 29.6021C47.6812 29.6622 47.7888 29.7591 47.862 29.8804C47.9596 30.042 47.9892 30.2357 47.9443 30.4191C47.8994 30.6025 47.7837 30.7607 47.6226 30.859V30.8604Z" stroke="black" stroke-width="0.14" stroke-miterlimit="10"/>
</g>
<path d="M16.1982 10.5435L34.8182 8.48975L42.0016 20.6473L51.4096 17.9271L70.2018 57.0305L76.0006 54.3229L73.881 70.0855L60.3458 61.6743L65.999 59.0563L48.226 24.7213L38.6794 26.9501L32.2142 16.1043L16.124 19.6771L16.1982 10.5435Z" fill="#263238" stroke="#263238" stroke-width="0.14" stroke-linejoin="round"/>
<path d="M34.8696 39.3905V38.7129" stroke="#263238" stroke-width="0.14" stroke-linejoin="round"/>
<path d="M34.8696 43.5627V40.2769" stroke="#263238" stroke-width="0.14" stroke-linejoin="round"/>
<path d="M41.3853 42.7142V41.0986" stroke="#263238" stroke-width="0.14" stroke-linejoin="round"/>
<path d="M43.0752 30.9803V26.9609" stroke="#263238" stroke-width="0.14" stroke-linejoin="round"/>
<path d="M50.291 22.8384V18.9282" stroke="white" stroke-width="0.14" stroke-linejoin="round"/>
<path d="M50.291 35.0561V30.4375" stroke="#263238" stroke-width="0.14" stroke-linejoin="round"/>
<path d="M63.9629 33.3073V30.8433" stroke="#263238" stroke-width="0.14" stroke-linejoin="round"/>
<path d="M67.5396 27.9822V24.2456" stroke="#263238" stroke-width="0.14" stroke-linejoin="round"/>
<path d="M37.6417 71.918C37.5691 72.2805 37.4756 72.6386 37.3617 72.9904C37.2357 73.3152 37.3855 73.4902 37.5605 73.3404C37.7355 73.1906 37.9595 72.2204 37.9595 72.2204L37.6417 71.918Z" fill="white" stroke="#263238" stroke-width="0.14" stroke-linejoin="round"/>
<path d="M37.4417 71.7681C37.4417 71.7681 37.2415 72.3673 37.0427 72.6165C36.8439 72.8657 36.5177 73.1149 36.7179 73.1653C36.9181 73.2157 37.4669 72.7663 37.6167 72.5157C37.6915 72.3762 37.8159 72.2698 37.9653 72.2175L37.4417 71.7681Z" fill="white" stroke="#263238" stroke-width="0.14" stroke-linejoin="round"/>
<path d="M39.1396 67.5232C39.1396 67.5232 38.7896 68.9232 38.7644 68.996C38.7392 69.0688 37.7662 70.9686 37.7662 70.9686L37.4414 71.768C37.4414 71.768 37.9412 73.14 38.091 73.168C38.2408 73.196 38.2408 73.1176 38.2646 72.8432C38.2884 72.5688 38.1148 71.6448 38.1148 71.6448L38.1904 71.1954C38.1904 71.1954 38.4144 72.2944 38.49 72.5436C38.5656 72.7928 38.8148 72.8236 38.8638 72.6934C38.9128 72.5632 38.714 70.7712 38.714 70.7712L40.037 69.549H40.6362C40.6362 69.549 40.5872 70.172 40.7118 70.4716C40.8364 70.7712 41.1864 71.4208 41.311 71.2458C41.4356 71.0708 41.2354 70.8258 41.2116 70.2224C41.1878 69.619 41.535 69.2732 41.4104 68.9246C41.2858 68.576 40.4122 66.8022 40.4122 66.8022L39.1396 67.5232Z" fill="white" stroke="#263238" stroke-width="0.14" stroke-linejoin="round"/>
<path d="M38.6399 69.7705C38.6399 69.7705 38.1401 70.6189 38.1401 70.8191C38.1412 70.9453 38.1581 71.0709 38.1905 71.1929" fill="white"/>
<path d="M38.6399 69.7705C38.6399 69.7705 38.1401 70.6189 38.1401 70.8191C38.1412 70.9453 38.1581 71.0709 38.1905 71.1929" stroke="#263238" stroke-width="0.14" stroke-linejoin="round"/>
<path d="M38.665 66.7256L38.8638 67.8988L40.6124 66.9496L40.387 65.9766L38.665 66.7256Z" fill="white" stroke="#263238" stroke-width="0.14" stroke-linejoin="round"/>
<path d="M39.2377 47.3202C39.2377 47.3202 41.3377 47.3524 42.5067 46.9968C43.6757 46.6412 46.6171 45.2804 47.6867 44.9892C48.7563 44.698 49.4983 44.5356 49.5963 44.8926C49.6943 45.2496 50.1143 45.895 48.3363 47.3202C46.5583 48.7454 42.9631 50.5248 41.1823 50.7838C39.4015 51.0428 38.6553 48.4486 39.2377 47.3202Z" fill="white" stroke="#263238" stroke-width="0.14" stroke-linejoin="round"/>
<path d="M46.2125 39.5639C46.2125 39.5639 43.8703 41.1949 43.7275 41.2901C43.5847 41.3853 41.3853 42.7139 41.3853 42.7139C41.3853 42.7139 40.5621 43.0779 40.4977 43.2529C40.4333 43.4279 39.6745 46.4351 39.6745 46.4351L39.6562 47.6951C40.4607 47.7523 41.2682 47.7523 42.0727 47.6951C43.1801 47.5943 46.2993 45.6147 46.2993 45.6147H44.6893L43.6799 44.7397C43.6799 44.7397 45.7603 42.0895 46.1299 41.3167C46.4995 40.5439 46.4617 39.3875 46.2125 39.5639Z" fill="#92E3A9" stroke="#263238" stroke-width="0.14" stroke-linejoin="round"/>
<path d="M42.3079 48.3534L43.0737 47.7416C43.0737 47.7416 44.1937 46.8498 44.4149 46.7224C44.6361 46.595 44.0299 44.9486 43.5749 43.3414C43.1199 41.7342 45.0295 41.2764 45.3347 38.9804C45.6399 36.6844 44.7229 35.9578 44.4947 34.849C44.3411 33.9766 44.2518 33.0941 44.2273 32.2086L42.5823 31.062L41.9691 32.8218C41.9691 32.8218 42.7349 34.9638 43.4615 35.843C44.1881 36.7222 44.4177 38.9426 44.1881 39.7462C43.9585 40.5498 42.3135 42.6036 42.4675 43.221C42.6215 43.8384 43.8829 46.3262 43.3845 46.8232C43.1066 47.0959 42.851 47.3904 42.6201 47.7038L41.7633 47.645L41.3965 48.163L42.3079 48.3534Z" fill="#263238" stroke="#263238" stroke-width="0.14" stroke-linejoin="round"/>
<path d="M41.8112 49.654L42.3082 48.3534L41.3912 48.1616L42.1178 47.2054L39.875 46.7378L40.7332 50.354L41.8112 49.654Z" fill="white" stroke="#263238" stroke-width="0.14" stroke-linejoin="round"/>
<path d="M40.1396 47.3086C40.4828 47.4854 40.8106 47.6905 41.1196 47.9218C41.3898 48.1626 41.2596 48.3712 41.0986 48.78C41.0123 49.0058 40.8955 49.2187 40.7514 49.4128L40.1396 47.3086Z" fill="white" stroke="#263238" stroke-width="0.14" stroke-linejoin="round"/>
<path d="M44.415 46.7223L48.104 45.4049C48.104 45.4049 51.324 44.2919 51.464 44.1743C51.604 44.0567 51.8154 41.4219 51.8448 40.9249C51.8742 40.4279 51.9036 39.8413 51.9036 39.8413C51.9036 39.8413 49.9996 41.1587 48.9454 41.9203C47.8912 42.6819 46.165 44.2919 45.6666 44.8771C45.1682 45.4623 44.415 46.7223 44.415 46.7223Z" fill="#263238" stroke="#263238" stroke-width="0.14" stroke-linejoin="round"/>
<path d="M65.583 33.4137C65.583 33.4137 66.3404 32.8663 66.5518 32.7389C66.7632 32.6115 67.186 30.6669 67.27 29.9053C67.354 29.1437 67.4814 28.8049 67.8202 28.8903C68.159 28.9757 68.7512 31.8079 68.7932 32.3161C68.8352 32.8243 68.5818 33.5425 68.6658 33.8379C68.7498 34.1333 68.9626 34.4735 68.7512 34.7689C68.5398 35.0643 65.8112 34.9257 65.8112 34.9257L65.583 33.4137Z" fill="#263238" stroke="#263238" stroke-width="0.14" stroke-linejoin="round"/>
<path d="M68.7932 32.3163C68.7512 31.8081 68.159 28.9745 67.8202 28.8905C67.7494 28.8691 67.6733 28.8741 67.606 28.9045C67.9574 29.8411 68.544 31.5113 68.4544 32.0195C68.3284 32.7391 68.159 34.2189 68.243 34.5577C68.2682 34.6571 68.2976 34.7803 68.3284 34.9035C68.5482 34.8741 68.7064 34.8321 68.7484 34.7635C68.9598 34.4681 68.7484 34.1293 68.663 33.8325C68.5776 33.5357 68.8352 32.8231 68.7932 32.3163Z" fill="#263238" stroke="#263238" stroke-width="0.14" stroke-linejoin="round"/>
<path d="M54.2625 40.4682C54.2625 40.4682 54.5985 36.4698 54.8337 36.1002C55.0689 35.7306 56.9799 35.529 58.6599 35.1608C60.3399 34.7926 65.5801 33.4136 65.5801 33.4136L65.8139 34.9256C65.8139 34.9256 63.6649 35.9658 62.3545 36.5706C61.0441 37.1754 59.6343 37.881 58.9623 38.0154C58.2903 38.1498 57.7863 38.217 57.7863 38.217C57.7863 38.217 58.7943 44.1964 58.9959 45.8428C59.1975 47.4892 58.7943 48.6302 58.5591 48.9662C58.3239 49.3022 56.9463 46.8158 55.4679 43.8268C53.9895 40.8378 54.2625 40.4682 54.2625 40.4682Z" fill="#92E3A9" stroke="#263238" stroke-width="0.14" stroke-linejoin="round"/>
<path d="M58.562 48.9664C58.7972 48.6304 59.2004 47.488 58.9988 45.843C58.9596 45.5238 58.8896 45.0408 58.8042 44.4724C57.7019 41.8857 56.2917 39.4414 54.6042 37.1924C54.4236 38.4944 54.2584 40.467 54.2584 40.467C54.2584 40.467 53.9896 40.8352 55.4666 43.827C56.9436 46.8188 58.3268 49.3024 58.562 48.9664Z" fill="#263238" stroke="#263238" stroke-width="0.14" stroke-linejoin="round"/>
<path d="M58.6417 31.6819C58.6417 31.6819 58.7271 30.9623 58.7691 30.6235C58.8111 30.2847 58.3883 28.1707 58.0509 27.5785C57.7135 26.9863 58.0075 26.6909 58.2189 26.6909C58.4303 26.6909 60.4589 28.2561 60.7991 28.7629C61.1393 29.2697 61.9415 30.9203 62.1529 31.2591C62.3643 31.5979 59.5307 33.0399 59.5307 33.0399L58.6417 31.6819Z" fill="#263238" stroke="#263238" stroke-width="0.14" stroke-linejoin="round"/>
<path d="M62.1599 31.2591C61.9485 30.9203 61.1449 29.2711 60.8061 28.7629C60.4673 28.2547 58.4373 26.6909 58.2259 26.6909C58.1679 26.692 58.1117 26.7111 58.0649 26.7455C58.6963 27.2677 60.4939 28.7769 60.8061 29.2291C61.0861 29.6239 61.6601 30.8937 61.9639 31.5755C62.1137 31.4397 62.1949 31.3263 62.1599 31.2591Z" fill="#263238" stroke="#263238" stroke-width="0.14" stroke-linejoin="round"/>
<path d="M52.2202 45.0364C52.2202 45.0364 48.4248 36.9402 48.5592 36.6042C48.6936 36.2682 57.1243 32.5736 57.5611 32.3048C57.9185 32.0548 58.2472 31.766 58.5412 31.4438L59.9174 33.0776C59.9174 33.0776 57.4309 34.6568 55.7845 35.865C54.1381 37.0732 52.8628 37.8138 52.8628 37.8138C52.8628 37.8138 53.4003 38.889 55.4485 40.87C57.4967 42.851 59.4134 46.3454 59.0102 48.43C58.607 50.5146 56.2802 51.1502 55.5718 51.4512C55.132 51.6367 54.669 51.761 54.1955 51.8208C54.1955 51.8208 53.0868 46.2782 52.2202 45.0364Z" fill="#92E3A9" stroke="#263238" stroke-width="0.14" stroke-linejoin="round"/>
<path d="M40.7708 49.7559C40.7708 49.7559 41.7984 49.2253 41.9216 49.1959C42.0448 49.1665 42.6118 48.5225 42.6118 48.5225L42.9842 49.1959L43.4616 48.4693C43.498 48.4161 43.9222 47.5495 43.9222 47.5495C43.9222 47.5495 45.108 47.5313 45.409 47.4781C45.71 47.4249 47.18 46.6577 47.18 46.6577C47.18 46.6577 49.8176 43.8437 50.26 43.2767C50.5728 42.8901 50.9159 42.5292 51.2862 42.1973C51.5956 43.3808 52.0351 44.5264 52.5966 45.6133C53.4814 47.2779 54.2066 50.4293 54.2066 51.4373C54.2066 52.4453 54.3466 52.6063 54.3466 52.6063C54.3466 52.6063 52.8794 52.9199 51.24 53.1019C49.6006 53.2839 47.3634 53.7389 47.3634 53.7389L40.754 55.6331C40.754 55.6331 40.2416 62.2859 40.2766 62.6583C40.3116 63.0307 40.6308 66.2689 40.6308 66.2689C40.6308 66.2689 39.445 66.7295 39.144 66.9241C38.843 67.1187 38.612 67.2783 38.612 67.2783C38.612 67.2783 37.9218 65.8447 37.7454 64.3579C37.569 62.8711 36.9838 55.8809 36.9838 55.8809C36.9838 55.8809 36.806 54.9429 36.5764 54.5705C36.3468 54.1981 36.54 53.6857 36.6828 53.1551C36.8256 52.6245 37.3548 49.5431 37.3548 49.5431C37.3548 49.5431 38.6148 49.9155 39.515 49.9155C40.4152 49.9155 40.7708 49.7559 40.7708 49.7559Z" fill="#92E3A9" stroke="#263238" stroke-width="0.14" stroke-linejoin="round"/>
<path d="M40.7539 55.633L42.0797 53.3594L42.2883 55.1024L40.7539 55.633Z" fill="#263238" stroke="#263238" stroke-width="0.14" stroke-linejoin="round"/>
<path d="M46.3892 47.5832C46.6692 47.3032 46.854 47.103 46.854 47.103" stroke="#263238" stroke-width="0.14" stroke-linejoin="round"/>
<path d="M40.9614 50.2979C40.9614 50.2979 42.7814 50.1229 43.8076 49.6987C44.3676 49.4691 45.2076 48.7271 45.8684 48.0957" stroke="#263238" stroke-width="0.14" stroke-linejoin="round"/>
<path d="M39.1484 54.8169C39.3005 54.8812 39.4479 54.956 39.5894 55.0409" stroke="#263238" stroke-width="0.14" stroke-linejoin="round"/>
<path d="M37.0171 54.4922C37.465 54.4594 37.9152 54.4877 38.3555 54.5762" stroke="#263238" stroke-width="0.14" stroke-linejoin="round"/>
<path d="M48.2607 48.454L48.5813 50.596L49.0097 50.5596L48.6177 48.3462" fill="#92E3A9"/>
<path d="M48.2607 48.454L48.5813 50.596L49.0097 50.5596L48.6177 48.3462" stroke="#263238" stroke-width="0.14" stroke-linejoin="round"/>
<path d="M35.3597 48.2764C35.3597 48.2764 35.8301 48.8364 36.2585 49.2564C36.6869 49.6764 37.4905 50.123 38.1863 50.3694C38.8821 50.6158 39.7165 50.9798 40.0693 50.9364C40.4221 50.893 40.6293 50.5514 40.7329 50.3484C40.8365 50.1454 40.9149 49.5084 40.7441 48.6026C40.6045 47.9778 40.3773 47.376 40.0693 46.8148C40.1679 46.7421 40.2476 46.6469 40.3017 46.537C40.3558 46.4271 40.3827 46.3058 40.3801 46.1834C40.3689 45.7634 39.8971 45.4568 39.6255 45.4134C39.5353 45.4013 39.4434 45.4138 39.3597 45.4496C39.2759 45.4853 39.2033 45.5429 39.1495 45.6164C38.7572 45.6458 38.3631 45.6387 37.9721 45.5954C37.8643 45.552 37.4681 44.9206 37.2441 44.9318C37.1447 44.942 37.0503 44.9808 36.9723 45.0434C36.8943 45.1059 36.8361 45.1897 36.8045 45.2846C36.6636 45.6439 36.4803 45.9851 36.2585 46.301C36.1619 46.3878 35.5585 46.9016 35.5585 46.9016C35.5585 46.9016 35.0223 46.8904 34.9369 47.372C34.8515 47.8536 35.3597 48.2764 35.3597 48.2764Z" fill="white" stroke="#263238" stroke-width="0.14" stroke-linejoin="round"/>
<path d="M37.2905 48.4893L38.2887 49.4875L38.5239 49.2103" stroke="#263238" stroke-width="0.14" stroke-linejoin="round"/>
<path d="M38.9199 49.8888C38.9199 49.8888 39.0025 49.3484 39.2937 49.1118C39.5849 48.8752 40.2093 48.71 40.2093 48.71L39.7515 49.7922C39.7661 49.6306 39.7661 49.468 39.7515 49.3064C39.7165 49.1818 39.0235 49.5696 38.9199 49.8888Z" fill="#263238" stroke="#263238" stroke-width="0.14" stroke-linejoin="round"/>
<path d="M36.6396 48.0594C36.6396 48.0594 36.2644 48.0174 36.1538 48.184C36.0903 48.3185 36.0803 48.4722 36.1258 48.6138" stroke="#263238" stroke-width="0.14" stroke-linejoin="round"/>
<path d="M37.2905 47.4599C37.3375 47.2734 37.4448 47.1075 37.5957 46.9881C37.7904 46.8956 38.0032 46.8478 38.2187 46.8481" stroke="#263238" stroke-width="0.14" stroke-linejoin="round"/>
<path d="M37.006 48.7691C37.0956 48.8685 37.1166 48.9973 37.0522 49.0491C36.9878 49.1009 36.8604 49.0771 36.7722 48.9777C36.684 48.8783 36.6616 48.7495 36.726 48.6907C36.7904 48.6319 36.9164 48.6711 37.006 48.7691Z" fill="#263238"/>
<path d="M38.1847 47.8968C38.2743 47.9948 38.2953 48.1236 38.2295 48.1768C38.1637 48.23 38.0391 48.2048 37.9495 48.1054C37.8599 48.006 37.8389 47.8772 37.9047 47.8254C37.9705 47.7736 38.0937 47.7974 38.1847 47.8968Z" fill="#263238"/>
<path d="M35.2349 47.351L35.8495 47.4602C35.8495 47.4602 35.7179 47.2418 35.9811 46.9562C36.2443 46.6706 37.0787 46.2758 37.1221 45.9244C37.1491 45.7131 37.1641 45.5004 37.1669 45.2874L37.8249 46.0784C37.8249 46.0784 38.2449 45.9468 38.4829 45.8586C38.7209 45.7704 39.2291 46.2534 39.2949 46.2968C39.3607 46.3402 39.7345 46.2968 39.6687 46.1652C39.5759 46.0064 39.5021 45.8373 39.4489 45.6612C39.4489 45.573 39.6253 45.419 39.6253 45.419C39.6253 45.419 39.7779 45.1558 39.4937 44.6518C39.2095 44.1478 38.8567 43.9056 38.4395 43.5976C38.229 43.4534 38.0371 43.2836 37.8683 43.0922L37.6933 43.3568C37.5032 43.3252 37.323 43.25 37.1669 43.137C36.9471 42.9606 36.7469 42.7632 36.7469 42.7632C36.7469 42.7632 36.5271 43.291 36.3269 43.4436C36.1267 43.5962 34.9997 44.1002 34.8597 44.453C34.7717 44.6975 34.6987 44.9471 34.6413 45.2006L34.2017 44.8926C34.2017 44.8926 34.1793 45.4638 34.1793 45.7704C34.1793 46.077 33.4793 47.1704 33.9819 47.68C34.4845 48.1896 35.5219 48.38 35.5219 48.38C35.5219 48.38 35.0585 48.1602 35.2349 47.351Z" fill="#263238" stroke="#263238" stroke-width="0.14" stroke-linejoin="round"/>
<path d="M44.0439 43.0471C44.0439 43.0471 42.4927 43.1255 42.4619 43.2207C42.4303 43.3025 42.3928 43.3821 42.3499 43.4587C42.3499 43.4587 41.6219 43.4111 41.6065 43.4741C41.5911 43.5371 41.5435 43.9655 41.5435 43.9655C41.5435 43.9655 40.8785 44.5661 40.9093 44.6459C40.9401 44.7257 41.1319 45.1359 41.1319 45.1359C41.1319 45.1359 40.8519 45.6427 40.8939 45.7855C40.9359 45.9283 41.2425 46.1495 41.2425 46.1495C41.2425 46.1495 40.8939 46.5289 41.1151 46.6241C41.2444 46.6811 41.3879 46.6977 41.5267 46.6717C41.5267 46.6717 41.7647 46.9251 41.9229 46.8299C41.9717 46.795 42.0124 46.7501 42.0423 46.6982C42.0723 46.6462 42.0908 46.5885 42.0965 46.5289C42.0965 46.5289 42.7461 46.3231 43.0471 46.2489C43.3481 46.1747 43.6169 45.6637 43.6491 45.4733C43.7068 45.299 43.7981 45.1377 43.9179 44.9987C43.9179 44.9987 44.4779 44.7607 44.5983 44.5871C44.7187 44.4135 45.5475 44.0005 45.5475 44.0005C45.5475 44.0005 45.2479 43.5889 44.9147 43.2249C44.7349 43.0184 44.5142 42.8515 44.2665 42.7349L44.0439 43.0471Z" fill="white" stroke="#263238" stroke-width="0.14" stroke-linejoin="round"/>
<path d="M42.3501 43.459C42.2909 43.7677 42.2489 44.0794 42.2241 44.3928C42.2395 44.5328 42.2563 44.5986 42.6035 44.6616C42.9507 44.7246 43.3791 44.8996 43.4743 44.789C43.5695 44.6784 43.5849 44.5832 43.4435 44.4558C43.3123 44.3576 43.1681 44.278 43.0151 44.2192C43.0151 44.2192 43.0949 44.0134 43.1425 43.8384" fill="white"/>
<path d="M42.3501 43.459C42.2909 43.7677 42.2489 44.0794 42.2241 44.3928C42.2395 44.5328 42.2563 44.5986 42.6035 44.6616C42.9507 44.7246 43.3791 44.8996 43.4743 44.789C43.5695 44.6784 43.5849 44.5832 43.4435 44.4558C43.3123 44.3576 43.1681 44.278 43.0151 44.2192C43.0151 44.2192 43.0949 44.0134 43.1425 43.8384" stroke="#263238" stroke-width="0.14" stroke-linejoin="round"/>
<path d="M41.5435 43.96C41.5435 43.96 41.4637 44.5928 41.5267 44.7356C41.5897 44.8784 42.2393 45.4356 42.3667 45.5588C42.4423 45.6219 42.5333 45.6639 42.6304 45.6806C42.7275 45.6973 42.8273 45.6881 42.9197 45.654C42.948 45.6418 42.9726 45.6223 42.9909 45.5975C43.0092 45.5728 43.0206 45.5435 43.0238 45.5129C43.0271 45.4822 43.0222 45.4513 43.0095 45.4232C42.9969 45.3951 42.977 45.3708 42.9519 45.353C42.8769 45.2939 42.7973 45.241 42.7139 45.1948L42.3023 44.6348" fill="white"/>
<path d="M41.5435 43.96C41.5435 43.96 41.4637 44.5928 41.5267 44.7356C41.5897 44.8784 42.2393 45.4356 42.3667 45.5588C42.4423 45.6219 42.5333 45.6639 42.6304 45.6806C42.7275 45.6973 42.8273 45.6881 42.9197 45.654C42.948 45.6418 42.9726 45.6223 42.9909 45.5975C43.0092 45.5728 43.0206 45.5435 43.0238 45.5129C43.0271 45.4822 43.0222 45.4513 43.0095 45.4232C42.9969 45.3951 42.977 45.3708 42.9519 45.353C42.8769 45.2939 42.7973 45.241 42.7139 45.1948L42.3023 44.6348" stroke="#263238" stroke-width="0.14" stroke-linejoin="round"/>
<path d="M41.1318 45.1357C41.1318 45.1357 41.4958 45.8651 41.5742 45.9113C41.6526 45.9575 42.144 46.3873 42.319 46.2921C42.494 46.1969 42.3666 45.9911 42.2868 45.8959C42.207 45.8007 42.1132 45.6747 42.1132 45.6747L41.8598 45.2197" fill="white"/>
<path d="M41.1318 45.1357C41.1318 45.1357 41.4958 45.8651 41.5742 45.9113C41.6526 45.9575 42.144 46.3873 42.319 46.2921C42.494 46.1969 42.3666 45.9911 42.2868 45.8959C42.207 45.8007 42.1132 45.6747 42.1132 45.6747L41.8598 45.2197" stroke="#263238" stroke-width="0.14" stroke-linejoin="round"/>
<path d="M41.2427 46.1499L41.5269 46.6721" stroke="#263238" stroke-width="0.14" stroke-linejoin="round"/>
<path d="M42.0967 46.5293L41.8125 46.1499" stroke="#263238" stroke-width="0.14" stroke-linejoin="round"/>
<path d="M44.583 42.3823L44.2666 42.7309L45.612 44.2023L46.0068 43.6801C45.8869 43.4067 45.7024 43.1665 45.4692 42.9801C45.1929 42.7539 44.8963 42.5537 44.583 42.3823Z" fill="white" stroke="#263238" stroke-width="0.14" stroke-linejoin="round"/>
<path d="M44.3604 42.43L46.0712 44.1241C46.0712 44.1241 48.3812 41.4794 48.7312 41.0048C49.0812 40.5302 49.301 40.1032 49.0322 39.5964C48.7634 39.0896 48.083 38.5674 47.4488 38.678C46.9547 38.778 46.5054 39.033 46.1664 39.406C46.0068 39.5964 44.3604 42.43 44.3604 42.43Z" fill="#92E3A9" stroke="#263238" stroke-width="0.14" stroke-linejoin="round"/>
</g>
<path d="M31.1634 35V33.2869L35.7081 28.8317C36.1428 28.3928 36.505 28.0028 36.7947 27.6619C37.0845 27.321 37.3018 26.9908 37.4467 26.6712C37.5916 26.3516 37.6641 26.0107 37.6641 25.6484C37.6641 25.2351 37.5703 24.8814 37.3828 24.5874C37.1953 24.2891 36.9375 24.0589 36.6094 23.897C36.2812 23.7351 35.9084 23.6541 35.4908 23.6541C35.0604 23.6541 34.6832 23.7436 34.3594 23.9226C34.0355 24.0973 33.7841 24.3466 33.6051 24.6705C33.4304 24.9943 33.343 25.38 33.343 25.8274H31.0866C31.0866 24.9964 31.2763 24.2741 31.6555 23.6605C32.0348 23.0469 32.5568 22.5717 33.2216 22.2351C33.8906 21.8984 34.6577 21.7301 35.5227 21.7301C36.4006 21.7301 37.1719 21.8942 37.8366 22.2223C38.5014 22.5504 39.017 23 39.3835 23.571C39.7543 24.142 39.9396 24.794 39.9396 25.527C39.9396 26.017 39.8459 26.4986 39.6584 26.9716C39.4709 27.4446 39.1406 27.9687 38.6676 28.544C38.1989 29.1193 37.5405 29.8161 36.6925 30.6342L34.4361 32.929V33.0185H40.1378V35H31.1634ZM47.1818 35.2493C46.1293 35.2493 45.2259 34.983 44.4716 34.4503C43.7216 33.9134 43.1442 33.1399 42.7393 32.13C42.3388 31.1158 42.1385 29.8949 42.1385 28.4673C42.1428 27.0398 42.3452 25.8253 42.7457 24.8239C43.1506 23.8182 43.728 23.0511 44.478 22.5227C45.2322 21.9943 46.1335 21.7301 47.1818 21.7301C48.2301 21.7301 49.1314 21.9943 49.8857 22.5227C50.6399 23.0511 51.2173 23.8182 51.6179 24.8239C52.0227 25.8295 52.2251 27.044 52.2251 28.4673C52.2251 29.8991 52.0227 31.1222 51.6179 32.1364C51.2173 33.1463 50.6399 33.9176 49.8857 34.4503C49.1357 34.983 48.2344 35.2493 47.1818 35.2493ZM47.1818 33.2486C48 33.2486 48.6456 32.8459 49.1186 32.0405C49.5959 31.2308 49.8345 30.0398 49.8345 28.4673C49.8345 27.4276 49.7259 26.554 49.5085 25.8466C49.2912 25.1392 48.9844 24.6065 48.5881 24.2486C48.1918 23.8864 47.723 23.7053 47.1818 23.7053C46.3679 23.7053 45.7244 24.1101 45.2514 24.9197C44.7784 25.7251 44.5398 26.9077 44.5355 28.4673C44.5313 29.5114 44.6357 30.3892 44.8487 31.1009C45.0661 31.8125 45.3729 32.3494 45.7692 32.7116C46.1655 33.0696 46.6364 33.2486 47.1818 33.2486ZM60.4412 32.8182V32.2045C60.4412 31.7538 60.5359 31.339 60.7253 30.9602C60.9185 30.5814 61.1988 30.2765 61.5662 30.0455C61.9337 29.8144 62.3787 29.6989 62.9015 29.6989C63.4393 29.6989 63.8901 29.8144 64.2537 30.0455C64.6174 30.2727 64.892 30.5758 65.0776 30.9545C65.267 31.3333 65.3617 31.75 65.3617 32.2045V32.8182C65.3617 33.2689 65.267 33.6837 65.0776 34.0625C64.8882 34.4413 64.6098 34.7462 64.2424 34.9773C63.8787 35.2083 63.4318 35.3239 62.9015 35.3239C62.3712 35.3239 61.9223 35.2083 61.5549 34.9773C61.1874 34.7462 60.909 34.4413 60.7196 34.0625C60.534 33.6837 60.4412 33.2689 60.4412 32.8182ZM61.9242 32.2045V32.8182C61.9242 33.1174 61.9962 33.392 62.1401 33.642C62.284 33.892 62.5378 34.017 62.9015 34.017C63.2689 34.017 63.5208 33.8939 63.6571 33.6477C63.7973 33.3977 63.8674 33.1212 63.8674 32.8182V32.2045C63.8674 31.9015 63.8011 31.625 63.6685 31.375C63.5359 31.1212 63.2802 30.9943 62.9015 30.9943C62.5454 30.9943 62.2935 31.1212 62.1458 31.375C61.998 31.625 61.9242 31.9015 61.9242 32.2045ZM54.5265 26.1591V25.5455C54.5265 25.0909 54.623 24.6742 54.8162 24.2955C55.0094 23.9167 55.2897 23.6136 55.6571 23.3864C56.0246 23.1553 56.4696 23.0398 56.9924 23.0398C57.5265 23.0398 57.9753 23.1553 58.339 23.3864C58.7064 23.6136 58.9829 23.9167 59.1685 24.2955C59.3541 24.6742 59.4469 25.0909 59.4469 25.5455V26.1591C59.4469 26.6136 59.3522 27.0303 59.1628 27.4091C58.9772 27.7841 58.7007 28.0852 58.3333 28.3125C57.9659 28.5398 57.5189 28.6534 56.9924 28.6534C56.4583 28.6534 56.0075 28.5398 55.6401 28.3125C55.2765 28.0852 54.9999 27.7822 54.8105 27.4034C54.6212 27.0246 54.5265 26.6098 54.5265 26.1591ZM56.0208 25.5455V26.1591C56.0208 26.4621 56.0908 26.7386 56.231 26.9886C56.3749 27.2348 56.6287 27.358 56.9924 27.358C57.356 27.358 57.606 27.2348 57.7424 26.9886C57.8825 26.7386 57.9526 26.4621 57.9526 26.1591V25.5455C57.9526 25.2424 57.8863 24.9659 57.7537 24.7159C57.6212 24.4621 57.3674 24.3352 56.9924 24.3352C56.6325 24.3352 56.3806 24.4621 56.2367 24.7159C56.0927 24.9697 56.0208 25.2462 56.0208 25.5455ZM55.1742 35L63.1742 23.3636H64.5946L56.5946 35H55.1742Z" fill="white"/>
<path d="M15.4148 55H12.1186V44.8182H15.5192C16.5168 44.8182 17.3736 45.022 18.0895 45.4297C18.8054 45.834 19.3539 46.4157 19.7351 47.1747C20.1196 47.9304 20.3118 48.8369 20.3118 49.8942C20.3118 50.9548 20.1179 51.8662 19.7301 52.6286C19.3456 53.3909 18.7888 53.9775 18.0597 54.3885C17.3305 54.7962 16.4489 55 15.4148 55ZM13.6548 53.6577H15.3303C16.1058 53.6577 16.7505 53.5118 17.2642 53.2202C17.7779 52.9252 18.1624 52.4993 18.4176 51.9425C18.6728 51.3823 18.8004 50.6996 18.8004 49.8942C18.8004 49.0954 18.6728 48.4176 18.4176 47.8608C18.1657 47.304 17.7895 46.8814 17.2891 46.593C16.7886 46.3047 16.1671 46.1605 15.4247 46.1605H13.6548V53.6577ZM25.3194 55.1541C24.6035 55.1541 23.9788 54.9901 23.4451 54.6619C22.9115 54.3338 22.4972 53.8748 22.2022 53.2848C21.9073 52.6948 21.7598 52.0054 21.7598 51.2166C21.7598 50.4245 21.9073 49.7318 22.2022 49.1385C22.4972 48.5452 22.9115 48.0845 23.4451 47.7564C23.9788 47.4283 24.6035 47.2642 25.3194 47.2642C26.0353 47.2642 26.6601 47.4283 27.1937 47.7564C27.7273 48.0845 28.1416 48.5452 28.4366 49.1385C28.7316 49.7318 28.8791 50.4245 28.8791 51.2166C28.8791 52.0054 28.7316 52.6948 28.4366 53.2848C28.1416 53.8748 27.7273 54.3338 27.1937 54.6619C26.6601 54.9901 26.0353 55.1541 25.3194 55.1541ZM25.3244 53.9062C25.7884 53.9062 26.1729 53.7836 26.4778 53.5384C26.7827 53.2931 27.0081 52.9666 27.1539 52.5589C27.3031 52.1513 27.3777 51.7022 27.3777 51.2116C27.3777 50.7244 27.3031 50.277 27.1539 49.8693C27.0081 49.4583 26.7827 49.1286 26.4778 48.88C26.1729 48.6314 25.7884 48.5071 25.3244 48.5071C24.8571 48.5071 24.4693 48.6314 24.161 48.88C23.8561 49.1286 23.6291 49.4583 23.4799 49.8693C23.3341 50.277 23.2612 50.7244 23.2612 51.2116C23.2612 51.7022 23.3341 52.1513 23.4799 52.5589C23.6291 52.9666 23.8561 53.2931 24.161 53.5384C24.4693 53.7836 24.8571 53.9062 25.3244 53.9062ZM31.9615 55L29.7143 47.3636H31.2505L32.747 52.9716H32.8216L34.323 47.3636H35.8592L37.3507 52.9467H37.4252L38.9118 47.3636H40.448L38.2058 55H36.6895L35.1383 49.4865H35.024L33.4728 55H31.9615ZM43.3452 50.4659V55H41.8587V47.3636H43.2855V48.6065H43.38C43.5556 48.2022 43.8307 47.8774 44.2053 47.6321C44.5831 47.3868 45.0587 47.2642 45.6321 47.2642C46.1525 47.2642 46.6082 47.3736 46.9993 47.5923C47.3904 47.8078 47.6937 48.1293 47.9091 48.5568C48.1245 48.9844 48.2322 49.513 48.2322 50.1428V55H46.7457V50.3217C46.7457 49.7682 46.6016 49.3357 46.3132 49.0241C46.0249 48.7093 45.6288 48.5518 45.125 48.5518C44.7803 48.5518 44.4737 48.6264 44.2053 48.7756C43.9401 48.9247 43.7296 49.1435 43.5739 49.4318C43.4214 49.7169 43.3452 50.0616 43.3452 50.4659ZM53.5481 46.1406V44.8182H61.4281V46.1406H58.2512V55H56.72V46.1406H53.5481ZM63.0501 55V47.3636H64.5366V55H63.0501ZM63.8008 46.1854C63.5423 46.1854 63.3202 46.0992 63.1346 45.9268C62.9523 45.7512 62.8612 45.5424 62.8612 45.3004C62.8612 45.0552 62.9523 44.8464 63.1346 44.674C63.3202 44.4983 63.5423 44.4105 63.8008 44.4105C64.0593 44.4105 64.2797 44.4983 64.462 44.674C64.6476 44.8464 64.7404 45.0552 64.7404 45.3004C64.7404 45.5424 64.6476 45.7512 64.462 45.9268C64.2797 46.0992 64.0593 46.1854 63.8008 46.1854ZM66.5364 55V47.3636H67.9632V48.6065H68.0577C68.2168 48.1856 68.477 47.8575 68.8382 47.6222C69.1995 47.3835 69.632 47.2642 70.1358 47.2642C70.6462 47.2642 71.0738 47.3835 71.4185 47.6222C71.7665 47.8608 72.0234 48.1889 72.1891 48.6065H72.2686C72.4509 48.1989 72.7409 47.8741 73.1387 47.6321C73.5364 47.3868 74.0104 47.2642 74.5605 47.2642C75.2533 47.2642 75.8184 47.4813 76.2559 47.9155C76.6967 48.3497 76.9171 49.0043 76.9171 49.8793V55H75.4306V50.0185C75.4306 49.5014 75.2897 49.1269 75.008 48.8949C74.7263 48.6629 74.3899 48.5469 73.9988 48.5469C73.5149 48.5469 73.1387 48.696 72.8702 48.9943C72.6017 49.2893 72.4675 49.6688 72.4675 50.1328V55H70.986V49.924C70.986 49.5097 70.8567 49.1766 70.5982 48.9247C70.3397 48.6728 70.0033 48.5469 69.589 48.5469C69.3072 48.5469 69.0471 48.6214 68.8084 48.7706C68.5731 48.9164 68.3825 49.1203 68.2367 49.3821C68.0942 49.6439 68.0229 49.9472 68.0229 50.2919V55H66.5364ZM82.2006 55.1541C81.4483 55.1541 80.8003 54.9934 80.2567 54.6719C79.7165 54.3471 79.2989 53.8913 79.0039 53.3047C78.7122 52.7147 78.5664 52.0237 78.5664 51.2315C78.5664 50.4493 78.7122 49.7599 79.0039 49.1634C79.2989 48.5668 79.7099 48.1011 80.2369 47.7663C80.7672 47.4316 81.387 47.2642 82.0962 47.2642C82.5271 47.2642 82.9447 47.3355 83.3491 47.478C83.7534 47.6205 84.1164 47.8442 84.4379 48.1491C84.7594 48.4541 85.0129 48.8501 85.1985 49.3374C85.3841 49.8213 85.4769 50.4096 85.4769 51.1023V51.6293H79.4066V50.5156H84.0202C84.0202 50.1245 83.9407 49.7782 83.7816 49.4766C83.6225 49.1716 83.3988 48.9313 83.1104 48.7557C82.8254 48.58 82.4906 48.4922 82.1062 48.4922C81.6886 48.4922 81.324 48.5949 81.0124 48.8004C80.7042 49.0026 80.4656 49.2678 80.2965 49.5959C80.1308 49.9207 80.0479 50.2737 80.0479 50.6548V51.5249C80.0479 52.0353 80.1374 52.4695 80.3164 52.8274C80.4987 53.1854 80.7522 53.4588 81.0771 53.6477C81.4019 53.8333 81.7814 53.9261 82.2156 53.9261C82.4973 53.9261 82.7541 53.8864 82.9862 53.8068C83.2182 53.724 83.4187 53.6013 83.5877 53.4389C83.7567 53.2765 83.886 53.076 83.9755 52.8374L85.3825 53.0909C85.2698 53.5052 85.0676 53.8681 84.7759 54.1797C84.4876 54.4879 84.1246 54.7282 83.6871 54.9006C83.253 55.0696 82.7575 55.1541 82.2006 55.1541Z" fill="#FAFAFA"/>
</svg>
