<svg width="96" height="97" viewBox="0 0 96 97" fill="none" xmlns="http://www.w3.org/2000/svg">
<g clip-path="url(#clip0_86_1970)">
<path d="M48 88.3203C70.0914 88.3203 88 70.4117 88 48.3203C88 26.2289 70.0914 8.32031 48 8.32031C25.9086 8.32031 8 26.2289 8 48.3203C8 70.4117 25.9086 88.3203 48 88.3203Z" stroke="white" stroke-width="2" stroke-linecap="round" stroke-linejoin="round"/>
<path d="M69.3488 80.3203L64.8644 75.763C64.3839 75.2734 63.7836 74.9225 63.1252 74.7465L52.8579 72.0082C51.9461 71.7647 51.1546 71.1886 50.6349 70.39C50.1152 69.5914 49.9037 68.6264 50.0407 67.6795L51.181 59.8002C51.2779 59.1351 51.5428 58.5068 51.9501 57.9767C52.3573 57.4465 52.8929 57.0324 53.5047 56.775L68.0936 50.6175C68.7678 50.3335 69.5078 50.2508 70.2267 50.3792C70.9456 50.5075 71.6134 50.8416 72.1516 51.3422L84 62.3391" stroke="#0B2A67" stroke-linecap="round" stroke-linejoin="round"/>
<path d="M15 68.3203L18.7151 65.6571C19.1265 65.3606 19.4645 64.958 19.699 64.4848C19.9336 64.0117 20.0574 63.4827 20.0595 62.9449L20.1382 48.1462C20.1423 47.5048 20.318 46.8787 20.6438 46.3448L28.4859 33.5598C28.7108 33.1957 29.0006 32.8848 29.3381 32.6456C29.6756 32.4064 30.0539 32.2438 30.4502 32.1676C30.8466 32.0913 31.253 32.103 31.6452 32.2018C32.0374 32.3007 32.4072 32.4847 32.7328 32.7429L40.1517 38.053C40.7764 38.5437 41.5494 38.7556 42.3126 38.6452L54.0945 36.9052C54.8219 36.7988 55.4882 36.4049 55.967 35.7982L64.2735 25.2475C64.7403 24.6568 64.998 23.9034 65 23.1235V13.3203" stroke="#0B2A67" stroke-linecap="round" stroke-linejoin="round"/>
</g>
<defs>
<clipPath id="clip0_86_1970">
<rect width="96" height="96" fill="white" transform="translate(0 0.320312)"/>
</clipPath>
</defs>
</svg>
