<svg width="130" height="130" viewBox="0 0 130 130" fill="none" xmlns="http://www.w3.org/2000/svg">
<path d="M70.1128 27.1626C70.1086 27.1609 70.0953 27.1542 70.0936 27.1534L70.0911 27.1592C68.4936 26.9568 66.8769 26.8169 65.2253 26.8169C63.5737 26.8169 61.9562 26.956 60.3587 27.1592L60.3562 27.1534C60.3537 27.1542 60.3412 27.1609 60.3362 27.1626C48.0908 28.7242 37.6488 36.0621 31.7793 46.3351H33.3343C35.4532 42.7869 38.1385 39.6144 41.2802 36.9575C42.0906 37.5805 43.9322 38.8623 46.7232 40.1775C45.6479 41.9616 44.6326 44.0288 43.7348 46.3351H45.214C46.0536 44.2812 46.9947 42.408 48.0109 40.753C51.9772 42.4438 57.5251 44.0121 64.5481 44.1096V46.3351H65.9016V44.1096C72.9471 44.0113 78.5093 42.433 82.4772 40.7355C83.4692 42.3647 84.4104 44.2454 85.2558 46.3351H86.6934C85.8022 44.068 84.7877 42.009 83.6841 40.1966C86.4976 38.8748 88.3525 37.583 89.1671 36.9567C92.3104 39.6136 94.9957 42.7869 97.1146 46.3351H98.6696C92.801 36.0621 82.3581 28.7242 70.1128 27.1626ZM47.4703 38.9981C44.9741 37.8395 43.2608 36.7159 42.3855 36.0813C46.6258 32.763 51.5924 30.3451 57.0154 29.1157C55.1305 30.4167 52.6668 32.4232 50.2073 35.3208C49.3094 36.3778 48.3815 37.6046 47.4703 38.9981ZM64.549 42.757C57.9133 42.6587 52.6002 41.1745 48.7697 39.5686C53.7363 32.1291 59.739 28.96 60.7451 28.4685C61.9961 28.317 63.2638 28.2287 64.549 28.2053V42.757ZM65.9025 42.757V28.2053C67.1876 28.2287 68.4561 28.317 69.7063 28.4685C70.5542 28.88 74.9569 31.1646 79.2572 36.2512C80.0668 37.209 80.903 38.3068 81.7267 39.5495C77.8921 41.162 72.564 42.6579 65.9025 42.757ZM82.942 39.0164C79.6811 34.0698 75.9497 30.8981 73.3503 29.0932C78.8066 30.3167 83.8023 32.7447 88.0651 36.0804C87.1848 36.7193 85.4598 37.8512 82.942 39.0164Z" fill="#0B2A67"/>
<path d="M65.2261 109.303C44.6409 109.303 27.3824 95.1493 22.594 76.0483H21.1123C25.9306 95.9464 43.8472 110.729 65.227 110.729C86.6059 110.729 104.522 95.9464 109.342 76.0483H107.86C103.07 95.1493 85.8113 109.303 65.2261 109.303Z" fill="#0B2A67"/>
<path d="M129.809 65.3068C129.809 64.3615 129.78 63.4236 129.737 62.4891C129.721 62.0993 129.697 61.712 129.673 61.3247C129.642 60.8225 129.602 60.3219 129.559 59.823C126.763 26.7343 99.0374 0.746094 65.2258 0.746094C32.661 0.746094 5.7391 24.8528 1.29807 56.1915C1.29557 56.2074 1.29474 56.2232 1.29224 56.239C1.12649 57.4167 0.995724 58.6053 0.89411 59.8022C0.849966 60.3127 0.809987 60.825 0.777504 61.3389C0.754183 61.7187 0.731697 62.0985 0.715039 62.4808C0.672561 63.4261 0.642578 64.374 0.642578 65.3302C0.642578 66.2863 0.671728 67.2358 0.715039 68.1812C0.731697 68.5618 0.754183 68.9399 0.777504 69.3181C0.809987 69.8345 0.849966 70.3492 0.894942 70.8631C0.995723 72.0508 1.12482 73.2294 1.28974 74.3979C1.29307 74.4213 1.29557 74.4454 1.2989 74.4687C5.73993 105.808 32.6618 129.913 65.2266 129.913C99.0374 129.913 126.761 103.928 129.56 70.8414C129.603 70.34 129.642 69.837 129.675 69.3322C129.698 68.9458 129.722 68.5593 129.739 68.1703C129.782 67.2358 129.81 66.2971 129.811 65.3518C129.811 65.3443 129.811 65.3368 129.811 65.3293C129.811 65.3218 129.809 65.3143 129.809 65.3068ZM65.2258 14.5556C90.1454 14.5556 110.857 32.513 115.163 56.1907H113.244C108.963 33.5624 89.0993 16.4455 65.2258 16.4455C41.3523 16.4455 21.4884 33.5624 17.2073 56.1907H15.2883C19.5944 32.5138 40.3062 14.5556 65.2258 14.5556ZM108.916 69.1715L106.499 67.9288L104.061 69.1715L104.475 66.4795L102.496 64.5239L105.233 64.1791L106.499 61.4871L107.718 64.1791L110.433 64.5239L108.501 66.4795L108.916 69.1715ZM97.699 56.1907L100.662 65.3376L97.699 74.4679H111.867C107.606 96.3432 88.348 112.857 65.2258 112.857C42.1036 112.857 22.8461 96.3432 18.5841 74.4679H32.7518L29.7891 65.3376L32.7518 56.1907H18.5841C22.8461 34.3154 42.1028 17.8014 65.2258 17.8014C88.3488 17.8014 107.606 34.3154 111.867 56.1907H97.699ZM26.3909 69.1715L23.9522 67.9288L21.5359 69.1715L21.9499 66.4795L20.0167 64.5239L22.732 64.1791L23.9513 61.4871L25.2165 64.1791L27.9543 64.5239L25.9753 66.4795L26.3909 69.1715ZM10.8431 68.9L7.52484 70.6066L8.09372 66.9093L5.43926 64.2232L9.16816 63.7493L10.8431 60.052L12.5814 63.7493L16.3419 64.2232L13.6242 66.9093L14.1931 70.6066L10.8431 68.9ZM65.2258 116.103C40.3062 116.103 19.5944 98.1456 15.2883 74.4679H17.2073C21.4884 97.0962 41.3523 114.213 65.2258 114.213C89.0993 114.213 108.963 97.0962 113.244 74.4679H115.163C110.857 98.1456 90.1454 116.103 65.2258 116.103ZM122.927 70.6066L119.608 68.9L116.259 70.6066L116.827 66.9093L114.11 64.2232L117.87 63.7493L119.608 60.052L121.283 63.7493L125.012 64.2232L122.358 66.9093L122.927 70.6066Z" fill="#0B2A67"/>
<path d="M65.2261 19.9307C43.8472 19.9307 25.9306 34.7122 21.1123 54.6102H22.594C27.3832 35.5101 44.6418 21.3566 65.2261 21.3566C85.8105 21.3566 103.069 35.5101 107.858 54.6102H109.34C104.522 34.713 86.605 19.9307 65.2261 19.9307Z" fill="#0B2A67"/>
<path d="M89.17 93.6996C88.263 93.0033 86.0708 91.4782 82.6867 90.0082C83.777 88.334 84.8156 86.425 85.7618 84.3228H84.2659C83.383 86.1968 82.416 87.9192 81.3874 89.4659C77.5152 87.9484 72.3154 86.6366 65.9029 86.5466V84.3228H64.5494V86.5466C58.1319 86.6357 52.9288 87.95 49.0558 89.4684C48.028 87.9217 47.061 86.1976 46.179 84.3228H44.7022C45.6417 86.395 46.6804 88.2974 47.7948 89.9948C44.3957 91.469 42.1919 92.9999 41.2815 93.6996C38.139 91.0434 35.4545 87.8701 33.3356 84.3228H31.7881C38.0873 95.3404 49.6505 102.976 63.0502 103.731C63.0552 103.734 63.0702 103.74 63.0719 103.741L63.0752 103.733C63.7907 103.773 64.4995 103.842 65.2249 103.842C65.9504 103.842 66.6584 103.773 67.3746 103.733L67.378 103.741C67.3813 103.739 67.3955 103.734 67.4005 103.731C80.7994 102.976 92.3617 95.3404 98.6609 84.3228H97.1142C94.997 87.8709 92.3117 91.0434 89.17 93.6996ZM42.3843 94.5766C43.3854 93.8503 45.486 92.4835 48.5952 91.1625C52.5748 96.7905 57.1333 100.255 60.0568 102.085C53.4519 101.16 47.4058 98.5071 42.3843 94.5766ZM64.5494 102.453C64.1563 102.446 63.7699 102.413 63.3792 102.394C62.1265 101.808 55.4517 98.4238 49.8687 90.6462C53.5935 89.2169 58.5301 87.9884 64.5494 87.9001V102.453ZM67.0723 102.394C66.6825 102.413 66.296 102.447 65.9029 102.453V87.9001C71.9181 87.9892 76.8506 89.2161 80.5745 90.6437C74.9924 98.4171 68.3217 101.808 67.0723 102.394ZM70.4664 102.074C72.562 100.774 75.4721 98.6553 78.4298 95.477C79.5592 94.2634 80.7394 92.8275 81.8955 91.1792C84.983 92.496 87.0703 93.8537 88.0664 94.5766C83.064 98.4929 77.043 101.14 70.4664 102.074Z" fill="#0B2A67"/>
<path d="M41.2999 80.6118V79.5164L45.4139 75.013C45.8967 74.4856 46.2942 74.0271 46.6066 73.6376C46.919 73.2441 47.1503 72.8749 47.3004 72.53C47.4546 72.1811 47.5317 71.816 47.5317 71.4346C47.5317 70.9964 47.4262 70.6171 47.2152 70.2966C47.0083 69.9761 46.7243 69.7286 46.3632 69.5541C46.0021 69.3797 45.5964 69.2924 45.1461 69.2924C44.6673 69.2924 44.2495 69.3918 43.8924 69.5906C43.5395 69.7854 43.2656 70.0592 43.0709 70.4122C42.8802 70.7652 42.7848 71.179 42.7848 71.6537H41.3486C41.3486 70.9234 41.517 70.2824 41.8537 69.7306C42.1905 69.1788 42.6489 68.7488 43.2291 68.4404C43.8133 68.1321 44.4685 67.9779 45.1948 67.9779C45.9251 67.9779 46.5722 68.1321 47.1361 68.4404C47.7 68.7488 48.1423 69.1646 48.4628 69.688C48.7833 70.2114 48.9436 70.7936 48.9436 71.4346C48.9436 71.8931 48.8604 72.3414 48.694 72.7795C48.5318 73.2137 48.2478 73.6985 47.842 74.234C47.4404 74.7655 46.8825 75.4146 46.1685 76.1814L43.3691 79.1756V79.273H49.1626V80.6118H41.2999ZM52.0655 80.6118L57.64 69.5846V69.4872H51.2135V68.1483H59.1979V69.5602L53.6478 80.6118H52.0655ZM65.2638 80.7822C64.3469 80.7822 63.5659 80.5327 62.9208 80.0337C62.2758 79.5306 61.7828 78.8023 61.442 77.8489C61.1012 76.8914 60.9308 75.7352 60.9308 74.3801C60.9308 73.0331 61.1012 71.8829 61.442 70.9295C61.7869 69.972 62.2819 69.2417 62.9269 68.7386C63.5761 68.2315 64.355 67.9779 65.2638 67.9779C66.1726 67.9779 66.9496 68.2315 67.5947 68.7386C68.2438 69.2417 68.7388 69.972 69.0796 70.9295C69.4244 71.8829 69.5968 73.0331 69.5968 74.3801C69.5968 75.7352 69.4264 76.8914 69.0856 77.8489C68.7448 78.8023 68.2519 79.5306 67.6068 80.0337C66.9617 80.5327 66.1807 80.7822 65.2638 80.7822ZM65.2638 79.4434C66.1726 79.4434 66.8786 79.0052 67.3817 78.1289C67.8847 77.2525 68.1363 76.0029 68.1363 74.3801C68.1363 73.3009 68.0207 72.3819 67.7894 71.6233C67.5622 70.8646 67.2336 70.2864 66.8035 69.8888C66.3775 69.4912 65.8643 69.2924 65.2638 69.2924C64.3632 69.2924 63.6592 69.7367 63.1521 70.6252C62.645 71.5097 62.3914 72.7613 62.3914 74.3801C62.3914 75.4593 62.505 76.3762 62.7322 77.1308C62.9594 77.8854 63.286 78.4595 63.712 78.8531C64.142 79.2466 64.6593 79.4434 65.2638 79.4434ZM75.9746 80.7822C75.0577 80.7822 74.2767 80.5327 73.6317 80.0337C72.9866 79.5306 72.4936 78.8023 72.1528 77.8489C71.812 76.8914 71.6416 75.7352 71.6416 74.3801C71.6416 73.0331 71.812 71.8829 72.1528 70.9295C72.4977 69.972 72.9927 69.2417 73.6377 68.7386C74.2869 68.2315 75.0658 67.9779 75.9746 67.9779C76.8834 67.9779 77.6604 68.2315 78.3055 68.7386C78.9546 69.2417 79.4496 69.972 79.7904 70.9295C80.1352 71.8829 80.3077 73.0331 80.3077 74.3801C80.3077 75.7352 80.1373 76.8914 79.7965 77.8489C79.4557 78.8023 78.9627 79.5306 78.3176 80.0337C77.6725 80.5327 76.8916 80.7822 75.9746 80.7822ZM75.9746 79.4434C76.8834 79.4434 77.5894 79.0052 78.0925 78.1289C78.5955 77.2525 78.8471 76.0029 78.8471 74.3801C78.8471 73.3009 78.7315 72.3819 78.5002 71.6233C78.273 70.8646 77.9444 70.2864 77.5143 69.8888C77.0883 69.4912 76.5751 69.2924 75.9746 69.2924C75.074 69.2924 74.3701 69.7367 73.8629 70.6252C73.3558 71.5097 73.1022 72.7613 73.1022 74.3801C73.1022 75.4593 73.2158 76.3762 73.443 77.1308C73.6702 77.8854 73.9968 78.4595 74.4228 78.8531C74.8528 79.2466 75.3701 79.4434 75.9746 79.4434ZM87.0019 68.1483V80.6118H85.4927V69.7306H85.4196L82.3768 71.7511V70.2175L85.4927 68.1483H87.0019Z" fill="#0B2A67"/>
<path d="M49.0246 47.8319V63.6309H47.1114V47.8319H49.0246ZM61.5006 51.7816C61.408 50.9999 61.0326 50.3931 60.3743 49.961C59.716 49.529 58.9086 49.313 57.952 49.313C57.2525 49.313 56.6405 49.4262 56.116 49.6525C55.5965 49.8788 55.1902 50.1899 54.8971 50.5859C54.6091 50.9819 54.4651 51.4319 54.4651 51.9359C54.4651 52.3576 54.5654 52.7202 54.766 53.0236C54.9717 53.3219 55.234 53.5714 55.5528 53.7719C55.8717 53.9674 56.206 54.1294 56.5557 54.2579C56.9054 54.3814 57.2268 54.4817 57.52 54.5588L59.1246 54.9908C59.536 55.0988 59.9937 55.2479 60.4977 55.4382C61.0069 55.6285 61.4929 55.8882 61.9557 56.2174C62.4237 56.5414 62.8094 56.958 63.1129 57.4671C63.4163 57.9762 63.568 58.6011 63.568 59.3417C63.568 60.1954 63.3443 60.9668 62.8969 61.656C62.4546 62.3451 61.8066 62.8929 60.9529 63.2991C60.1043 63.7054 59.0731 63.9086 57.8594 63.9086C56.728 63.9086 55.7482 63.726 54.9202 63.3609C54.0974 62.9957 53.4494 62.4866 52.9762 61.8334C52.5082 61.1803 52.2434 60.4217 52.1816 59.5577H54.1565C54.2079 60.1543 54.4085 60.648 54.7582 61.0388C55.1131 61.4246 55.5605 61.7126 56.1005 61.9028C56.6457 62.088 57.232 62.1806 57.8594 62.1806C58.5897 62.1806 59.2454 62.0623 59.8266 61.8257C60.4077 61.584 60.868 61.2497 61.2074 60.8228C61.5469 60.3908 61.7166 59.8868 61.7166 59.3108C61.7166 58.7863 61.57 58.3594 61.2769 58.0302C60.9837 57.7011 60.598 57.4337 60.1197 57.228C59.6414 57.0222 59.1246 56.8422 58.5691 56.688L56.6251 56.1325C55.3908 55.7777 54.4137 55.2711 53.6937 54.6128C52.9737 53.9545 52.6137 53.0931 52.6137 52.0285C52.6137 51.1439 52.8528 50.3725 53.3311 49.7142C53.8145 49.0508 54.4625 48.5365 55.2751 48.1713C56.0928 47.801 57.0057 47.6159 58.0137 47.6159C59.032 47.6159 59.9371 47.7985 60.7291 48.1636C61.5211 48.5236 62.1486 49.0173 62.6114 49.6448C63.0794 50.2722 63.3263 50.9845 63.352 51.7816H61.5006ZM80.0439 55.7314C80.0439 57.3977 79.7431 58.8377 79.1413 60.0514C78.5396 61.2651 77.7142 62.2011 76.665 62.8594C75.6159 63.5177 74.4176 63.8469 73.0702 63.8469C71.7227 63.8469 70.5244 63.5177 69.4753 62.8594C68.4261 62.2011 67.6007 61.2651 66.999 60.0514C66.3972 58.8377 66.0964 57.3977 66.0964 55.7314C66.0964 54.0651 66.3972 52.6251 66.999 51.4113C67.6007 50.1976 68.4261 49.2616 69.4753 48.6033C70.5244 47.945 71.7227 47.6159 73.0702 47.6159C74.4176 47.6159 75.6159 47.945 76.665 48.6033C77.7142 49.2616 78.5396 50.1976 79.1413 51.4113C79.7431 52.6251 80.0439 54.0651 80.0439 55.7314ZM78.1925 55.7314C78.1925 54.3634 77.9636 53.2088 77.5059 52.2676C77.0533 51.3265 76.4387 50.6142 75.6622 50.1308C74.8907 49.6473 74.0267 49.4056 73.0702 49.4056C72.1136 49.4056 71.247 49.6473 70.4704 50.1308C69.699 50.6142 69.0844 51.3265 68.6267 52.2676C68.1741 53.2088 67.9478 54.3634 67.9478 55.7314C67.9478 57.0994 68.1741 58.254 68.6267 59.1951C69.0844 60.1363 69.699 60.8486 70.4704 61.332C71.247 61.8154 72.1136 62.0571 73.0702 62.0571C74.0267 62.0571 74.8907 61.8154 75.6622 61.332C76.4387 60.8486 77.0533 60.1363 77.5059 59.1951C77.9636 58.254 78.1925 57.0994 78.1925 55.7314Z" fill="#0B2A67"/>
</svg>
