<svg width="481" height="240" viewBox="0 0 481 240" fill="none" xmlns="http://www.w3.org/2000/svg">
<path d="M206.082 120.214L171.735 140.25L137.388 160.285L171.735 180.321L206.082 200.357V160.285V120.214Z" fill="#0367A1"/>
<path d="M137.388 160.285L103.041 180.321L68.6943 200.357L103.041 220.392L137.388 240.428V200.357V160.285Z" fill="#0367A1"/>
<path d="M274.776 200.357V161.618V160.285L240.429 180.321L206.082 200.357L240.429 220.392L274.776 240.428V201.69V200.357Z" fill="#6D827B"/>
<path d="M412.164 240.428L446.51 220.392L480.858 200.357L446.51 180.321L412.164 160.285V200.357V240.428Z" fill="#6D827B"/>
<path d="M343.47 200.357L377.817 180.321L412.164 160.285L377.817 140.25L343.47 120.214V160.285V200.357Z" fill="#B6CACE"/>
<path d="M343.47 240.428H412.163L377.817 220.392L343.47 200.357V201.69V240.428Z" fill="#0367A1"/>
<path d="M309.122 181.654L274.775 161.618V200.357V201.69V240.428H277.061L309.122 221.726L343.469 201.69L342.326 201.023L309.122 181.654Z" fill="#0367A1"/>
<path d="M274.776 160.285L240.429 140.25L206.082 120.214V160.285V200.357L240.429 180.321L274.776 160.285Z" fill="#B6CACE"/>
<path d="M206.082 200.357V240.428H274.776L240.429 220.392L206.082 200.357Z" fill="#00ADED"/>
<path d="M68.6943 200.357V240.428H137.388L103.041 220.392L68.6943 200.357Z" fill="#B6CACE"/>
<path d="M34.347 220.392L68.694 200.357L34.347 180.321L0 160.285V200.357V240.428L34.347 220.392Z" fill="#0367A1"/>
</svg>
