<svg width="205" height="245" viewBox="0 0 205 245" fill="none" xmlns="http://www.w3.org/2000/svg">
<rect width="204.773" height="243.476" rx="16" transform="matrix(-1 0 0 1 205 0.757812)" fill="#37474F"/>
<rect x="47" y="153" width="16" height="64" rx="8" fill="#5D5D5B"/>
<rect x="47" y="185" width="16" height="32" rx="8" fill="#00ADED"/>
<rect x="79" y="161" width="16" height="56" rx="8" fill="#5D5D5B"/>
<rect x="79" y="189" width="16" height="28" rx="8" fill="#00ADED"/>
<rect x="111" y="137" width="16" height="80" rx="8" fill="#5D5D5B"/>
<path d="M111 157C111 152.582 114.582 149 119 149C123.418 149 127 152.582 127 157V209C127 213.418 123.418 217 119 217C114.582 217 111 213.418 111 209V157Z" fill="#0CBA4C"/>
<rect x="143" y="177" width="16" height="40" rx="8" fill="#5D5D5B"/>
<rect x="143" y="195" width="16" height="22" rx="8" fill="#00ADED"/>
<g opacity="0.2">
<path d="M153.879 61.9842C154.406 61.9842 154.407 61.1645 153.879 61.1645C153.053 61.1645 152.227 61.1645 151.401 61.1645C151.401 57.8668 151.401 54.5691 151.401 51.2714C152.227 51.2714 153.053 51.2714 153.879 51.2714C154.406 51.2714 154.407 50.4518 153.879 50.4518C153.053 50.4518 152.227 50.4518 151.401 50.4518C151.401 48.7665 151.401 47.0812 151.401 45.3959C151.401 44.8685 150.582 44.8676 150.582 45.3959C150.582 47.0812 150.582 48.7665 150.582 50.4518C147.088 50.4518 143.594 50.4518 140.1 50.4518C140.1 48.7665 140.1 47.0812 140.1 45.3959C140.1 44.8685 139.281 44.8676 139.281 45.3959C139.281 47.0812 139.281 48.7665 139.281 50.4518C135.787 50.4518 132.293 50.4518 128.8 50.4518C128.8 48.7665 128.8 47.0812 128.8 45.3959C128.8 44.8685 127.98 44.8676 127.98 45.3959C127.98 47.0812 127.98 48.7665 127.98 50.4518C124.486 50.4518 120.992 50.4518 117.499 50.4518C117.499 48.7665 117.499 47.0812 117.499 45.3959C117.499 44.8685 116.679 44.8676 116.679 45.3959C116.679 47.0812 116.679 48.7665 116.679 50.4518C115.063 50.4518 113.446 50.4518 111.83 50.4518C109.952 50.4518 108.075 50.4518 106.198 50.4518C106.198 48.7665 106.198 47.0812 106.198 45.3959C106.198 44.8685 105.378 44.8676 105.378 45.3959C105.378 47.0812 105.378 48.7665 105.378 50.4518C101.884 50.4518 98.3905 50.4518 94.8967 50.4518C94.8967 48.7665 94.8967 47.0812 94.8967 45.3959C94.8967 44.8685 94.0771 44.8676 94.0771 45.3959C94.0771 47.0812 94.0771 48.7665 94.0771 50.4518C90.5833 50.4518 87.0896 50.4518 83.5958 50.4518C83.5958 48.7665 83.5958 47.0812 83.5958 45.3959C83.5958 44.8685 82.7762 44.8676 82.7762 45.3959C82.7762 47.0812 82.7762 48.7665 82.7762 50.4518C79.2824 50.4518 75.7887 50.4518 72.2949 50.4518C72.2949 48.7665 72.2949 47.0812 72.2949 45.3959C72.2949 44.8685 71.4752 44.8676 71.4752 45.3959C71.4752 47.0812 71.4752 48.7665 71.4752 50.4518C70.9818 50.4518 70.4884 50.4518 69.9949 50.4518C66.9946 50.4518 63.9942 50.4518 60.9939 50.4518C60.9939 48.7665 60.9939 47.0812 60.9939 45.3959C60.9939 44.8685 60.1743 44.8676 60.1743 45.3959C60.1743 47.0812 60.1743 48.7665 60.1743 50.4518C56.6805 50.4518 53.1868 50.4518 49.693 50.4518C49.693 48.7665 49.693 47.0812 49.693 45.3959C49.693 44.8685 48.8734 44.8676 48.8734 45.3959C48.8734 47.0812 48.8734 48.7665 48.8734 50.4518C48.0475 50.4518 47.2217 50.4518 46.3959 50.4518C45.8684 50.4518 45.8676 51.2714 46.3959 51.2714C47.2217 51.2714 48.0475 51.2714 48.8734 51.2714C48.8734 54.5692 48.8734 57.8669 48.8734 61.1645C48.0475 61.1645 47.2217 61.1645 46.3959 61.1645C45.8684 61.1645 45.8676 61.9842 46.3959 61.9842C47.2217 61.9842 48.0475 61.9842 48.8734 61.9842C48.8734 65.2819 48.8734 68.5797 48.8734 71.8773C48.0475 71.8773 47.2217 71.8773 46.3959 71.8773C45.8684 71.8773 45.8676 72.697 46.3959 72.697C47.2217 72.697 48.0475 72.697 48.8734 72.697C48.8734 73.4042 48.8734 74.1114 48.8734 74.8186C48.8734 77.4091 48.8734 79.9995 48.8734 82.5901C48.0475 82.5901 47.2217 82.5901 46.3959 82.5901C45.8684 82.5901 45.8676 83.4097 46.3959 83.4097C47.2217 83.4097 48.0475 83.4097 48.8734 83.4097C48.8734 86.7075 48.8734 90.0052 48.8734 93.3029C48.0475 93.3029 47.2217 93.3029 46.3959 93.3029C45.8684 93.3029 45.8676 94.1226 46.3959 94.1226C47.2217 94.1226 48.0475 94.1226 48.8734 94.1226C48.8734 97.4203 48.8734 100.718 48.8734 104.016C48.0475 104.016 47.2217 104.016 46.3959 104.016C45.8684 104.016 45.8676 104.835 46.3959 104.835C47.2217 104.835 48.0475 104.835 48.8734 104.835C48.8734 108.133 48.8734 111.431 48.8734 114.729C48.0475 114.729 47.2217 114.729 46.3959 114.729C45.8684 114.729 45.8676 115.548 46.3959 115.548C47.2217 115.548 48.0475 115.548 48.8734 115.548C48.8734 117.233 48.8734 118.919 48.8734 120.604C48.8734 121.132 49.693 121.132 49.693 120.604C49.693 118.919 49.693 117.233 49.693 115.548C53.1868 115.548 56.6805 115.548 60.1743 115.548C60.1743 117.233 60.1743 118.919 60.1743 120.604C60.1743 121.132 60.9939 121.132 60.9939 120.604C60.9939 118.919 60.9939 117.233 60.9939 115.548C64.4877 115.548 67.9814 115.548 71.4752 115.548C71.4752 117.233 71.4752 118.919 71.4752 120.604C71.4752 121.132 72.2949 121.132 72.2949 120.604C72.2949 118.919 72.2949 117.233 72.2949 115.548C75.7886 115.548 79.2824 115.548 82.7762 115.548C82.7762 117.233 82.7762 118.919 82.7762 120.604C82.7762 121.132 83.5958 121.132 83.5958 120.604C83.5958 118.919 83.5958 117.233 83.5958 115.548C85.2122 115.548 86.8287 115.548 88.4451 115.548C90.3225 115.548 92.1997 115.548 94.0771 115.548C94.0771 117.233 94.0771 118.919 94.0771 120.604C94.0771 121.132 94.8967 121.132 94.8967 120.604C94.8967 118.919 94.8967 117.233 94.8967 115.548C98.3905 115.548 101.884 115.548 105.378 115.548C105.378 117.233 105.378 118.919 105.378 120.604C105.378 121.132 106.198 121.132 106.198 120.604C106.198 118.919 106.198 117.233 106.198 115.548C109.691 115.548 113.185 115.548 116.679 115.548C116.679 117.233 116.679 118.919 116.679 120.604C116.679 121.132 117.499 121.132 117.499 120.604C117.499 118.919 117.499 117.233 117.499 115.548C120.992 115.548 124.486 115.548 127.98 115.548C127.98 117.233 127.98 118.919 127.98 120.604C127.98 121.132 128.8 121.132 128.8 120.604C128.8 118.919 128.8 117.233 128.8 115.548C129.293 115.548 129.786 115.548 130.28 115.548C133.28 115.548 136.28 115.548 139.281 115.548C139.281 117.233 139.281 118.919 139.281 120.604C139.281 121.132 140.1 121.132 140.1 120.604C140.1 118.919 140.1 117.233 140.1 115.548C143.594 115.548 147.088 115.548 150.582 115.548C150.582 117.233 150.582 118.919 150.582 120.604C150.582 121.132 151.401 121.132 151.401 120.604C151.401 118.919 151.401 117.233 151.401 115.548C152.227 115.548 153.053 115.548 153.879 115.548C154.406 115.548 154.407 114.729 153.879 114.729C153.053 114.729 152.227 114.729 151.401 114.729C151.401 111.431 151.401 108.133 151.401 104.835C152.227 104.835 153.053 104.835 153.879 104.835C154.406 104.835 154.407 104.016 153.879 104.016C153.053 104.016 152.227 104.016 151.401 104.016C151.401 100.718 151.401 97.4202 151.401 94.1226C152.227 94.1226 153.053 94.1226 153.879 94.1226C154.406 94.1226 154.407 93.3029 153.879 93.3029C153.053 93.3029 152.227 93.3029 151.401 93.3029C151.401 92.5957 151.401 91.8885 151.401 91.1813C151.401 88.5908 151.401 86.0004 151.401 83.4098C152.227 83.4098 153.053 83.4098 153.879 83.4098C154.406 83.4098 154.407 82.5902 153.879 82.5902C153.053 82.5902 152.227 82.5902 151.401 82.5902C151.401 79.2924 151.401 75.9947 151.401 72.6971C152.227 72.6971 153.053 72.6971 153.879 72.6971C154.406 72.6971 154.407 71.8774 153.879 71.8774C153.053 71.8774 152.227 71.8774 151.401 71.8774C151.401 68.5797 151.401 65.2819 151.401 61.9843C152.227 61.9842 153.053 61.9842 153.879 61.9842ZM150.582 51.2714C150.582 54.5692 150.582 57.8669 150.582 61.1645C147.088 61.1645 143.594 61.1645 140.1 61.1645C140.1 57.8668 140.1 54.5691 140.1 51.2714C143.594 51.2714 147.088 51.2714 150.582 51.2714ZM130.28 51.2714C133.28 51.2714 136.28 51.2714 139.281 51.2714C139.281 54.5692 139.281 57.8669 139.281 61.1645C135.787 61.1645 132.293 61.1645 128.8 61.1645C128.8 57.8668 128.8 54.5691 128.8 51.2714C129.293 51.2714 129.786 51.2714 130.28 51.2714ZM139.281 82.5902C135.787 82.5902 132.293 82.5902 128.8 82.5902C128.8 79.2924 128.8 75.9947 128.8 72.6971C129.293 72.6971 129.786 72.6971 130.28 72.6971C133.28 72.6971 136.28 72.6971 139.281 72.6971C139.281 73.4043 139.281 74.1115 139.281 74.8187C139.281 77.4092 139.281 79.9997 139.281 82.5902ZM128.8 104.016C128.8 100.718 128.8 97.4204 128.8 94.1228C129.293 94.1228 129.786 94.1228 130.28 94.1228C133.28 94.1228 136.28 94.1228 139.281 94.1228C139.281 97.4205 139.281 100.718 139.281 104.016C135.787 104.016 132.293 104.016 128.8 104.016ZM117.499 104.016C117.499 100.718 117.499 97.4204 117.499 94.1228C120.992 94.1228 124.486 94.1228 127.98 94.1228C127.98 97.4205 127.98 100.718 127.98 104.016C124.486 104.016 120.992 104.016 117.499 104.016ZM111.83 104.016C109.952 104.016 108.075 104.016 106.198 104.016C106.198 100.718 106.198 97.4204 106.198 94.1228C109.691 94.1228 113.185 94.1228 116.679 94.1228C116.679 97.4205 116.679 100.718 116.679 104.016C115.063 104.016 113.446 104.016 111.83 104.016ZM94.8967 104.016C94.8967 100.718 94.8967 97.4204 94.8967 94.1228C98.3905 94.1228 101.884 94.1228 105.378 94.1228C105.378 97.4205 105.378 100.718 105.378 104.016C101.884 104.016 98.3905 104.016 94.8967 104.016ZM83.5958 104.016C83.5958 100.718 83.5958 97.4204 83.5958 94.1228C85.2122 94.1228 86.8287 94.1228 88.4451 94.1228C90.3225 94.1228 92.1997 94.1228 94.0771 94.1228C94.0771 97.4205 94.0771 100.718 94.0771 104.016C90.5833 104.016 87.0896 104.016 83.5958 104.016ZM72.2949 104.016C72.2949 100.718 72.2949 97.4204 72.2949 94.1228C75.7886 94.1228 79.2824 94.1228 82.7762 94.1228C82.7762 97.4205 82.7762 100.718 82.7762 104.016C79.2824 104.016 75.7887 104.016 72.2949 104.016ZM69.9949 104.016C66.9946 104.016 63.9942 104.016 60.9939 104.016C60.9939 100.718 60.9939 97.4204 60.9939 94.1228C64.4877 94.1228 67.9814 94.1228 71.4752 94.1228C71.4752 97.4205 71.4752 100.718 71.4752 104.016C70.9818 104.016 70.4884 104.016 69.9949 104.016ZM60.9939 83.4099C64.4877 83.4099 67.9814 83.4099 71.4752 83.4099C71.4752 86.7077 71.4752 90.0054 71.4752 93.3031C70.9818 93.3031 70.4884 93.3031 69.9949 93.3031C66.9946 93.3031 63.9942 93.3031 60.9939 93.3031C60.9939 92.5959 60.9939 91.8887 60.9939 91.1815C60.9939 88.5909 60.9939 86.0004 60.9939 83.4099ZM71.4752 61.9842C71.4752 65.2819 71.4752 68.5797 71.4752 71.8773C70.9818 71.8773 70.4884 71.8773 69.9949 71.8773C66.9946 71.8773 63.9942 71.8773 60.9939 71.8773C60.9939 68.5796 60.9939 65.2818 60.9939 61.9842C64.4877 61.9842 67.9814 61.9842 71.4752 61.9842ZM82.7762 61.9842C82.7762 65.2819 82.7762 68.5797 82.7762 71.8773C79.2824 71.8773 75.7887 71.8773 72.2949 71.8773C72.2949 68.5796 72.2949 65.2818 72.2949 61.9842C75.7887 61.9842 79.2824 61.9842 82.7762 61.9842ZM88.4451 61.9842C90.3225 61.9842 92.1997 61.9842 94.0771 61.9842C94.0771 65.2819 94.0771 68.5797 94.0771 71.8773C90.5833 71.8773 87.0896 71.8773 83.5958 71.8773C83.5958 68.5796 83.5958 65.2818 83.5958 61.9842C85.2122 61.9842 86.8287 61.9842 88.4451 61.9842ZM105.378 61.9842C105.378 65.2819 105.378 68.5797 105.378 71.8773C101.884 71.8773 98.3905 71.8773 94.8967 71.8773C94.8967 68.5796 94.8967 65.2818 94.8967 61.9842C98.3905 61.9842 101.884 61.9842 105.378 61.9842ZM116.679 61.9842C116.679 65.2819 116.679 68.5797 116.679 71.8773C115.063 71.8773 113.446 71.8773 111.83 71.8773C109.952 71.8773 108.075 71.8773 106.198 71.8773C106.198 68.5796 106.198 65.2818 106.198 61.9842C109.691 61.9842 113.185 61.9842 116.679 61.9842ZM127.98 61.9842C127.98 65.2819 127.98 68.5797 127.98 71.8773C124.486 71.8773 120.992 71.8773 117.499 71.8773C117.499 68.5796 117.499 65.2818 117.499 61.9842C120.992 61.9842 124.486 61.9842 127.98 61.9842ZM127.98 82.5902C124.486 82.5902 120.992 82.5902 117.499 82.5902C117.499 79.2924 117.499 75.9947 117.499 72.6971C120.992 72.6971 124.486 72.6971 127.98 72.6971C127.98 73.4043 127.98 74.1115 127.98 74.8187C127.98 77.4092 127.98 79.9997 127.98 82.5902ZM72.2949 83.4099C75.7886 83.4099 79.2824 83.4099 82.7762 83.4099C82.7762 86.7077 82.7762 90.0054 82.7762 93.3031C79.2824 93.3031 75.7887 93.3031 72.2949 93.3031C72.2949 92.5959 72.2949 91.8887 72.2949 91.1815C72.2949 88.5909 72.2949 86.0004 72.2949 83.4099ZM116.679 82.5902C115.063 82.5902 113.446 82.5902 111.83 82.5902C109.952 82.5902 108.075 82.5902 106.198 82.5902C106.198 79.2924 106.198 75.9947 106.198 72.6971C109.691 72.6971 113.185 72.6971 116.679 72.6971C116.679 73.4043 116.679 74.1115 116.679 74.8187C116.679 77.4092 116.679 79.9997 116.679 82.5902ZM105.378 74.8187C105.378 77.4092 105.378 79.9996 105.378 82.5902C101.884 82.5902 98.3905 82.5902 94.8967 82.5902C94.8967 79.2924 94.8967 75.9947 94.8967 72.6971C98.3905 72.6971 101.884 72.6971 105.378 72.6971C105.378 73.4043 105.378 74.1115 105.378 74.8187ZM94.0771 74.8187C94.0771 77.4092 94.0771 79.9996 94.0771 82.5902C90.5833 82.5902 87.0896 82.5902 83.5958 82.5902C83.5958 79.2924 83.5958 75.9947 83.5958 72.6971C85.2122 72.6971 86.8287 72.6971 88.4451 72.6971C90.3225 72.6971 92.1997 72.6971 94.0771 72.6971C94.0771 73.4043 94.0771 74.1115 94.0771 74.8187ZM82.7762 74.8187C82.7762 77.4092 82.7762 79.9996 82.7762 82.5902C79.2824 82.5902 75.7887 82.5902 72.2949 82.5902C72.2949 79.2924 72.2949 75.9947 72.2949 72.6971C75.7886 72.6971 79.2824 72.6971 82.7762 72.6971C82.7762 73.4043 82.7762 74.1115 82.7762 74.8187ZM83.5958 91.1814C83.5958 88.5909 83.5958 86.0005 83.5958 83.4099C85.2122 83.4099 86.8287 83.4099 88.4451 83.4099C90.3225 83.4099 92.1997 83.4099 94.0771 83.4099C94.0771 86.7077 94.0771 90.0054 94.0771 93.3031C90.5833 93.3031 87.0896 93.3031 83.5958 93.3031C83.5958 92.5958 83.5958 91.8886 83.5958 91.1814ZM94.8967 91.1814C94.8967 88.5909 94.8967 86.0005 94.8967 83.4099C98.3905 83.4099 101.884 83.4099 105.378 83.4099C105.378 86.7077 105.378 90.0054 105.378 93.3031C101.884 93.3031 98.3905 93.3031 94.8967 93.3031C94.8967 92.5958 94.8967 91.8886 94.8967 91.1814ZM106.198 91.1814C106.198 88.5909 106.198 86.0005 106.198 83.4099C109.691 83.4099 113.185 83.4099 116.679 83.4099C116.679 86.7077 116.679 90.0054 116.679 93.3031C115.063 93.3031 113.446 93.3031 111.83 93.3031C109.952 93.3031 108.075 93.3031 106.198 93.3031C106.198 92.5958 106.198 91.8886 106.198 91.1814ZM117.499 91.1814C117.499 88.5909 117.499 86.0005 117.499 83.4099C120.992 83.4099 124.486 83.4099 127.98 83.4099C127.98 86.7077 127.98 90.0054 127.98 93.3031C124.486 93.3031 120.992 93.3031 117.499 93.3031C117.499 92.5958 117.499 91.8886 117.499 91.1814ZM71.4752 72.6971C71.4752 73.4043 71.4752 74.1115 71.4752 74.8187C71.4752 77.4092 71.4752 79.9996 71.4752 82.5902C70.9818 82.5902 70.4884 82.5902 69.9949 82.5902C66.9946 82.5902 63.9942 82.5902 60.9939 82.5902C60.9939 79.2924 60.9939 75.9947 60.9939 72.6971C64.4877 72.6971 67.9814 72.6971 71.4752 72.6971ZM128.8 93.303C128.8 92.5958 128.8 91.8886 128.8 91.1814C128.8 88.5909 128.8 86.0005 128.8 83.4099C129.293 83.4099 129.786 83.4099 130.28 83.4099C133.28 83.4099 136.28 83.4099 139.281 83.4099C139.281 86.7077 139.281 90.0054 139.281 93.3031C135.787 93.303 132.293 93.303 128.8 93.303ZM128.8 71.8774C128.8 68.5797 128.8 65.2819 128.8 61.9843C129.293 61.9843 129.786 61.9843 130.28 61.9843C133.28 61.9843 136.28 61.9843 139.281 61.9843C139.281 65.282 139.281 68.5798 139.281 71.8774C135.787 71.8774 132.293 71.8774 128.8 71.8774ZM127.98 51.2714C127.98 54.5692 127.98 57.8669 127.98 61.1645C124.486 61.1645 120.992 61.1645 117.499 61.1645C117.499 57.8668 117.499 54.5691 117.499 51.2714C120.992 51.2714 124.486 51.2714 127.98 51.2714ZM116.679 51.2714C116.679 54.5692 116.679 57.8669 116.679 61.1645C115.063 61.1645 113.446 61.1645 111.83 61.1645C109.952 61.1645 108.075 61.1645 106.198 61.1645C106.198 57.8668 106.198 54.5691 106.198 51.2714C109.691 51.2714 113.185 51.2714 116.679 51.2714ZM105.378 51.2714C105.378 54.5692 105.378 57.8669 105.378 61.1645C101.884 61.1645 98.3905 61.1645 94.8967 61.1645C94.8967 57.8668 94.8967 54.5691 94.8967 51.2714C98.3905 51.2714 101.884 51.2714 105.378 51.2714ZM88.4451 51.2714C90.3225 51.2714 92.1997 51.2714 94.0771 51.2714C94.0771 54.5692 94.0771 57.8669 94.0771 61.1645C90.5833 61.1645 87.0896 61.1645 83.5958 61.1645C83.5958 57.8668 83.5958 54.5691 83.5958 51.2714C85.2122 51.2714 86.8287 51.2714 88.4451 51.2714ZM82.7762 51.2714C82.7762 54.5692 82.7762 57.8669 82.7762 61.1645C79.2824 61.1645 75.7887 61.1645 72.2949 61.1645C72.2949 57.8668 72.2949 54.5691 72.2949 51.2714C75.7887 51.2714 79.2824 51.2714 82.7762 51.2714ZM71.4752 51.2714C71.4752 54.5692 71.4752 57.8669 71.4752 61.1645C70.9818 61.1645 70.4884 61.1645 69.9949 61.1645C66.9946 61.1645 63.9942 61.1645 60.9939 61.1645C60.9939 57.8668 60.9939 54.5691 60.9939 51.2714C64.4877 51.2714 67.9814 51.2714 71.4752 51.2714ZM49.693 51.2714C53.1868 51.2714 56.6805 51.2714 60.1743 51.2714C60.1743 54.5692 60.1743 57.8669 60.1743 61.1645C56.6805 61.1645 53.1868 61.1645 49.693 61.1645C49.693 57.8669 49.693 54.5691 49.693 51.2714ZM49.693 61.9842C53.1868 61.9842 56.6805 61.9842 60.1743 61.9842C60.1743 65.2819 60.1743 68.5797 60.1743 71.8773C56.6805 71.8773 53.1868 71.8773 49.693 71.8773C49.693 68.5797 49.693 65.2819 49.693 61.9842ZM49.693 72.6971C53.1868 72.6971 56.6805 72.6971 60.1743 72.6971C60.1743 73.4043 60.1743 74.1115 60.1743 74.8187C60.1743 77.4092 60.1743 79.9996 60.1743 82.5902C56.6805 82.5902 53.1868 82.5902 49.693 82.5902C49.693 79.2925 49.693 75.9948 49.693 72.6971ZM49.693 91.1814C49.693 88.5909 49.693 86.0005 49.693 83.4099C53.1868 83.4099 56.6805 83.4099 60.1743 83.4099C60.1743 86.7077 60.1743 90.0054 60.1743 93.3031C56.6805 93.3031 53.1868 93.3031 49.693 93.3031C49.693 92.5958 49.693 91.8886 49.693 91.1814ZM49.693 94.1227C53.1868 94.1227 56.6805 94.1227 60.1743 94.1227C60.1743 97.4204 60.1743 100.718 60.1743 104.016C56.6805 104.016 53.1868 104.016 49.693 104.016C49.693 100.718 49.693 97.4204 49.693 94.1227ZM49.693 114.729C49.693 111.431 49.693 108.133 49.693 104.836C53.1868 104.836 56.6805 104.836 60.1743 104.836C60.1743 108.133 60.1743 111.431 60.1743 114.729C56.6805 114.729 53.1868 114.729 49.693 114.729ZM69.9949 114.729C66.9946 114.729 63.9942 114.729 60.9939 114.729C60.9939 111.431 60.9939 108.133 60.9939 104.836C64.4877 104.836 67.9814 104.836 71.4752 104.836C71.4752 108.133 71.4752 111.431 71.4752 114.729C70.9818 114.729 70.4884 114.729 69.9949 114.729ZM72.2949 114.729C72.2949 111.431 72.2949 108.133 72.2949 104.836C75.7886 104.836 79.2824 104.836 82.7762 104.836C82.7762 108.133 82.7762 111.431 82.7762 114.729C79.2824 114.729 75.7887 114.729 72.2949 114.729ZM83.5958 114.729C83.5958 111.431 83.5958 108.133 83.5958 104.836C85.2122 104.836 86.8287 104.836 88.4451 104.836C90.3225 104.836 92.1997 104.836 94.0771 104.836C94.0771 108.133 94.0771 111.431 94.0771 114.729C90.5833 114.729 87.0896 114.729 83.5958 114.729ZM94.8967 114.729C94.8967 111.431 94.8967 108.133 94.8967 104.836C98.3905 104.836 101.884 104.836 105.378 104.836C105.378 108.133 105.378 111.431 105.378 114.729C101.884 114.729 98.3905 114.729 94.8967 114.729ZM111.83 114.729C109.952 114.729 108.075 114.729 106.198 114.729C106.198 111.431 106.198 108.133 106.198 104.836C109.691 104.836 113.185 104.836 116.679 104.836C116.679 108.133 116.679 111.431 116.679 114.729C115.063 114.729 113.446 114.729 111.83 114.729ZM117.499 114.729C117.499 111.431 117.499 108.133 117.499 104.836C120.992 104.836 124.486 104.836 127.98 104.836C127.98 108.133 127.98 111.431 127.98 114.729C124.486 114.729 120.992 114.729 117.499 114.729ZM128.8 114.729C128.8 111.431 128.8 108.133 128.8 104.836C129.293 104.836 129.786 104.836 130.28 104.836C133.28 104.836 136.28 104.836 139.281 104.836C139.281 108.133 139.281 111.431 139.281 114.729C135.787 114.729 132.293 114.729 128.8 114.729ZM150.582 114.729C147.088 114.729 143.594 114.729 140.1 114.729C140.1 111.431 140.1 108.133 140.1 104.836C143.594 104.836 147.088 104.836 150.582 104.836C150.582 108.133 150.582 111.431 150.582 114.729ZM150.582 104.016C147.088 104.016 143.594 104.016 140.1 104.016C140.1 100.718 140.1 97.4204 140.1 94.1228C143.594 94.1228 147.088 94.1228 150.582 94.1228C150.582 97.4204 150.582 100.718 150.582 104.016ZM150.582 93.303C147.088 93.303 143.594 93.303 140.1 93.303C140.1 92.5958 140.1 91.8886 140.1 91.1814C140.1 88.5909 140.1 86.0005 140.1 83.4099C143.594 83.4099 147.088 83.4099 150.582 83.4099C150.582 86.7077 150.582 90.0053 150.582 93.303ZM150.582 74.8187C150.582 77.4092 150.582 79.9996 150.582 82.5902C147.088 82.5902 143.594 82.5902 140.1 82.5902C140.1 79.2924 140.1 75.9947 140.1 72.6971C143.594 72.6971 147.088 72.6971 150.582 72.6971C150.582 73.4043 150.582 74.1115 150.582 74.8187ZM150.582 71.8774C147.088 71.8774 143.594 71.8774 140.1 71.8774C140.1 68.5797 140.1 65.2819 140.1 61.9843C143.594 61.9843 147.088 61.9843 150.582 61.9843C150.582 65.2819 150.582 68.5797 150.582 71.8774Z" fill="#51A8BC"/>
<path d="M160.179 109.414C160.477 105.867 157.468 100.233 156.258 96.7832C154.737 92.4491 153.077 88.145 150.958 84.0637C150.285 84.4243 145.026 90.9021 145.045 90.9172C139.771 86.7207 134.496 82.5244 129.221 78.328C125.117 75.0624 121.012 71.7969 116.908 68.5313C115.367 67.306 113.961 65.9232 112.472 64.6377C110.947 63.3203 109.197 62.2513 107.541 61.1088C106.493 60.3865 106.093 61.447 105.506 62.1626C105.018 62.7568 104.531 63.3518 104.045 63.9477C103.041 65.1793 102.042 66.4146 101.045 67.6518C99.0832 70.0865 97.1318 72.5294 95.1767 74.9693C94.8997 75.315 90.3504 80.7894 90.4452 80.8842C85.5325 76.8148 80.6197 72.7455 75.707 68.6761C72.1924 65.7649 68.6779 62.8537 65.1634 59.9425C63.9661 58.9507 62.8028 57.8699 61.5498 56.949C58.2142 54.4975 54.2446 61.6915 52.7657 63.7443C51.6374 65.3166 84.4732 91.0588 88.0206 93.9974C88.869 94.7002 89.9262 95.9769 90.9395 96.4153C91.4297 96.6273 91.5802 97.236 92.2138 97.1499C94.694 96.8049 97.717 91.1373 99.0141 89.3661C101.28 86.2718 104.565 82.2348 106.994 79.2598C108.98 76.8272 108.192 76.635 110.58 78.3785C114.007 80.8799 117.25 83.6851 120.57 86.3263C121.7 87.2253 137.649 99.9704 137.677 99.9366C135.824 102.205 133.19 104.61 131.955 107.197C134.619 108.213 160.122 110.079 160.179 109.414Z" fill="#008AB8"/>
<mask id="mask0_90_2904" style="mask-type:luminance" maskUnits="userSpaceOnUse" x="52" y="56" width="109" height="54">
<path d="M160.179 109.414C160.477 105.867 157.468 100.233 156.258 96.7832C154.737 92.4491 153.077 88.145 150.958 84.0637C150.285 84.4243 145.026 90.9021 145.045 90.9172C139.771 86.7207 134.496 82.5244 129.221 78.328C125.117 75.0624 121.012 71.7969 116.908 68.5313C115.367 67.306 113.961 65.9232 112.472 64.6377C110.947 63.3203 109.197 62.2513 107.541 61.1088C106.493 60.3865 106.093 61.447 105.506 62.1626C105.018 62.7568 104.531 63.3518 104.045 63.9477C103.041 65.1793 102.042 66.4146 101.045 67.6518C99.0832 70.0865 97.1318 72.5294 95.1767 74.9693C94.8997 75.315 90.3504 80.7894 90.4452 80.8842C85.5325 76.8148 80.6197 72.7455 75.707 68.6761C72.1924 65.7649 68.6779 62.8537 65.1634 59.9425C63.9661 58.9507 62.8028 57.8699 61.5498 56.949C58.2142 54.4975 54.2446 61.6915 52.7657 63.7443C51.6374 65.3166 84.4732 91.0588 88.0206 93.9974C88.869 94.7002 89.9262 95.9769 90.9395 96.4153C91.4297 96.6273 91.5802 97.236 92.2138 97.1499C94.694 96.8049 97.717 91.1373 99.0141 89.3661C101.28 86.2718 104.565 82.2348 106.994 79.2598C108.98 76.8272 108.192 76.635 110.58 78.3785C114.007 80.8799 117.25 83.6851 120.57 86.3263C121.7 87.2253 137.649 99.9704 137.677 99.9366C135.824 102.205 133.19 104.61 131.955 107.197C134.619 108.213 160.122 110.079 160.179 109.414Z" fill="white"/>
</mask>
<g mask="url(#mask0_90_2904)">
<path d="M53.6193 60.3955C53.6193 60.3955 79.7171 83.4018 81.1943 85.0433C82.6715 86.6846 92.3555 93.2501 92.6839 92.7577C93.0121 92.2653 107.082 72.1068 108.628 72.7511C110.175 73.3955 141.363 98.2684 141.363 99.6861C141.363 101.104 136.079 105.099 136.981 105.357C137.883 105.614 163.833 108.983 163.23 109.554C162.627 110.125 160.2 111.813 160.2 111.813C160.2 111.813 128.604 111.561 128.862 109.554C129.119 107.548 133.63 100.202 133.63 100.202L108.886 80.3548C108.886 80.3548 95.8695 99.4284 94.0653 99.4284C92.2611 99.4284 87.106 98.5262 84.7862 96.7219C82.4665 94.9176 50.892 67.2605 51.0209 65.1086C51.1498 62.9565 53.6193 60.3955 53.6193 60.3955Z" fill="#254768"/>
</g>
</g>
<path d="M64.1477 67.4091C65.2614 67.4167 66.3447 67.6136 67.3977 68C68.4583 68.3788 69.4129 69 70.2614 69.8636C71.1098 70.7197 71.7841 71.8674 72.2841 73.3068C72.7841 74.7462 73.0341 76.5265 73.0341 78.6477C73.0417 80.6477 72.8295 82.4356 72.3977 84.0114C71.9735 85.5795 71.3636 86.9053 70.5682 87.9886C69.7727 89.072 68.8144 89.8977 67.6932 90.4659C66.572 91.0341 65.3106 91.3182 63.9091 91.3182C62.4394 91.3182 61.1364 91.0303 60 90.4545C58.8712 89.8788 57.9583 89.0909 57.2614 88.0909C56.5644 87.0909 56.1364 85.947 55.9773 84.6591H60.125C60.3371 85.5833 60.7689 86.3182 61.4205 86.8636C62.0795 87.4015 62.9091 87.6705 63.9091 87.6705C65.5227 87.6705 66.7652 86.9697 67.6364 85.5682C68.5076 84.1667 68.9432 82.2197 68.9432 79.7273H68.7841C68.4129 80.3939 67.9318 80.9697 67.3409 81.4545C66.75 81.9318 66.0795 82.2992 65.3295 82.5568C64.5871 82.8144 63.7992 82.9432 62.9659 82.9432C61.6023 82.9432 60.375 82.6174 59.2841 81.9659C58.2008 81.3144 57.3409 80.4205 56.7045 79.2841C56.0758 78.1477 55.7576 76.8485 55.75 75.3864C55.75 73.8712 56.0985 72.5114 56.7955 71.3068C57.5 70.0947 58.4811 69.1402 59.7386 68.4432C60.9962 67.7386 62.4659 67.3939 64.1477 67.4091ZM64.1591 70.8182C63.3409 70.8182 62.6023 71.0189 61.9432 71.4205C61.2917 71.8144 60.7765 72.3523 60.3977 73.0341C60.0265 73.7083 59.8409 74.4621 59.8409 75.2955C59.8485 76.1212 60.0341 76.8712 60.3977 77.5455C60.7689 78.2197 61.2727 78.7538 61.9091 79.1477C62.553 79.5417 63.2879 79.7386 64.1136 79.7386C64.7273 79.7386 65.2992 79.6212 65.8295 79.3864C66.3598 79.1515 66.822 78.8258 67.2159 78.4091C67.6174 77.9848 67.928 77.5038 68.1477 76.9659C68.375 76.428 68.4848 75.8598 68.4773 75.2614C68.4773 74.4659 68.2879 73.7311 67.9091 73.0568C67.5379 72.3826 67.0265 71.8409 66.375 71.4318C65.7311 71.0227 64.9924 70.8182 64.1591 70.8182ZM84.8977 67.4091C86.0114 67.4167 87.0947 67.6136 88.1477 68C89.2083 68.3788 90.1629 69 91.0114 69.8636C91.8598 70.7197 92.5341 71.8674 93.0341 73.3068C93.5341 74.7462 93.7841 76.5265 93.7841 78.6477C93.7917 80.6477 93.5795 82.4356 93.1477 84.0114C92.7235 85.5795 92.1136 86.9053 91.3182 87.9886C90.5227 89.072 89.5644 89.8977 88.4432 90.4659C87.322 91.0341 86.0606 91.3182 84.6591 91.3182C83.1894 91.3182 81.8864 91.0303 80.75 90.4545C79.6212 89.8788 78.7083 89.0909 78.0114 88.0909C77.3144 87.0909 76.8864 85.947 76.7273 84.6591H80.875C81.0871 85.5833 81.5189 86.3182 82.1705 86.8636C82.8295 87.4015 83.6591 87.6705 84.6591 87.6705C86.2727 87.6705 87.5152 86.9697 88.3864 85.5682C89.2576 84.1667 89.6932 82.2197 89.6932 79.7273H89.5341C89.1629 80.3939 88.6818 80.9697 88.0909 81.4545C87.5 81.9318 86.8295 82.2992 86.0795 82.5568C85.3371 82.8144 84.5492 82.9432 83.7159 82.9432C82.3523 82.9432 81.125 82.6174 80.0341 81.9659C78.9508 81.3144 78.0909 80.4205 77.4545 79.2841C76.8258 78.1477 76.5076 76.8485 76.5 75.3864C76.5 73.8712 76.8485 72.5114 77.5455 71.3068C78.25 70.0947 79.2311 69.1402 80.4886 68.4432C81.7462 67.7386 83.2159 67.3939 84.8977 67.4091ZM84.9091 70.8182C84.0909 70.8182 83.3523 71.0189 82.6932 71.4205C82.0417 71.8144 81.5265 72.3523 81.1477 73.0341C80.7765 73.7083 80.5909 74.4621 80.5909 75.2955C80.5985 76.1212 80.7841 76.8712 81.1477 77.5455C81.5189 78.2197 82.0227 78.7538 82.6591 79.1477C83.303 79.5417 84.0379 79.7386 84.8636 79.7386C85.4773 79.7386 86.0492 79.6212 86.5795 79.3864C87.1098 79.1515 87.572 78.8258 87.9659 78.4091C88.3674 77.9848 88.678 77.5038 88.8977 76.9659C89.125 76.428 89.2348 75.8598 89.2273 75.2614C89.2273 74.4659 89.0379 73.7311 88.6591 73.0568C88.2879 72.3826 87.7765 71.8409 87.125 71.4318C86.4811 71.0227 85.7424 70.8182 84.9091 70.8182ZM99.2415 91.25C98.5521 91.25 97.9612 91.0076 97.4688 90.5227C96.9763 90.0379 96.7339 89.447 96.7415 88.75C96.7339 88.0682 96.9763 87.4848 97.4688 87C97.9612 86.5152 98.5521 86.2727 99.2415 86.2727C99.9081 86.2727 100.488 86.5152 100.98 87C101.48 87.4848 101.734 88.0682 101.741 88.75C101.734 89.2121 101.613 89.6326 101.378 90.0114C101.151 90.3902 100.848 90.6932 100.469 90.9205C100.098 91.1402 99.6884 91.25 99.2415 91.25ZM113.679 67.4091C114.793 67.4167 115.876 67.6136 116.929 68C117.99 68.3788 118.944 69 119.793 69.8636C120.641 70.7197 121.315 71.8674 121.815 73.3068C122.315 74.7462 122.565 76.5265 122.565 78.6477C122.573 80.6477 122.361 82.4356 121.929 84.0114C121.505 85.5795 120.895 86.9053 120.099 87.9886C119.304 89.072 118.346 89.8977 117.224 90.4659C116.103 91.0341 114.842 91.3182 113.44 91.3182C111.971 91.3182 110.668 91.0303 109.531 90.4545C108.402 89.8788 107.49 89.0909 106.793 88.0909C106.096 87.0909 105.668 85.947 105.509 84.6591H109.656C109.868 85.5833 110.3 86.3182 110.952 86.8636C111.611 87.4015 112.44 87.6705 113.44 87.6705C115.054 87.6705 116.296 86.9697 117.168 85.5682C118.039 84.1667 118.474 82.2197 118.474 79.7273H118.315C117.944 80.3939 117.463 80.9697 116.872 81.4545C116.281 81.9318 115.611 82.2992 114.861 82.5568C114.118 82.8144 113.33 82.9432 112.497 82.9432C111.134 82.9432 109.906 82.6174 108.815 81.9659C107.732 81.3144 106.872 80.4205 106.236 79.2841C105.607 78.1477 105.289 76.8485 105.281 75.3864C105.281 73.8712 105.63 72.5114 106.327 71.3068C107.031 70.0947 108.012 69.1402 109.27 68.4432C110.527 67.7386 111.997 67.3939 113.679 67.4091ZM113.69 70.8182C112.872 70.8182 112.134 71.0189 111.474 71.4205C110.823 71.8144 110.308 72.3523 109.929 73.0341C109.558 73.7083 109.372 74.4621 109.372 75.2955C109.38 76.1212 109.565 76.8712 109.929 77.5455C110.3 78.2197 110.804 78.7538 111.44 79.1477C112.084 79.5417 112.819 79.7386 113.645 79.7386C114.259 79.7386 114.83 79.6212 115.361 79.3864C115.891 79.1515 116.353 78.8258 116.747 78.4091C117.149 77.9848 117.459 77.5038 117.679 76.9659C117.906 76.428 118.016 75.8598 118.009 75.2614C118.009 74.4659 117.819 73.7311 117.44 73.0568C117.069 72.3826 116.558 71.8409 115.906 71.4318C115.262 71.0227 114.524 70.8182 113.69 70.8182ZM138.793 86.6364V85.4091C138.793 84.5076 138.982 83.678 139.361 82.9205C139.747 82.1629 140.308 81.553 141.043 81.0909C141.777 80.6288 142.668 80.3977 143.713 80.3977C144.789 80.3977 145.69 80.6288 146.418 81.0909C147.145 81.5455 147.694 82.1515 148.065 82.9091C148.444 83.6667 148.634 84.5 148.634 85.4091V86.6364C148.634 87.5379 148.444 88.3674 148.065 89.125C147.687 89.8826 147.13 90.4924 146.395 90.9545C145.668 91.4167 144.774 91.6477 143.713 91.6477C142.652 91.6477 141.755 91.4167 141.02 90.9545C140.285 90.4924 139.728 89.8826 139.349 89.125C138.978 88.3674 138.793 87.5379 138.793 86.6364ZM141.759 85.4091V86.6364C141.759 87.2348 141.902 87.7841 142.19 88.2841C142.478 88.7841 142.986 89.0341 143.713 89.0341C144.448 89.0341 144.952 88.7879 145.224 88.2955C145.505 87.7955 145.645 87.2424 145.645 86.6364V85.4091C145.645 84.803 145.512 84.25 145.247 83.75C144.982 83.2424 144.471 82.9886 143.713 82.9886C143.001 82.9886 142.497 83.2424 142.202 83.75C141.906 84.25 141.759 84.803 141.759 85.4091ZM126.963 73.3182V72.0909C126.963 71.1818 127.156 70.3485 127.543 69.5909C127.929 68.8333 128.49 68.2273 129.224 67.7727C129.959 67.3106 130.849 67.0795 131.895 67.0795C132.963 67.0795 133.861 67.3106 134.588 67.7727C135.323 68.2273 135.876 68.8333 136.247 69.5909C136.618 70.3485 136.804 71.1818 136.804 72.0909V73.3182C136.804 74.2273 136.615 75.0606 136.236 75.8182C135.865 76.5682 135.312 77.1705 134.577 77.625C133.842 78.0795 132.948 78.3068 131.895 78.3068C130.827 78.3068 129.925 78.0795 129.19 77.625C128.463 77.1705 127.91 76.5644 127.531 75.8068C127.152 75.0492 126.963 74.2197 126.963 73.3182ZM129.952 72.0909V73.3182C129.952 73.9242 130.092 74.4773 130.372 74.9773C130.66 75.4697 131.168 75.7159 131.895 75.7159C132.622 75.7159 133.122 75.4697 133.395 74.9773C133.675 74.4773 133.815 73.9242 133.815 73.3182V72.0909C133.815 71.4848 133.683 70.9318 133.418 70.4318C133.152 69.9242 132.645 69.6705 131.895 69.6705C131.175 69.6705 130.671 69.9242 130.384 70.4318C130.096 70.9394 129.952 71.4924 129.952 72.0909ZM128.259 91L144.259 67.7273H147.099L131.099 91H128.259Z" fill="white"/>
<path d="M78.8565 101.909H80.8381V110.519C80.8381 111.435 80.6229 112.247 80.1925 112.955C79.7621 113.658 79.157 114.212 78.3771 114.616C77.5973 115.017 76.6832 115.217 75.6349 115.217C74.5909 115.217 73.679 115.017 72.8991 114.616C72.1193 114.212 71.5142 113.658 71.0838 112.955C70.6534 112.247 70.4382 111.435 70.4382 110.519V101.909H72.4134V110.359C72.4134 110.952 72.5433 111.478 72.8033 111.938C73.0675 112.398 73.4403 112.761 73.9219 113.025C74.4034 113.285 74.9744 113.415 75.6349 113.415C76.2997 113.415 76.8729 113.285 77.3544 113.025C77.8402 112.761 78.2109 112.398 78.4666 111.938C78.7266 111.478 78.8565 110.952 78.8565 110.359V101.909ZM83.5563 118.682V105.182H85.4228V106.773H85.5826C85.6934 106.569 85.8532 106.332 86.062 106.064C86.2708 105.795 86.5605 105.561 86.9313 105.361C87.302 105.156 87.7921 105.054 88.4015 105.054C89.1941 105.054 89.9015 105.254 90.5236 105.655C91.1458 106.055 91.6337 106.633 91.9874 107.387C92.3453 108.141 92.5243 109.049 92.5243 110.11C92.5243 111.171 92.3475 112.081 91.9938 112.839C91.6401 113.594 91.1543 114.175 90.5364 114.585C89.9185 114.989 89.2132 115.192 88.4206 115.192C87.824 115.192 87.3361 115.092 86.9569 114.891C86.5819 114.691 86.2878 114.457 86.0748 114.188C85.8617 113.92 85.6976 113.681 85.5826 113.472H85.4675V118.682H83.5563ZM85.4292 110.091C85.4292 110.781 85.5293 111.386 85.7296 111.906C85.9299 112.426 86.2196 112.833 86.5989 113.127C86.9782 113.417 87.4426 113.562 87.9924 113.562C88.5634 113.562 89.0407 113.411 89.4242 113.108C89.8077 112.801 90.0975 112.386 90.2935 111.862C90.4938 111.337 90.5939 110.747 90.5939 110.091C90.5939 109.443 90.4959 108.862 90.2999 108.346C90.1081 107.83 89.8184 107.423 89.4306 107.125C89.0471 106.827 88.5676 106.678 87.9924 106.678C87.4384 106.678 86.9696 106.82 86.5861 107.106C86.2069 107.391 85.9192 107.79 85.7232 108.301C85.5272 108.812 85.4292 109.409 85.4292 110.091ZM99.2488 105.182V106.716H93.8858V105.182H99.2488ZM95.324 102.83H97.2353V112.117C97.2353 112.488 97.2907 112.767 97.4015 112.955C97.5123 113.138 97.655 113.263 97.8297 113.332C98.0087 113.396 98.2026 113.428 98.4114 113.428C98.5648 113.428 98.699 113.417 98.8141 113.396C98.9292 113.374 99.0186 113.357 99.0826 113.344L99.4277 114.923C99.3169 114.966 99.1593 115.009 98.9547 115.051C98.7502 115.098 98.4945 115.124 98.1877 115.128C97.6848 115.136 97.2161 115.047 96.7814 114.859C96.3468 114.672 95.9952 114.382 95.7267 113.99C95.4583 113.598 95.324 113.106 95.324 112.513V102.83ZM101.363 115V105.182H103.274V115H101.363ZM102.328 103.667C101.996 103.667 101.71 103.556 101.472 103.335C101.237 103.109 101.12 102.84 101.12 102.529C101.12 102.214 101.237 101.945 101.472 101.724C101.71 101.498 101.996 101.385 102.328 101.385C102.661 101.385 102.944 101.498 103.178 101.724C103.417 101.945 103.536 102.214 103.536 102.529C103.536 102.84 103.417 103.109 103.178 103.335C102.944 103.556 102.661 103.667 102.328 103.667ZM105.845 115V105.182H107.68V106.78H107.801C108.006 106.239 108.34 105.817 108.805 105.514C109.269 105.207 109.825 105.054 110.473 105.054C111.129 105.054 111.679 105.207 112.122 105.514C112.57 105.821 112.9 106.243 113.113 106.78H113.215C113.45 106.256 113.823 105.838 114.334 105.527C114.845 105.212 115.455 105.054 116.162 105.054C117.053 105.054 117.779 105.333 118.342 105.891C118.909 106.45 119.192 107.291 119.192 108.416V115H117.281V108.595C117.281 107.93 117.1 107.449 116.737 107.151C116.375 106.852 115.943 106.703 115.44 106.703C114.818 106.703 114.334 106.895 113.989 107.278C113.644 107.658 113.471 108.146 113.471 108.742V115H111.566V108.474C111.566 107.941 111.4 107.513 111.068 107.189C110.735 106.865 110.303 106.703 109.77 106.703C109.408 106.703 109.073 106.799 108.767 106.991C108.464 107.178 108.219 107.44 108.031 107.777C107.848 108.114 107.757 108.504 107.757 108.947V115H105.845ZM125.985 115.198C125.018 115.198 124.185 114.991 123.486 114.578C122.791 114.161 122.254 113.575 121.875 112.82C121.5 112.062 121.312 111.173 121.312 110.155C121.312 109.149 121.5 108.263 121.875 107.496C122.254 106.729 122.783 106.13 123.46 105.7C124.142 105.269 124.939 105.054 125.851 105.054C126.405 105.054 126.942 105.146 127.462 105.329C127.982 105.512 128.448 105.8 128.862 106.192C129.275 106.584 129.601 107.093 129.839 107.719C130.078 108.342 130.197 109.098 130.197 109.989V110.666H122.393V109.234H128.325C128.325 108.732 128.222 108.286 128.018 107.898C127.813 107.506 127.526 107.197 127.155 106.972C126.788 106.746 126.358 106.633 125.864 106.633C125.327 106.633 124.858 106.765 124.457 107.029C124.061 107.289 123.754 107.63 123.537 108.052C123.324 108.469 123.217 108.923 123.217 109.413V110.532C123.217 111.188 123.332 111.746 123.562 112.207C123.797 112.667 124.123 113.018 124.54 113.261C124.958 113.5 125.446 113.619 126.004 113.619C126.366 113.619 126.697 113.568 126.995 113.466C127.293 113.359 127.551 113.202 127.768 112.993C127.986 112.784 128.152 112.526 128.267 112.219L130.076 112.545C129.931 113.078 129.671 113.545 129.296 113.945C128.925 114.342 128.459 114.651 127.896 114.872C127.338 115.089 126.701 115.198 125.985 115.198Z" fill="#ADADAD"/>
</svg>
